<?xml version="1.0" encoding="UTF-8" standalone="no"?>
<!-- Created with Inkscape (http://www.inkscape.org/) -->
<svg xmlns:inkscape="http://www.inkscape.org/namespaces/inkscape" xmlns:sodipodi="http://sodipodi.sourceforge.net/DTD/sodipodi-0.dtd" xmlns:xlink="http://www.w3.org/1999/xlink" xmlns="http://www.w3.org/2000/svg" xmlns:svg="http://www.w3.org/2000/svg" width="1032.9563mm" height="692.11786mm" viewBox="0 0 1032.9563 692.11786" version="1.1" id="svg5" xml:space="preserve" sodipodi:docname="drawing.svg" inkscape:version="1.2.1 (9c6d41e, 2022-07-14)">
  <sodipodi:namedview id="namedview10" pagecolor="#ffffff" bordercolor="#000000" borderopacity="0.25" inkscape:showpageshadow="2" inkscape:pageopacity="0.0" inkscape:pagecheckerboard="0" inkscape:deskcolor="#d1d1d1" inkscape:document-units="mm" showgrid="false" inkscape:zoom="0.22199902" inkscape:cx="1418.9252" inkscape:cy="1358.1141" inkscape:window-width="1659" inkscape:window-height="917" inkscape:window-x="14" inkscape:window-y="44" inkscape:window-maximized="0" inkscape:current-layer="svg5"/>
  <defs id="defs2"/>
  <g id="g9074" inkscape:label="bg">
    <path style="display:inline;fill:#cbccce;stroke-width:0.264583" d="m -273.89693,440.88513 c -24.8699,-0.0649 -25.86441,-0.0861 -26.11701,-0.55811 -0.17249,-0.32232 -0.27,-39.97238 -0.28416,-115.55548 -0.0119,-63.28563 -0.0166,-115.27813 -0.0106,-115.53888 0.0148,-0.63825 3.64053,-2.2566 11.12346,-4.96496 1.52797,-0.55303 2.75282,-1.11969 2.72188,-1.25926 -0.0309,-0.13956 -1.1113,-1.8447 -2.40081,-3.78917 -3.75164,-5.65722 -5.06075,-7.99031 -7.40249,-13.19274 -4.78449,-10.62923 -6.60153,-16.84319 -8.25111,-28.21715 -0.4807,-3.31446 -0.6275,-10.83238 -0.29358,-15.03465 0.45305,-5.70151 1.51914,-10.48584 3.28924,-14.76119 l 0.95979,-2.3182 V 98.097741 c 0,-27.001998 -0.0117,-27.640067 -0.54217,-29.564091 -0.53276,-1.932384 -2.41994,-11.046486 -3.256,-15.724822 -1.36572,-7.642093 -1.51464,-9.314074 -1.49649,-16.801041 0.0319,-13.174107 0.97504,-20.109656 4.12602,-30.3428397 l 0.91096,-2.958465 -0.009,-25.7488263 c -0.005,-14.161854 -0.0843,-26.918319 -0.17677,-28.347698 l -0.16811,-2.598873 -1.34804,0.170331 c -3.34732,0.422947 -9.91127,1.814939 -12.00826,2.546543 -3.29532,1.149686 -7.44008,3.17001 -8.60911,4.196429 -0.55129,0.484037 -1.35826,1.397379 -1.79327,2.029651 -0.46661,0.678193 -0.99789,1.149583 -1.29564,1.149583 -0.75076,0 -6.12619,-2.131822 -8.99668,-3.567962 -4.98049,-2.49179 -10.29676,-6.58331 -15.09166,-11.614872 -7.20218,-7.557664 -10.79286,-13.849506 -14.06003,-24.636957 -2.11119,-6.97071 -2.74949,-12.14183 -2.33688,-18.932131 0.40033,-6.58802 0.95588,-9.63486 2.80039,-15.35815 2.40558,-7.46423 3.35286,-9.38605 8.46381,-17.17118 4.56689,-6.95638 10.62824,-13.19031 18.65186,-19.18289 8.31507,-6.21026 14.93927,-10.08579 24.0639,-14.07874 8.10279,-3.54579 14.37633,-5.72229 24.20937,-8.39903 11.71056,-3.18785 16.51619,-3.98918 36.68254,-6.11678 l 1.49296,-0.1575 0.18738,-1.76326 c 0.10305,-0.96979 0.60477,-3.192 1.11492,-4.93825 0.51015,-1.74625 1.03822,-3.63795 1.17349,-4.20376 0.36367,-1.52126 1.39934,-3.57947 3.11083,-6.18223 2.23989,-3.40636 3.92028,-5.30425 6.54556,-7.39281 4.17268,-3.31961 7.28674,-4.45918 11.60482,-4.24673 1.30969,0.0644 2.88959,0.30068 3.51088,0.52498 3.03359,1.0952 5.93526,3.7018 6.30301,5.66206 0.14784,0.78807 0.004,1.16206 -1.05916,2.7615 -1.77587,2.67066 -2.80339,5.93122 -2.99123,9.49185 -0.14276,2.70616 0.15536,6.01977 0.74507,8.28149 l 0.2587,0.99219 h 8.58876 c 4.72382,0 8.58876,-0.0844 8.58876,-0.18755 0,-0.10316 -0.42824,-1.18461 -0.95165,-2.40322 -0.5234,-1.21862 -1.19057,-3.36664 -1.48258,-4.77339 -0.46707,-2.25008 -0.49389,-2.80621 -0.22295,-4.6237 0.1694,-1.13629 0.53057,-2.58524 0.80262,-3.21989 1.08332,-2.5273 3.91204,-4.63256 6.22019,-4.62937 1.41089,0.002 1.71215,0.23821 2.0134,1.57894 0.72354,3.22028 3.60102,6.66632 8.04076,9.62955 4.78223,3.19183 12.11437,6.07551 21.94221,8.62975 7.83764,2.03698 10.12729,2.45891 23.56612,4.34266 4.50252,0.63112 16.00441,1.50172 26.87122,2.03393 12.53739,0.61402 38.529654,0.002 52.37149,-1.23261 16.847819,-1.50306 25.990258,-2.87534 40.216665,-6.03651 4.096861,-0.91034 12.039679,-3.67531 16.0072915,-5.57229 10.4654876,-5.00372 16.4733282,-11.27582 16.6670297,-17.40015 0.036724,-1.16113 0.2091267,-2.23389 0.3949964,-2.45785 0.5568154,-0.67093 2.3196284,-0.97228 5.7189954,-0.97766 2.889223,-0.005 3.57333,0.089 6.111213,0.83624 4.599517,1.35418 9.969341,4.48652 13.742961,8.01655 1.107201,1.03574 1.717833,1.44733 1.795938,1.21054 0.06509,-0.19732 0.432462,-1.60892 0.816425,-3.13689 2.240201,-8.91542 5.230019,-14.95944 9.805934,-19.82314 3.800025,-4.03902 7.40672,-5.81841 11.156289,-5.50406 2.355717,0.19749 4.515114,1.03147 5.618559,2.16993 l 0.892757,0.9211 1.370515,-1.29618 c 4.031244,-3.81258 9.138073,-5.67576 16.357732,-5.96799 11.911647,-0.48215 22.024229,-2.28469 30.465239,-5.43034 7.6033,-2.83347 10.43672,-3.94321 12.96458,-5.07768 11.57142,-5.19312 16.39057,-6.5583 23.15104,-6.5583 6.60426,0 10.73092,1.16141 23.28333,6.55289 13.47121,5.78612 20.56212,7.99507 29.95181,9.33052 3.8906,0.55334 9.23304,1.04034 12.94289,1.17982 4.20262,0.15801 4.79412,0.23278 7.5629,0.95597 3.54174,0.92508 6.41282,2.48544 9.09863,4.94488 l 1.48018,1.35543 0.86728,-0.89481 c 2.00935,-2.07311 7.04099,-2.80233 10.36534,-1.50222 3.83244,1.49883 9.01454,6.89609 11.72208,12.20877 1.90605,3.74007 3.35848,7.74436 4.51056,12.43541 0.37526,1.52797 0.73832,2.93897 0.80682,3.13556 0.0836,0.23983 0.63299,-0.11329 1.66994,-1.07332 3.96804,-3.6737 9.02235,-6.6683 13.61036,-8.06389 2.70324,-0.82228 3.26032,-0.90184 6.32483,-0.90329 5.09548,-0.002 6.1953,0.44914 6.10696,2.50736 -0.22934,5.34222 3.75986,10.68847 11.53988,15.46546 1.54284,0.94732 4.11485,2.34059 5.71558,3.09616 4.90741,2.31637 13.8058,5.11106 20.10833,6.31536 1.16417,0.22245 3.54542,0.69873 5.29167,1.0584 10.21297,2.10352 25.46342,3.83676 42.46562,4.82627 12.83057,0.74674 39.35656,0.65524 50.40313,-0.17385 10.31846,-0.77444 14.18074,-1.10172 15.61041,-1.32276 0.87313,-0.135 3.37344,-0.49041 5.55625,-0.78982 13.04208,-1.7889 23.17263,-4.31109 32.93084,-8.19873 5.32254,-2.1205 8.38041,-3.97089 11.99263,-7.25708 1.64309,-1.49477 2.27346,-2.29695 3.10886,-3.95611 0.57634,-1.14464 1.04788,-2.35653 1.04788,-2.69308 0,-2.19183 4.27093,-1.73276 6.57677,0.70692 1.97319,2.08768 2.97178,5.93687 2.41083,9.29284 -0.40293,2.41049 -1.18628,4.98486 -2.01575,6.6245 -0.35245,0.69668 -0.56999,1.38129 -0.48342,1.52135 0.0955,0.15455 3.47559,0.25467 8.59824,0.25467 h 8.44085 l 0.25871,-0.99219 c 0.94551,-3.62633 1.0193,-9.19519 0.16383,-12.36406 -0.58069,-2.151 -1.67982,-4.53563 -2.71672,-5.89403 -0.47323,-0.61997 -0.86042,-1.36814 -0.86042,-1.66259 0,-1.60697 2.03197,-4.04652 4.47947,-5.37797 3.82797,-2.08242 8.98705,-1.99113 13.22141,0.23397 2.15525,1.13254 5.89773,4.11298 7.36463,5.86506 2.67957,3.20045 5.5931,8.10565 6.11756,10.29951 0.13528,0.56581 0.66334,2.45751 1.17351,4.20376 0.51014,1.74625 1.01187,3.96846 1.11493,4.93825 l 0.18735,1.76326 1.49296,0.15697 c 17.19405,1.80777 25.86601,3.09973 31.25859,4.65694 0.94589,0.27315 2.91042,0.80699 4.36562,1.18631 11.981,3.12305 21.92716,6.79025 31.80311,11.72595 4.72881,2.36333 7.57174,4.04075 12.11773,7.14987 6.63815,4.54001 10.28311,7.48549 15.05444,12.16544 4.52523,4.43856 6.66888,7.1636 11.09353,14.10229 3.16585,4.96462 4.75758,8.57419 6.90309,15.65433 1.30214,4.29705 1.939,8.09725 2.29235,13.67907 0.50077,7.910516 -0.35867,13.266815 -3.71528,23.154488 -2.56302,7.54998 -6.58699,14.020207 -12.68823,20.4017 -4.748,4.96612 -9.55151,8.708861 -14.44783,11.257317 -3.06817,1.596924 -8.79277,3.925517 -9.6505,3.925517 -0.29773,0 -0.82901,-0.47139 -1.29563,-1.149583 -0.43501,-0.632272 -1.24397,-1.547366 -1.79769,-2.03354 -1.16088,-1.019254 -5.24531,-3.003957 -8.63957,-4.198125 -2.08814,-0.734648 -8.33112,-2.056035 -11.97343,-2.53429 l -1.34808,-0.177012 -0.16356,2.334297 c -0.09,1.283862 -0.17042,14.037326 -0.17881,28.341036 l -0.0153,26.0067159 0.91305,2.9651589 c 2.19615,7.1319492 3.53473,14.3191702 3.97706,21.3536732 0.33697,5.358633 0.19671,16.164692 -0.24723,19.05 -1.3476,8.758264 -3.194,18.293926 -4.24995,21.948986 l -0.64643,2.237502 v 27.675125 27.675124 l 0.95718,2.36654 c 1.23743,3.05935 1.55271,4.13978 2.34942,8.05172 0.89689,4.40365 1.29109,9.81445 1.099,15.08458 -0.42441,11.64474 -2.93356,21.94672 -8.28077,33.99896 -2.57548,5.80496 -3.93443,8.27326 -7.55464,13.72153 -1.43698,2.1626 -2.63803,4.04273 -2.66904,4.17806 -0.031,0.13536 1.49145,0.81767 3.38323,1.51625 6.74949,2.49238 10.2155,4.0354 10.40563,4.63246 0.0977,0.30686 0.14322,52.36358 0.1011,115.68157 -0.0598,89.8053 -0.14729,115.2203 -0.39804,115.5632 -0.29826,0.40791 -5.57093,0.43918 -73.16284,0.43389 -49.73074,-0.004 -73.00391,-0.0927 -73.35359,-0.2798 -0.50421,-0.26985 -0.51318,-1.34826 -0.5793,-69.6523 -0.0369,-38.158 -0.008,-90.10655 0.0652,-115.44123 0.11449,-39.85984 0.18431,-46.12571 0.51859,-46.52843 0.41735,-0.50281 1.54876,-1.03775 6.55902,-3.10115 1.78263,-0.73417 3.24114,-1.45354 3.24114,-1.59867 0,-0.1451 -0.33403,-0.69765 -0.74228,-1.22793 -2.70069,-3.50779 -7.06658,-11.28104 -9.07508,-16.15773 -2.98836,-7.25594 -4.25447,-11.87874 -4.89686,-17.8793 -0.91582,-8.55517 0.18717,-16.07521 3.35997,-22.90818 l 1.30009,-2.79982 V 131.8006 120.3483 l -1.44217,-1.55771 c -2.38797,-2.57929 -3.56618,-5.57673 -3.57846,-9.10381 -0.008,-2.47166 1.1298,-4.92101 3.36582,-7.24186 l 1.57763,-1.63747 -1.16636,-3.486578 c -0.64151,-1.917621 -1.56949,-5.514023 -2.06219,-7.992004 -2.29846,-11.559937 -2.78397,-21.632068 -1.46066,-30.302332 0.72731,-4.765304 2.65776,-12.595172 3.75126,-15.215049 l 0.88284,-2.115159 0.13229,-39.4174653 0.13229,-39.4174757 0.86746,-0.534612 c 4.19574,-2.58577 11.00029,-7.775585 14.57254,-11.114471 1.69791,-1.586971 6.38812,-6.849036 6.38812,-7.166978 0,-0.09303 -0.15967,-0.107876 -0.35486,-0.03298 -0.52448,0.201266 -8.53799,0.694973 -30.86597,1.901637 -4.00182,0.216271 -8.64526,0.514078 -10.31875,0.661797 -1.67349,0.14772 -5.1263,0.451453 -7.67291,0.674965 -2.54662,0.223513 -5.52318,0.522063 -6.61459,0.663443 -1.91574,0.248166 -3.44194,0.403061 -15.47812,1.570898 -3.05594,0.29651 -6.50875,0.662228 -7.67292,0.81271 -1.16417,0.150481 -3.06917,0.379256 -4.23333,0.508386 -1.16417,0.129132 -3.54542,0.426254 -5.29167,0.66027 -6.6286,0.888307 -13.04665,1.717842 -15.21354,1.96636 -8.71029,0.998968 -21.34666,2.334477 -25.4,2.68447 -1.67349,0.1445 -4.76911,0.437544 -6.87917,0.651214 -2.11005,0.213667 -5.50333,0.509307 -7.54062,0.656976 -2.03729,0.147669 -5.43057,0.441291 -7.54062,0.652492 -4.92969,0.493426 -9.02394,0.855673 -13.49375,1.193884 -4.91318,0.371758 -12.9585,1.006012 -16.93334,1.334942 -1.81901,0.15053 -4.67651,0.384958 -6.35,0.520952 -1.67349,0.135993 -4.88817,0.420769 -7.14375,0.632835 -2.25557,0.212066 -6.24416,0.519565 -8.86354,0.683329 -8.96363,0.560409 -12.7042,0.817499 -17.99166,1.236562 -5.20949,0.412885 -5.31223,0.432737 -6.61459,1.278408 -2.88753,1.874965 -3.31414,1.901235 -4.84198,0.298162 -2.34333,-2.458739 -5.63647,-3.746294 -10.72801,-4.194445 -12.74019,-1.121378 -31.72698,4.387869 -47.55713,13.799299 -8.1393,4.838991 -17.02091,13.092324 -19.81758,18.4156872 -1.37845,2.6237935 -1.42428,2.6789062 -2.38876,2.8717874 -1.82703,0.3654161 -4.86236,-0.682281 -6.81234,-2.351352 -1.2297,-1.0525919 -3.25691,-3.9880376 -3.78539,-5.4813726 -0.32668,-0.923052 -0.77401,-1.340353 -0.77401,-0.722048 0,0.661247 -1.7466,3.7572683 -2.7971,4.9581592 -2.25237,2.5748191 -5.75339,4.1215732 -7.97491,3.5233768 -1.02164,-0.2750873 -1.18843,-0.4565121 -2.24346,-2.4400933 -2.65829,-4.9980057 -8.36361,-10.6801967 -16.77664,-16.7085957 -3.41469,-2.446814 -13.23618,-7.567798 -17.96518,-9.367166 -8.226348,-3.130097 -11.826216,-4.22185 -17.669221,-5.358651 -6.913589,-1.345091 -11.161051,-1.619144 -16.268276,-1.049655 -4.236932,0.472448 -7.35883,1.797503 -9.575403,4.064175 -1.495425,1.529223 -2.04052,1.535597 -4.395999,0.05141 l -1.832769,-1.154818 -5.291667,-0.430954 c -5.398822,-0.439679 -9.536059,-0.724458 -17.991666,-1.238427 -2.619375,-0.159216 -7.143749,-0.512112 -10.054166,-0.784212 -2.910417,-0.2721 -6.89901,-0.624985 -8.8635414,-0.784188 -1.9645312,-0.159202 -4.8815624,-0.40496 -6.4822915,-0.546129 -1.6007291,-0.141166 -5.410729,-0.436179 -8.4666664,-0.655579 -6.8999097,-0.495379 -13.8677907,-1.078098 -21.8942697,-1.830999 -10.208763,-0.957601 -13.467874,-1.250301 -16.602604,-1.491075 -1.81901,-0.139716 -6.045729,-0.550952 -9.392708,-0.91386 -3.346979,-0.362911 -7.811823,-0.839161 -9.921875,-1.058333 -2.110052,-0.219173 -4.848489,-0.519039 -6.085416,-0.666369 -5.507673,-0.656008 -12.977892,-1.599925 -14.552083,-1.838757 -0.945886,-0.143507 -3.208073,-0.442198 -5.027083,-0.663757 -1.819011,-0.22156 -4.259792,-0.521245 -5.423959,-0.665967 -4.057782,-0.504441 -6.643736,-0.782817 -10.980206,-1.182002 -2.4011,-0.221028 -6.56828,-0.633103 -9.26042,-0.915721 -15.18099,-1.59368 -16.11553,-1.673489 -27.91354,-2.383824 -12.27914,-0.739301 -12.63873,-0.760121 -18.38854,-1.064726 -7.71749,-0.408844 -13.56857,-0.808913 -14.08906,-0.963345 -0.25466,-0.07556 -0.46302,-0.0619 -0.46302,0.03035 0,0.384554 5.36653,6.22794 7.29967,7.948298 4.26192,3.792807 9.51351,7.757599 13.66098,10.313622 l 0.86747,0.534612 0.13229,39.4174757 0.13229,39.4174653 0.87288,2.090103 c 0.48009,1.149535 1.38989,4.185629 2.02178,6.746875 2.7404,11.107552 3.13095,18.830554 1.57346,31.115105 -0.6499,5.126011 -2.15494,12.146253 -3.38296,15.779723 l -1.14163,3.377889 1.5783,1.63819 c 2.23674,2.32161 3.3751,4.77062 3.3665,7.24257 -0.0122,3.5193 -1.13786,6.39159 -3.57531,9.12331 l -1.47549,1.65362 0.0415,11.4163 0.0415,11.41632 1.27364,2.77812 c 4.52014,9.85951 4.87797,21.90869 1.00575,33.86667 -2.48926,7.68717 -5.49727,13.82897 -10.4349,21.30605 -1.11021,1.68121 -1.96685,3.10848 -1.90364,3.17169 0.0632,0.0632 1.77495,0.81399 3.80384,1.66838 5.29941,2.23166 5.90228,2.57109 6.08185,3.42429 0.0839,0.39841 0.20337,0.9625 0.26559,1.25354 0.1795,0.83966 0.13803,228.90554 -0.0417,229.37393 -0.0889,0.2317 -0.4164,0.47998 -0.72777,0.55176 -0.67591,0.15582 -83.48101,0.28986 -120.08303,0.19437 z m 648.11647,-57.3505 c -0.20043,-0.52234 0.36716,-1.19661 0.851,-1.01095 0.20765,0.0797 0.37754,0.42979 0.37754,0.77803 0,0.46004 -0.14698,0.63315 -0.53748,0.63315 -0.29559,0 -0.60658,-0.1801 -0.69106,-0.40023 z m -450.032586,-0.15198 c -0.230875,-0.37362 0.279056,-0.88355 0.652674,-0.65267 0.41963,0.25937 0.351817,0.9403 -0.09364,0.9403 -0.209682,0 -0.461248,-0.12943 -0.559038,-0.28763 z M 607.6922,374.09212 c -0.20754,-0.56343 0.0692,-1.00517 0.62966,-1.00517 0.39304,0 0.50421,0.14938 0.44098,0.59261 -0.0935,0.65508 -0.87093,0.9547 -1.07064,0.41256 z m -916.72119,-0.34372 c 0,-0.24254 0.128,-0.3983 0.28443,-0.34615 0.15644,0.0522 0.28443,0.20791 0.28443,0.34615 0,0.13825 -0.12799,0.29404 -0.28443,0.34616 -0.15643,0.0521 -0.28443,-0.10361 -0.28443,-0.34616 z M 396.35016,178.59616 c 0,-0.64482 0.61828,-0.55367 0.747,0.11012 0.0506,0.26106 -0.0843,0.44109 -0.33073,0.44109 -0.24543,0 -0.41627,-0.22622 -0.41627,-0.55121 z" id="path3754" inkscape:label="bg" transform="translate(366.7397,251.20076)"/>
  </g>
</svg>
