<?xml version="1.0" encoding="UTF-8" standalone="no"?>
<!-- Created with Inkscape (http://www.inkscape.org/) -->
<svg xmlns:inkscape="http://www.inkscape.org/namespaces/inkscape" xmlns:sodipodi="http://sodipodi.sourceforge.net/DTD/sodipodi-0.dtd" xmlns:xlink="http://www.w3.org/1999/xlink" xmlns="http://www.w3.org/2000/svg" xmlns:svg="http://www.w3.org/2000/svg" width="1032.9563mm" height="692.11786mm" viewBox="0 0 1032.9563 692.11786" version="1.1" id="svg5" xml:space="preserve" sodipodi:docname="drawing.svg" inkscape:version="1.2.1 (9c6d41e, 2022-07-14)">
  <sodipodi:namedview id="namedview10" pagecolor="#ffffff" bordercolor="#000000" borderopacity="0.25" inkscape:showpageshadow="2" inkscape:pageopacity="0.0" inkscape:pagecheckerboard="0" inkscape:deskcolor="#d1d1d1" inkscape:document-units="mm" showgrid="false" inkscape:zoom="0.22199902" inkscape:cx="1418.9252" inkscape:cy="1358.1141" inkscape:window-width="1659" inkscape:window-height="917" inkscape:window-x="14" inkscape:window-y="44" inkscape:window-maximized="0" inkscape:current-layer="svg5"/>
  <defs id="defs2"/>
  <g id="g9071" inkscape:label="fg">
    <path style="display:inline;fill:#dfa684;stroke-width:0.264583" d="m -273.31024,440.63975 c -24.11663,-0.0773 -26.08613,-0.11689 -26.39218,-0.53123 -0.2634,-0.35655 -0.33073,-23.92746 -0.33073,-115.77052 V 209.01517 l 1.91823,-0.87098 c 2.2367,-1.01557 9.07004,-3.65532 10.74316,-4.15015 0.63361,-0.18737 1.20672,-0.48321 1.27357,-0.65743 0.0668,-0.1742 -1.23891,-2.38406 -2.90168,-4.9108 -1.66277,-2.52675 -3.56911,-5.6061 -4.23631,-6.84303 -1.50225,-2.78505 -4.64069,-9.79805 -6.01993,-13.45184 -6.36432,-16.85988 -7.24156,-36.55337 -2.2026,-49.44697 l 1.16097,-2.97071 V 97.848557 69.983858 l -0.64643,-2.237502 c -1.00817,-3.489642 -2.30445,-10.054907 -3.88969,-19.700028 -0.68373,-4.160123 -0.9764,-16.107171 -0.51793,-21.143012 0.76506,-8.403352 1.57063,-12.939448 3.48111,-19.6019738 l 1.31075,-4.5710209 -0.0673,-28.4065653 -0.0673,-28.406593 -1.64159,0.04511 c -2.32376,0.06386 -9.74488,1.554538 -12.46731,2.504305 -5.54502,1.934479 -8.37733,3.661232 -10.52798,6.418503 l -0.80373,1.030425 -2.49324,-0.889537 c -11.7658,-4.197797 -22.32624,-13.095002 -29.65427,-24.98381 -3.50611,-5.688224 -6.79865,-15.324984 -7.90989,-23.151041 -0.60687,-4.273984 -0.27021,-12.759838 0.70853,-17.859378 0.87949,-4.58235 3.43199,-12.12502 5.46899,-16.16087 1.48272,-2.93766 5.77921,-9.50696 8.41695,-12.86944 5.53223,-7.05226 15.77434,-15.49156 26.77889,-22.06529 6.32713,-3.7796 18.33515,-9.0045 26.91474,-11.71107 5.35945,-1.69073 15.28075,-4.41429 18.77345,-5.15363 5.95718,-1.26102 23.58172,-3.60948 27.08815,-3.60948 1.60885,0 1.91414,-0.36355 2.24326,-2.6714 0.24938,-1.74873 1.09559,-4.90479 2.58247,-9.63173 0.55834,-1.775 2.90645,-5.72306 4.8241,-8.1111 5.49513,-6.84308 12.21411,-9.86475 18.38945,-8.27015 1.80209,0.46534 4.16129,1.78716 5.23674,2.93407 0.90231,0.96226 1.81066,2.47988 1.81192,3.02725 5.3e-4,0.23539 -0.52333,1.20988 -1.16415,2.16553 -2.08611,3.11092 -3.05675,6.56567 -3.06254,10.90024 -0.003,2.38981 0.52527,6.81242 0.94458,7.90512 0.14738,0.38409 1.09435,0.42925 8.99995,0.42925 7.8816,0 8.83523,-0.0452 8.83523,-0.41867 0,-0.23027 -0.34674,-1.21254 -0.77053,-2.18282 -2.78211,-6.36961 -2.51779,-12.10185 0.7067,-15.32634 1.44351,-1.44352 4.25983,-2.35185 5.2807,-1.70316 0.17715,0.11256 0.56521,0.99179 0.86235,1.95385 2.24383,7.26468 12.30216,13.17928 30.22415,17.77272 8.17996,2.09654 13.05248,3.00725 22.1034,4.13126 1.20055,0.14909 3.10555,0.38731 4.23334,0.52938 1.98591,0.25016 4.76834,0.48856 12.23698,1.04849 15.0677,1.12963 38.040648,1.13279 55.827077,0.008 10.42879,-0.6597 24.047449,-2.08701 31.749999,-3.32758 5.277538,-0.85 16.24113,-3.10888 19.314583,-3.97948 13.1150775,-3.71504 21.7783558,-8.471 27.2317621,-14.94965 2.0295393,-2.4111 2.9411082,-4.61948 3.1311849,-7.58571 0.1961356,-3.06047 0.2492375,-3.08973 5.608452,-3.08973 3.801745,0 4.293156,0.0576 6.494224,0.76072 4.875107,1.5574 9.759871,4.51078 13.552673,8.1941 0.90551,0.87939 1.715558,1.52972 1.800092,1.44519 0.08454,-0.0845 0.45093,-1.32804 0.814176,-2.76332 2.61112,-10.317 5.830596,-16.69453 10.886651,-21.56552 3.938667,-3.79453 7.04895,-5.091 10.810478,-4.50621 2.305156,0.35838 3.593465,0.96221 4.855104,2.27559 l 0.915035,0.95255 1.466215,-1.42192 c 2.581116,-2.50308 5.191919,-3.98903 8.925507,-5.07997 1.891982,-0.55285 3.251015,-0.72733 7.225109,-0.92768 11.594544,-0.58451 19.937698,-1.92563 27.648958,-4.44448 2.97445,-0.97157 11.97721,-4.36458 13.78556,-5.19556 7.69358,-3.53538 13.58424,-5.77961 17.53857,-6.6819 2.65197,-0.60512 3.6863,-0.70281 7.56962,-0.71495 7.00889,-0.0219 10.14367,0.80873 21.43125,5.67885 2.76489,1.19293 6.03911,2.5573 7.27604,3.0319 8.01836,3.07664 9.69153,3.67946 12.42846,4.47786 7.80253,2.27609 14.42825,3.2603 25.96568,3.85702 5.3322,0.27578 7.31649,0.73368 10.96811,2.53102 1.67079,0.82239 3.00363,1.73806 4.39214,3.0175 l 1.99345,1.83683 1.02103,-1.04561 c 2.54029,-2.60151 7.40917,-3.01169 11.36134,-0.95715 3.00426,1.56176 8.72691,7.89546 10.31173,11.41283 2.51212,5.57535 3.07637,7.14089 4.3769,12.14407 0.56195,2.16179 1.08611,3.99492 1.16483,4.07363 0.0787,0.0787 1.01131,-0.67798 2.07251,-1.68155 3.55917,-3.36601 8.94244,-6.58722 13.29486,-7.95533 2.18683,-0.6874 2.71703,-0.74852 6.49422,-0.74852 5.35985,0 5.41298,0.0293 5.60676,3.08973 0.25069,3.95971 2.0814,7.09356 6.32547,10.82805 2.47015,2.17355 3.22374,2.71662 6.33206,4.56322 4.48186,2.66261 11.05292,5.3143 17.70711,7.14556 5.33535,1.4683 18.38304,3.97691 24.87083,4.78178 13.67867,1.69696 23.15168,2.4593 39.55521,3.18322 9.23608,0.4076 31.6698,0.12098 40.61354,-0.51888 4.63018,-0.33126 14.72618,-1.20005 15.21354,-1.30917 0.29104,-0.0652 1.60073,-0.24641 2.91042,-0.40277 15.48619,-1.84889 30.04166,-5.56614 39.54057,-10.09809 7.52407,-3.58975 12.35544,-8.087 13.12106,-12.21364 0.33907,-1.8275 1.26392,-2.16338 3.6852,-1.33836 2.43456,0.82954 4.18494,3.24374 4.76226,6.56836 0.52208,3.00632 -0.24096,7.2992 -1.86812,10.51022 -0.34967,0.69005 -0.63576,1.49673 -0.63576,1.79261 0,0.53017 0.12813,0.53796 8.85335,0.53796 h 8.85333 l 0.26683,-0.99219 c 0.4903,-1.82326 0.80142,-4.67112 0.80206,-7.34218 0,-4.32585 -0.96959,-7.78537 -3.05835,-10.90024 -0.64082,-0.95565 -1.16469,-1.93014 -1.16416,-2.16553 0,-0.54737 0.90964,-2.06499 1.81194,-3.02725 1.07543,-1.14691 3.43464,-2.46873 5.23672,-2.93407 7.38272,-1.90637 15.44645,2.78025 21.20704,12.32545 0.73149,1.21205 1.51019,2.67997 1.73045,3.26205 0.88371,2.33526 2.59588,8.58067 2.86465,10.4492 0.15711,1.09242 0.38412,2.09323 0.50442,2.22402 0.12034,0.1308 1.26667,0.32798 2.54744,0.4382 8.20981,0.70649 19.95196,2.29549 25.47969,3.44802 4.43995,0.92573 13.82498,3.4763 19.84375,5.39293 8.51839,2.71262 20.43602,7.91026 26.6382,11.61771 11.02061,6.58776 21.24707,15.01455 26.77887,22.06627 2.64279,3.36891 6.93481,9.93288 8.42351,12.88245 2.01711,3.99648 4.59291,11.60535 5.46648,16.14787 1.10998,5.77173 1.26124,15.752583 0.31075,20.5052 -0.92413,4.621001 -3.03778,11.310258 -4.93252,15.610417 -3.41953,7.760776 -10.90287,16.832463 -18.59274,22.53902 -4.75269,3.526925 -8.11798,5.324107 -13.90089,7.423565 l -2.21978,0.805884 -0.94657,-1.162881 c -1.75736,-2.158968 -2.80641,-2.971265 -5.50191,-4.260146 -3.72324,-1.78031 -6.67001,-2.726121 -11.32056,-3.633494 -5.4424,-1.061868 -7.28253,-1.251455 -7.58045,-0.781005 -0.13052,0.206108 -0.23482,12.793509 -0.23709,28.611121 l -0.004,28.2430793 1.0591,3.5069197 c 2.90232,9.610249 4.02746,18.165577 3.93938,29.95369 -0.0419,5.614961 -0.16267,7.617751 -0.66183,10.980208 -1.18504,7.982691 -2.84361,16.547888 -3.92999,20.295129 l -0.67124,2.315395 v 27.867954 27.867934 l 1.16631,2.96745 c 1.13916,2.89843 2.2752,7.45326 2.78579,11.16954 0.47234,3.43764 0.61212,9.70735 0.30642,13.74117 -0.85582,11.29173 -3.21689,20.34646 -8.21449,31.50259 -2.55125,5.69517 -3.77188,7.91336 -7.33547,13.33063 -1.66407,2.52965 -2.9718,4.7395 -2.90608,4.91079 0.0657,0.1713 0.63794,0.46464 1.27154,0.65191 1.57265,0.46482 8.6823,3.22249 10.87545,4.21836 l 1.78594,0.81097 v 115.31881 c 0,91.8375 -0.0673,115.41093 -0.33073,115.77105 -0.31059,0.42468 -4.74988,0.45196 -72.90911,0.44799 -50.29586,-0.003 -72.73813,-0.0897 -73.09881,-0.28278 -0.5165,-0.27641 -0.51988,-1.15367 -0.44662,-115.45052 0.0653,-101.91236 0.11951,-115.22728 0.47069,-115.65228 0.4277,-0.5176 1.55509,-1.05217 6.46959,-3.06763 1.73924,-0.71329 3.26576,-1.40036 3.39225,-1.52686 0.13023,-0.13023 -0.62216,-1.4783 -1.73482,-3.10832 -7.38092,-10.81305 -11.92778,-22.2309 -13.05226,-32.7763 -0.88511,-8.3005 0.3253,-16.20818 3.47218,-22.6841 l 1.18848,-2.44573 v -11.70059 -11.70061 l -1.49376,-1.66365 c -3.41852,-3.80735 -4.42222,-8.69566 -2.57379,-12.53527 0.44117,-0.91638 1.44585,-2.26542 2.42679,-3.25852 l 1.67394,-1.69474 -1.18996,-3.596931 c -2.9712,-8.980884 -4.70329,-22.242647 -4.15007,-31.775055 0.13935,-2.401094 0.50067,-5.901955 0.80295,-7.779676 0.7106,-4.414176 2.4365,-11.261884 3.59363,-14.258078 l 0.91027,-2.357014 0.004,-38.9333576 c 0.003,-21.4133374 0.0915,-39.0649714 0.19844,-39.2258644 0.10691,-0.160891 1.02782,-0.795266 2.04647,-1.409722 3.89956,-2.352248 10.48724,-7.514222 13.96103,-10.939613 2.30193,-2.269844 6.34201,-6.830779 6.18754,-6.985243 -0.0698,-0.06981 -1.4171,-0.0041 -2.99399,0.145992 -1.57689,0.150103 -4.2363,0.341297 -5.90979,0.424873 -1.67349,0.08357 -5.00724,0.268084 -7.40833,0.410022 -2.4011,0.141936 -8.65188,0.493533 -13.89063,0.781325 -5.23875,0.28779 -10.89422,0.645152 -12.56771,0.794134 -1.67348,0.148984 -5.1263,0.452755 -7.67291,0.675047 -2.54662,0.222293 -5.46365,0.519094 -6.48229,0.659562 -1.76895,0.243932 -5.21751,0.589502 -14.55209,1.458222 -4.18388,0.389371 -6.72475,0.665247 -10.84791,1.177816 -1.16417,0.144722 -3.60495,0.446259 -5.42396,0.670081 -4.704,0.578808 -6.87091,0.863828 -10.18646,1.339858 -1.60073,0.229825 -3.86292,0.515715 -5.02708,0.635315 -1.16417,0.119597 -4.25979,0.464074 -6.87917,0.765506 -2.61937,0.301429 -7.14375,0.789228 -10.05416,1.083995 -2.91042,0.294767 -5.58933,0.59396 -5.95313,0.664869 -0.3638,0.07091 -2.20927,0.247012 -4.10104,0.391334 -3.28454,0.250579 -8.69127,0.732518 -20.90208,1.863154 -6.4837,0.600342 -14.53846,1.267145 -28.70729,2.376492 -5.60256,0.438653 -11.91287,0.974273 -14.02292,1.190268 -4.34345,0.444619 -9.07328,0.79697 -16.00729,1.192477 -6.12852,0.34956 -14.86202,1.005192 -17.06563,1.281134 -1.33463,0.167127 -2.03768,0.433596 -3.1393,1.189871 -2.21795,1.522645 -2.43862,1.515792 -4.2173,-0.130964 -1.72744,-1.599313 -4.1138,-2.85923 -6.66631,-3.519598 -2.3263,-0.601843 -10.40458,-0.853128 -13.62604,-0.423857 -9.94781,1.325573 -20.46256,4.661034 -30.75194,9.755026 -6.5224,3.229078 -8.84108,4.628596 -13.75349,8.301383 -6.02089,4.501568 -11.68329,10.436119 -13.68277,14.3404168 -0.57102,1.1149806 -1.19531,2.1576242 -1.38732,2.3169562 -0.55361,0.4594755 -3.50099,0.1324769 -4.90778,-0.544486 -2.6053,-1.2537016 -5.13374,-4.2420909 -6.17098,-7.293636 -0.27276,-0.802455 -0.56057,-1.458251 -0.63958,-1.457325 -0.079,0 -0.4413,0.799518 -0.8051,1.774613 -1.22777,3.2907816 -3.88583,6.2253547 -6.53738,7.2174099 -1.38544,0.5183716 -3.32004,0.6917002 -4.15292,0.37211 -0.22815,-0.087551 -0.89961,-1.0374048 -1.49212,-2.1107929 -1.44553,-2.6186076 -3.0884,-4.762156 -5.92206,-7.726759 -3.20286,-3.350842 -5.64105,-5.384403 -10.60281,-8.843301 -3.35238,-2.336959 -5.11969,-3.351321 -10.84792,-6.226212 -4.85116,-2.434717 -6.57341,-3.167946 -12.580458,-5.355976 -6.001623,-2.186054 -13.374555,-3.956767 -18.892361,-4.53726 -3.564995,-0.37505 -10.746951,-0.145278 -13.044275,0.417322 -2.342303,0.573622 -5.207714,2.091967 -6.812888,3.610078 -0.75528,0.714309 -1.551623,1.298741 -1.769666,1.298741 -0.218043,0 -1.159034,-0.49966 -2.091108,-1.110355 -1.306592,-0.856094 -2.058167,-1.154232 -3.282156,-1.301975 -1.708388,-0.206216 -12.743788,-1.013902 -23.018749,-1.684756 -3.4925,-0.228025 -8.076406,-0.588996 -10.186458,-0.802161 -2.110052,-0.213161 -8.4203646,-0.747056 -14.0229165,-1.186431 -15.0660095,-1.181539 -25.8868855,-2.092145 -29.7656245,-2.504861 -1.89177,-0.201292 -4.689739,-0.439293 -6.217708,-0.528888 -1.527968,-0.0896 -4.266406,-0.329362 -6.085416,-0.532813 -1.819011,-0.203449 -5.093229,-0.501047 -7.276042,-0.661326 -2.182812,-0.160282 -4.147343,-0.340903 -4.365625,-0.401381 -0.218281,-0.06048 -2.837656,-0.356095 -5.820833,-0.656929 -2.983177,-0.300831 -7.567083,-0.793723 -10.186458,-1.095314 -2.619375,-0.301593 -5.715,-0.646202 -6.879166,-0.765799 -1.164167,-0.1196 -3.426354,-0.40549 -5.027083,-0.635315 -3.056731,-0.43887 -4.836875,-0.675031 -10.054167,-1.333817 -6.205907,-0.783622 -9.842764,-1.200979 -13.890622,-1.594067 -2.25558,-0.219038 -7.07761,-0.700183 -10.71563,-1.069213 -11.55287,-1.171888 -16.84486,-1.690976 -20.10833,-1.972421 -3.41154,-0.294217 -16.13904,-1.037119 -31.88229,-1.860963 -2.69214,-0.14088 -6.30628,-0.383784 -8.03143,-0.539782 -1.72515,-0.156001 -3.19135,-0.228936 -3.25821,-0.162073 -0.16077,0.160771 4.56854,5.478452 6.47939,7.285479 3.9311,3.717512 10.44268,8.753581 14.07067,10.882286 0.80036,0.469609 1.54268,0.989042 1.64959,1.154292 0.10691,0.165251 0.19621,17.834978 0.19844,39.2660421 l 0.004,38.9656099 0.93713,2.398236 c 0.80569,2.061845 2.06962,6.616277 3.0026,10.819527 0.578,2.604003 1.11646,6.959759 1.36732,11.060747 0.57084,9.331643 -1.19823,22.91842 -4.1409,31.802916 l -1.18344,3.573033 1.6789,1.72069 c 0.95028,0.97393 2.01617,2.40874 2.45604,3.30613 0.7006,1.42931 0.77524,1.83298 0.75786,4.09898 -0.017,2.22041 -0.12024,2.7528 -0.88502,4.56512 -0.60121,1.42467 -1.34314,2.57834 -2.42812,3.77558 l -1.56237,1.72402 v 11.72173 11.72176 l 1.19802,2.46144 c 7.37668,15.15621 3.89364,35.28534 -9.59055,55.4256 -1.06498,1.59068 -1.84476,2.97974 -1.73284,3.08682 0.11192,0.10708 1.81084,0.87162 3.77537,1.69902 1.96453,0.82738 4.0677,1.71908 4.67372,1.98152 0.60602,0.26247 1.26086,0.75628 1.45521,1.09738 0.29295,0.51417 0.36599,20.25907 0.42727,115.48885 0.0676,105.02916 0.0376,114.90492 -0.34962,115.29219 -0.38499,0.38499 -4.48834,0.42354 -45.07931,0.42354 -24.56067,0 -45.53693,0.0377 -46.61391,0.0838 -1.07699,0.0461 -13.68581,0.0462 -28.01961,0 z m 30.5278,-2.88806 c 1.47258,-0.23249 3.69607,-0.69397 4.94109,-1.02547 2.27025,-0.60449 6.38572,-2.27531 7.12903,-2.89425 0.21828,-0.18177 0.99219,-0.67 1.71979,-1.08495 5.0184,-2.86197 13.02942,-10.12145 17.51459,-15.87153 4.65615,-5.96927 8.89677,-13.07582 11.52539,-19.31459 2.58147,-6.12687 5.41312,-14.88342 6.24584,-19.31458 0.27448,-1.46055 0.78971,-4.03704 1.40213,-7.01146 0.28105,-1.36506 0.90417,-7.26834 1.29864,-12.30312 1.0522,-13.42962 -0.55149,-30.48204 -3.87701,-41.22518 -0.35188,-1.13678 -0.63979,-2.24742 -0.63979,-2.46814 0,-0.50887 -2.5313,-8.34162 -3.15172,-9.75251 -0.25596,-0.58209 -0.86509,-2.18943 -1.35362,-3.57188 -1.72407,-4.87881 -7.31176,-15.46399 -11.17342,-21.16667 -3.90284,-5.76347 -10.01021,-12.0243 -14.5186,-14.88344 -2.19311,-1.39081 -4.98459,-2.54244 -6.6321,-2.73606 -1.16184,-0.13655 -1.70203,-0.0585 -2.72407,0.3936 -1.1683,0.51678 -1.32674,0.52993 -1.89554,0.15724 -2.39762,-1.57099 -3.40989,-6.96328 -2.09563,-11.1633 0.62447,-1.99565 2.87959,-5.21587 4.61965,-6.5967 2.01938,-1.60247 6.27055,-3.67474 9.15943,-4.46484 4.41931,-1.2087 10.80208,-1.1357 16.13958,0.18457 10.71946,2.65155 18.73943,7.36939 28.77916,16.92966 5.65272,5.38276 10.70757,11.52593 15.31085,18.6074 2.62754,4.04207 8.06333,13.34585 8.57944,14.68437 0.2525,0.65485 0.56024,1.30374 0.68388,1.44198 0.30769,0.34404 0.29113,-52.68348 -0.0166,-53.25154 -0.27049,-0.49927 -5.20439,-4.94549 -6.63774,-5.98168 -8.19122,-5.9214 -18.64167,-11.71689 -25.79172,-14.30329 -7.2164,-2.61038 -11.38737,-3.57839 -18.23776,-4.2326 -5.52717,-0.52784 -8.39367,-0.50559 -13.5174,0.10494 -8.14765,0.97086 -15.29191,3.30562 -21.22251,6.93555 -8.84569,5.41417 -15.74659,14.06136 -16.1567,20.2452 -0.12457,1.87822 0.01,2.41006 1.00378,3.97981 0.55963,0.88357 -0.0723,1.8029 -1.8017,2.62104 l -1.44016,0.6813 0.12817,4.14475 c 0.10723,3.46761 0.24319,4.5338 0.83225,6.526 1.51029,5.10792 3.06065,8.01606 5.82471,10.92589 3.29261,3.46626 6.67703,4.95356 10.86844,4.77618 1.86245,-0.0788 2.31719,-0.19653 3.2457,-0.84018 1.35276,-0.93777 1.89998,-0.71559 2.84867,1.15654 0.92671,1.82878 1.07606,3.28404 0.53104,5.1742 -0.93595,3.2459 -3.29723,6.31827 -6.48427,8.43703 -2.34864,1.56136 -4.03066,2.28341 -7.3396,3.15071 -7.81609,2.04864 -16.10279,1.22962 -25.5684,-2.52704 -8.9283,-3.54343 -17.20009,-11.22127 -21.90429,-20.33145 l -0.88804,-1.71979 -0.0676,24.05361 c -0.0371,13.22951 -0.003,24.11796 0.0754,24.19657 0.0786,0.0786 0.85939,-0.5915 1.73506,-1.48915 5.91713,-6.06568 14.63671,-10.45877 23.26225,-11.71999 3.29163,-0.4813 9.69752,-0.16563 13.23199,0.65209 9.34673,2.16236 16.97475,7.49224 23.8735,16.68098 4.29268,5.71762 7.2494,12.22671 9.68716,21.32584 4.40031,16.42454 1.20643,38.40673 -7.6565,52.69671 -5.45698,8.79846 -11.25006,13.17104 -17.44989,13.17104 -5.44941,0 -10.70332,-5.15887 -8.86814,-8.70773 0.41422,-0.80102 0.51097,-0.84656 1.45835,-0.68651 1.39466,0.23564 2.76255,-0.50641 4.34236,-2.35561 3.46466,-4.0554 5.90771,-9.72857 7.43307,-17.26076 0.59098,-2.91822 0.6859,-4.07016 0.69367,-8.41795 0.0189,-10.59831 -1.4278,-16.56467 -5.46226,-22.52639 -2.41953,-3.57534 -4.86385,-5.47307 -8.85868,-6.87766 -1.69495,-0.59595 -2.27628,-0.67609 -4.09226,-0.56428 -4.02597,0.24789 -7.62156,1.87042 -11.72076,5.28903 -3.42456,2.85596 -6.35942,6.91663 -8.55255,11.83333 -1.57223,3.5247 -2.0871,5.06494 -3.42265,10.239 -1.41363,5.47656 -1.81202,8.54027 -2.00635,15.42928 -0.23713,8.40605 0.60021,14.88464 2.85543,22.09271 3.29485,10.53092 7.4362,17.77802 13.40526,23.45836 5.27302,5.01795 10.67722,7.62082 17.46805,8.41322 3.27108,0.38171 10.52868,0.3017 13.37324,-0.14746 z m 801.58676,-0.33358 c 10.69652,-2.22174 20.15948,-11.57219 25.60963,-25.30512 3.48282,-8.77581 5.07934,-16.89034 5.07545,-25.79688 -0.003,-7.79412 -0.70895,-13.06224 -2.69306,-20.10833 -3.0842,-10.95277 -7.94795,-18.19399 -15.09647,-22.47575 -3.02077,-1.80935 -5.42512,-2.51639 -8.52992,-2.50835 -2.38665,0.006 -2.83793,0.0901 -4.60672,0.8564 -3.66239,1.58668 -5.54614,3.155 -7.81465,6.50608 -4.03437,5.95961 -5.48161,11.92757 -5.46267,22.52639 0.01,5.54791 0.54163,9.07454 2.16527,14.36108 1.68984,5.50214 5.43073,11.62703 8.03273,13.1519 0.9785,0.57346 1.39049,0.67014 2.24226,0.52621 0.96965,-0.16381 1.07286,-0.11957 1.45772,0.62465 0.6296,1.21751 0.49858,2.38205 -0.46514,4.13451 -1.43761,2.61419 -4.97678,4.63021 -8.12842,4.63021 -5.90904,0 -11.47249,-3.76907 -16.3499,-11.07651 -5.03155,-7.53843 -8.1352,-15.74187 -9.97606,-26.36841 -1.17483,-6.78174 -1.26566,-15.30061 -0.23974,-22.4832 0.74224,-5.19666 2.94611,-12.50101 5.45481,-18.07906 1.82533,-4.05855 2.73767,-5.59226 5.51852,-9.27698 7.72861,-10.24062 16.96106,-16.00668 27.62628,-17.25382 3.17805,-0.37164 8.997,-0.17397 11.87112,0.40325 7.48347,1.50289 14.55991,5.31225 20.35844,10.95923 l 2.3151,2.25459 -0.006,-24.32338 -0.006,-24.32341 -0.82531,1.45521 c -2.91608,5.14167 -4.67114,7.56496 -8.00487,11.0527 -5.86988,6.14111 -13.55227,10.25774 -23.04044,12.34628 -8.08638,1.77998 -17.91695,0.50715 -23.38652,-3.028 -4.4744,-2.89195 -7.20855,-6.98246 -7.25937,-10.86064 -0.0193,-1.47085 0.10064,-1.95337 0.78906,-3.175 0.95398,-1.69291 1.71694,-1.95165 2.98667,-1.01288 1.10199,0.81473 4.48271,1.00396 6.90235,0.38634 4.66987,-1.19197 9.38217,-5.94778 11.58224,-11.68918 1.65896,-4.32935 1.95551,-5.77165 2.09724,-10.20101 l 0.13261,-4.14285 -1.55236,-0.75194 c -1.97927,-0.95875 -2.36135,-1.78433 -1.41695,-3.06168 0.82246,-1.11244 0.99102,-3.2453 0.42966,-5.43655 -1.53379,-5.98689 -8.09691,-13.56075 -15.83582,-18.27451 -6.10738,-3.72002 -13.86361,-6.20255 -22.00354,-7.04268 -5.16853,-0.53345 -7.75401,-0.51266 -13.80808,0.11105 -12.23483,1.26047 -24.87337,6.28964 -38.34677,15.25907 -4.51371,3.00485 -6.28774,4.37423 -9.23708,7.13018 l -2.2723,2.12331 0.0196,26.7095 0.0196,26.70953 0.75912,-1.64738 c 0.78711,-1.7081 7.46897,-13.02779 9.33545,-15.81512 1.8623,-2.78109 5.50254,-7.57487 8.16105,-10.74714 2.77373,-3.30978 9.42316,-9.78307 12.69037,-12.35424 9.09346,-7.15619 18.22748,-11.18764 27.71259,-12.23137 6.09136,-0.6703 10.81135,0.0836 15.78242,2.52074 3.74266,1.83491 5.54042,3.28035 7.23953,5.8207 1.79136,2.67829 2.28547,4.33938 2.28547,7.68318 0,2.50523 -0.0513,2.75399 -0.92605,4.48731 -0.50932,1.00928 -1.22827,2.05263 -1.59768,2.31854 -0.65447,0.47112 -0.70461,0.46889 -1.96117,-0.0869 -1.03439,-0.45755 -1.57443,-0.53695 -2.72934,-0.40119 -4.0101,0.4713 -9.60927,4.22608 -15.23447,10.21614 -4.99025,5.31395 -9.62813,12.56578 -14.63447,22.8826 -4.05466,8.35567 -8.03246,21.16696 -10.10457,32.54375 -0.74152,4.07122 -1.45693,11.79912 -1.77581,19.18229 -0.1007,2.33164 0.33592,11.71609 0.68938,14.81667 1.7073,14.97756 3.89167,23.59353 9.05563,35.71875 2.29007,5.37718 5.83692,11.26704 10.83452,17.99166 2.535,3.41101 10.51055,11.26398 13.85285,13.63996 6.76034,4.80576 10.51327,6.43964 17.57388,7.65112 3.3132,0.56845 13.24801,0.3589 16.66875,-0.35158 z M -190.98718,195.3531 c 1.86938,-4.28721 2.61771,-7.95282 2.63212,-12.89328 0.01,-3.26216 -0.0707,-3.96701 -0.66518,-5.84674 -1.67451,-5.2945 -4.93137,-8.09082 -9.42333,-8.09082 -1.80873,0 -2.55958,0.1656 -5.60316,1.23589 -12.95976,4.55726 -15.19073,5.18036 -20.33228,5.67854 -2.4959,0.24186 -3.69606,0.22225 -6.51606,-0.10639 -5.4962,-0.64055 -6.80516,-1.05246 -17.14746,-5.39612 -2.70407,-1.13567 -3.06986,-1.22158 -5.15937,-1.21169 -2.64795,0.0127 -3.91844,0.53565 -5.34281,2.1997 -1.34286,1.56884 -1.89009,3.56168 -2.00428,7.29914 -0.13879,4.5421 0.87365,10.12528 2.70532,14.91871 1.11788,2.92547 0.65935,2.754 5.7001,2.13148 9.69688,-1.1975 12.03518,-1.34791 23.15104,-1.48933 8.91329,-0.11338 12.23829,-0.0546 16.80104,0.29715 6.18444,0.47675 12.3031,1.20351 16.66875,1.97985 4.07249,0.72419 3.9002,0.75102 4.53556,-0.70609 z m 687.41619,0.47371 c 11.66913,-1.79412 18.62775,-2.2361 32.24247,-2.04788 10.67038,0.14751 14.15555,0.37428 23.10879,1.50355 2.32143,0.29279 4.32128,0.43183 4.44418,0.30893 0.37671,-0.37672 1.6868,-3.79177 2.04528,-5.33154 0.18635,-0.80037 0.55377,-2.16959 0.8165,-3.04271 1.24233,-4.12835 1.37279,-11.13676 0.26046,-13.99138 -1.26431,-3.24469 -3.12552,-4.50503 -6.62779,-4.4881 -2.47766,0.0119 -3.32636,0.26868 -8.20229,2.48097 -12.07524,5.47873 -20.51645,5.73236 -33.86645,1.01754 -10.52629,-3.71759 -10.60842,-3.74185 -12.7,-3.75246 -4.40002,-0.0222 -7.74634,2.86724 -9.41451,8.12935 -0.58666,1.8506 -0.67691,2.60641 -0.67263,5.63243 0.005,3.61182 0.0695,4.26603 0.717,7.29273 0.49024,2.29151 2.28399,7.07163 2.65364,7.07163 0.0563,0 2.39421,-0.35238 5.19535,-0.78306 z M -179.1931,133.91386 c 1.48698,-0.4422 2.95333,-0.80399 3.25854,-0.80399 0.30522,0 0.78524,-0.12324 1.06671,-0.2739 0.45064,-0.24117 0.51178,-0.57306 0.51178,-2.77812 0,-1.8905 -0.0851,-2.50423 -0.34725,-2.50423 -0.72688,0 -4.90697,1.56424 -7.10707,2.65956 -2.46871,1.22905 -2.7673,1.58502 -3.04813,3.6339 l -0.16434,1.19898 1.56308,-0.16412 c 0.8597,-0.0903 2.7797,-0.52591 4.26668,-0.96808 z m 663.55153,-0.19148 c -0.24691,-1.80139 -0.72218,-2.33876 -3.14939,-3.56087 -2.08478,-1.04968 -6.26051,-2.60789 -6.98873,-2.60789 -0.26313,0 -0.34724,0.63206 -0.34724,2.60929 v 2.60932 l 1.38907,0.29515 c 0.76398,0.16234 2.69875,0.64754 4.29947,1.07823 1.60073,0.43066 3.3731,0.79054 3.93857,0.7997 l 1.02814,0.0167 -0.16989,-1.23958 z m -728.69679,-20.71251 c 1.13461,-0.4445 2.0139,-1.05693 3.08216,-2.1467 2.80637,-2.86284 4.12824,-6.97912 3.85551,-12.006022 -0.14233,-2.623555 -1.38863,-8.711829 -1.7517,-8.557233 -0.103,0.04387 -1.18199,1.210839 -2.39775,2.593287 -5.17604,5.885683 -10.78432,11.153268 -15.07761,14.161668 -1.16784,0.8183 -2.17686,1.57445 -2.24228,1.68029 -0.15656,0.25333 6.13757,4.4795 7.14011,4.79422 1.45827,0.45775 5.64889,0.16325 7.39156,-0.51951 z m 795.45487,0.52512 c 0.49919,-0.14319 2.39011,-1.24233 4.20206,-2.44258 l 3.2944,-2.18226 -0.76422,-0.58637 c -0.42032,-0.3225 -1.95485,-1.47299 -3.41005,-2.55667 -3.35111,-2.49555 -8.31263,-7.222937 -12.40073,-11.815575 -1.74871,-1.964531 -3.25888,-3.606006 -3.35593,-3.647704 -0.097,-0.0417 -0.30919,0.434552 -0.47143,1.058333 -1.14792,4.413594 -1.22298,4.93268 -1.21629,8.410205 0.0106,5.445841 0.94864,8.209331 3.75436,11.058841 1.99781,2.02901 4.23532,2.92791 7.34176,2.94942 1.16512,0.008 2.52685,-0.10248 3.02607,-0.24564 z m -726.88578,-9.23835 c 0.52586,-1.19737 1.14883,-7.414236 1.14377,-11.414101 -0.014,-11.009735 -2.58968,-16.506004 -7.7147,-16.462163 -2.57174,0.02196 -4.36728,1.478148 -5.4181,4.393989 -0.59216,1.643115 -0.48147,4.747683 0.29615,8.305852 1.92961,8.82949 2.44039,11.572293 3.19087,17.134443 0.23561,1.74625 0.47648,3.32613 0.53526,3.51086 0.15979,0.50218 7.58204,-4.59293 7.96675,-5.46888 z m 659.25386,4.28085 c 0.87538,-6.83104 1.57237,-10.821484 3.063,-17.536371 1.57203,-7.081705 1.52308,-9.344131 -0.2636,-12.185015 -1.76461,-2.805774 -5.57535,-3.342481 -8.14083,-1.146519 -1.43378,1.22727 -2.84875,4.129273 -3.40765,6.988889 -0.86987,4.450689 -0.43331,18.098906 0.63701,19.914206 0.2726,0.46239 7.56737,5.4441 7.78933,5.3195 0.0884,-0.0496 0.2336,-0.65921 0.32274,-1.35469 z M -263.01594,83.324599 c 6.60117,-3.204078 11.92881,-7.24453 15.74648,-11.942021 l 1.03213,-1.269974 -0.46444,-0.978985 c -0.25545,-0.538427 -1.07283,-1.990989 -1.81641,-3.227916 -3.29117,-5.474759 -7.28269,-9.90309 -10.44593,-11.589068 -1.37487,-0.73279 -1.84917,-0.846005 -3.53525,-0.843756 -4.61699,0.0061 -7.49182,3.135524 -8.71529,9.487059 -0.44318,2.300711 -0.14613,9.711504 0.5468,13.641837 0.58426,3.313932 1.62274,7.424578 2.10184,8.31977 0.41919,0.783272 0.97685,0.622829 5.55007,-1.596946 z m 831.11354,1.569667 c 0.79989,-1.494578 2.21501,-8.169989 2.60599,-12.292938 0.61301,-6.464485 0.18221,-10.957031 -1.34978,-14.076468 -1.73934,-3.54158 -3.92647,-5.047456 -7.33745,-5.051981 -1.69018,-0.0026 -2.16188,0.110966 -3.57187,0.857303 -1.97763,1.046798 -5.36353,4.216241 -6.99569,6.548437 -0.66196,0.945886 -1.41282,1.957917 -1.66857,2.248959 -0.60648,0.690192 -3.94049,6.502982 -3.94049,6.87017 0,0.471409 3.80592,4.646428 5.85988,6.428158 3.4738,3.013419 8.97366,6.327722 13.98387,8.4269 1.82549,0.764831 2.02514,0.76827 2.41411,0.04146 z M -196.17051,38.630284 c 0.67487,-0.675508 1.20317,-1.735138 2.09893,-4.209997 1.5807,-4.367213 2.56306,-6.323833 4.10572,-8.177504 3.25094,-3.906414 8.55177,-6.174369 13.40356,-5.734711 l 1.94164,0.175948 V 8.8990287 c 0,-7.0670207 -0.0983,-11.7849913 -0.24542,-11.7849913 -0.13499,0 -0.69562,0.7441406 -1.24586,1.6536458 -2.13104,3.5224773 -7.43939,8.268229 -11.73788,10.4938246 -3.89149,2.0148812 -9.01678,3.2188412 -13.69142,3.2161692 -3.12269,-0.0026 -3.10298,-0.01561 -3.94881,2.760318 -0.40542,1.330484 -0.4785,2.444195 -0.45144,6.879167 0.0178,2.910417 0.17244,6.065573 0.34371,7.011458 0.73704,4.070297 2.42253,7.935066 4.16848,9.558126 1.00102,0.930566 1.3035,1.025869 2.94893,0.929058 1.19319,-0.07019 1.54558,-0.220531 2.30986,-0.98552 z M 500.886,38.76366 c 1.8261,-1.744742 3.48406,-5.522304 4.22878,-9.63504 0.17127,-0.945885 0.32594,-4.101041 0.3437,-7.011458 0.0271,-4.434972 -0.046,-5.548683 -0.45144,-6.879167 -0.84362,-2.768626 -0.85558,-2.777331 -3.82185,-2.783363 -6.73754,-0.01376 -12.68397,-1.920293 -17.78712,-5.7029881 -2.94568,-2.1834739 -6.42215,-5.7154232 -7.68831,-7.8110025 -0.61034,-1.0101527 -1.21375,-1.9009519 -1.34091,-1.9795331 -0.13057,-0.080698 -0.23119,5.0489642 -0.23119,11.7851764 V 20.674336 l 2.05052,-0.163539 c 5.09884,-0.406664 10.66445,2.154105 13.73259,6.318462 1.57935,2.143654 2.17672,3.367537 3.51147,7.194153 1.69807,4.868174 2.56717,5.796491 5.25137,5.609113 1.10236,-0.07694 1.56427,-0.259186 2.20239,-0.868865 z M -242.35803,4.3921692 c 1.8231,-0.9427634 4.00258,-3.52255663 3.96046,-4.6879139 -0.007,-0.18769542 -1.2215,-1.1746971 -2.69937,-2.1933429 -4.16424,-2.8702528 -7.3344,-5.6178978 -12.40782,-10.7540954 -7.22972,-7.319142 -12.00299,-13.810652 -16.314,-22.186529 -3.4037,-6.613056 -5.55245,-12.894873 -6.04084,-17.660239 -0.22482,-2.193734 -0.50882,-2.5382 -2.1119,-2.56156 l -1.29186,-0.01882 v 17.727082 17.727083 l 1.05833,-0.0563 c 4.90987,-0.26117 6.62485,-0.150257 8.86354,0.573246 2.90097,0.937525 4.76316,1.933708 7.10743,3.802116 3.24436,2.585799 4.88305,5.114051 7.68692,11.8597357 1.97688,4.75607054 4.60941,8.0339934 7.10067,8.8415017 1.04615,0.3391165 4.11679,0.090514 5.08844,-0.4119562 z M 548.47964,3.997014 c 2.30812,-1.4811375 3.70922,-3.64990059 6.36813,-9.8572371 2.89568,-6.7601569 5.86682,-10.1792349 10.96801,-12.6217359 3.81296,-1.825652 6.77426,-2.305129 11.01219,-1.782948 l 1.75176,0.215821 0.13414,-0.701702 c 0.0738,-0.385921 0.11891,-8.400703 0.10031,-17.810614 l -0.0338,-17.108934 -1.29844,0.06833 c -1.61676,0.08509 -2.00829,0.400048 -2.01094,1.617708 -0.004,1.681263 -1.23899,6.938282 -2.4016,10.220208 -1.25489,3.542456 -5.37218,11.822237 -7.51064,15.103827 -3.47041,5.325446 -6.52733,9.156321 -11.43662,14.332127 -4.36507,4.6020829 -9.89904,9.4559963 -13.6485,11.9713371 -1.40999,0.9458854 -2.5649,1.89838537 -2.56651,2.11666661 -0.007,0.97816457 1.86486,3.34277219 3.39719,4.29114469 1.24439,0.7701492 2.2927,0.9917377 4.19958,0.8876506 1.31127,-0.071543 1.92,-0.2641864 2.97576,-0.941652 z m -397.9289,-32.084539 c 4.37933,-12.098935 20.64605,-25.353652 42.86401,-34.927205 6.97971,-3.007503 11.63013,-4.477264 18.91771,-5.978922 9.48264,-1.953967 16.78315,-2.057281 23.6802,-0.335114 5.65314,1.411568 8.85741,3.101211 12.39325,6.535143 1.24875,1.212773 2.29867,2.176856 2.33312,2.142405 0.0344,-0.03445 -0.34121,-0.897538 -0.83482,-1.917975 -1.05571,-2.182548 -4.35647,-5.86227 -6.86289,-7.650803 -6.76587,-4.828042 -17.16585,-6.659247 -28.45885,-5.010978 -9.35225,1.365015 -25.02849,6.975218 -34.66147,12.40463 -4.49114,2.531332 -10.50729,6.361953 -12.96458,8.254864 -8.84365,6.812439 -10.08669,7.861644 -13.86695,11.704741 -1.73323,1.762032 -3.22355,3.203694 -3.31181,3.203694 -0.0883,0 -1.46812,-1.319348 -3.06639,-2.931885 -5.29408,-5.341414 -13.65909,-12.044717 -19.83923,-15.898167 -5.41747,-3.377909 -13.35984,-7.649339 -16.58194,-8.917818 -1.0664,-0.419817 -3.12952,-1.241438 -4.58472,-1.825826 -5.944291,-2.387129 -14.299833,-4.889926 -19.182295,-5.745818 -10.062289,-1.763909 -19.685661,-0.756836 -26.789802,2.803519 -3.944117,1.976665 -8.3067,6.082252 -10.110523,9.51493 -1.16078,2.208961 -1.117282,2.908834 0.07964,1.281292 1.978078,-2.689791 6.888294,-5.871633 11.156103,-7.229207 8.560514,-2.723073 17.469987,-2.602037 30.1285,0.409292 3.833098,0.911854 10.800767,3.221228 12.913037,4.279905 0.70189,0.351793 1.75242,0.792969 2.3345,0.980392 1.45058,0.467061 8.80785,3.996854 11.24096,5.393076 1.09352,0.627499 3.2979,1.892724 4.89863,2.811611 1.60072,0.918887 4.26524,2.632776 5.92113,3.808643 1.6559,1.175863 3.50137,2.482664 4.10104,2.903997 4.3842,3.080356 10.37572,9.1963 13.26888,13.544455 1.43677,2.159328 3.82458,6.973093 3.82747,7.716046 0.003,0.822994 0.5113,0.187693 1.05809,-1.322917 z M -54.175157,-47.484253 c 0.08157,-0.08156 -0.787135,-1.455057 -1.930426,-3.052214 -3.477604,-4.858121 -5.805752,-9.097008 -7.397168,-13.468244 -2.135928,-5.866805 -2.903326,-9.573353 -2.903326,-14.022917 0,-11.791198 6.510311,-21.326485 16.271875,-23.832502 4.013358,-1.03032 8.86415,-0.60495 11.471222,1.00594 2.53148,1.564175 4.210102,4.525852 3.160236,5.575729 -0.174625,0.174625 -0.8949,0.3175 -1.60065,0.3175 -2.333599,0 -3.681307,1.199214 -4.673838,4.15884 -2.500577,7.456424 3.097742,18.289992 12.990221,25.138025 9.346618,6.470153 17.959731,9.354058 29.18822393,9.772991 15.24754007,0.568889 29.52776407,-6.737556 37.83544207,-19.358398 2.71571,-4.125671 3.362351,-5.386892 4.894474,-9.54637 2.356353,-6.39713 3.172566,-11.091632 3.197489,-18.390857 0.01879,-5.51445 0.0217,-5.48504 -0.987636,-10.55965 -0.943187,-4.74259 -2.173473,-8.86401 -4.857274,-16.27187 -0.904451,-2.49643 -5.735531,-11.853 -7.099009,-13.74892 -0.678418,-0.94336 -1.8288,-2.57657 -2.556404,-3.62937 -4.55795,-6.59508 -11.413542,-13.7314 -17.727082,-18.45296 -8.948235,-6.6919 -18.1113641,-11.87195 -27.62123,-15.61463 -4.358296,-1.71525 -4.970462,-1.81239 -7.700644,-1.22198 -8.258519,1.78593 -16.862002,3.402 -21.166666,3.97594 -3.827225,0.51027 -16.523308,1.88293 -20.902083,2.25986 -1.81901,0.15658 -4.378854,0.40261 -5.688542,0.54673 -7.512922,0.82673 -41.413138,1.10984 -51.196868,0.42755 -3.41974,-0.23848 -7.94412,-0.55493 -10.05417,-0.70321 -21.9627,-1.54341 -40.74825,-5.72839 -52.9714,-11.80079 -5.60326,-2.78367 -9.17121,-5.49831 -11.58724,-8.81603 -0.64038,-0.87938 -1.21522,-1.54798 -1.27743,-1.48577 -0.0622,0.0622 0.0264,0.66699 0.19684,1.34397 1.1276,4.47813 5.70217,9.26079 13.21652,13.81772 3.88784,2.3577 8.74463,4.79783 12.0136,6.03583 1.34277,0.50853 3.3939,1.28728 4.55807,1.73057 4.89744,1.86484 13.2769,4.24097 20.24062,5.73953 8.63894,1.85907 22.07361,3.73209 31.48542,4.38961 8.16814,0.57063 17.701099,1.43847 18.046248,1.64284 0.10279,0.0609 0.126524,0.26794 0.05276,0.46017 -0.09216,0.24017 -0.962475,0.40379 -2.781968,0.52303 -8.2355,0.53971 -14.34084,3.21254 -17.06477,7.47071 -1.89937,2.96919 -1.7276,7.32851 0.40036,10.16056 1.11512,1.48407 3.50745,3.44744 5.31612,4.36286 7.13502,3.61127 18.148299,3.15301 21.364257,-0.88895 0.984753,-1.23768 1.164008,-1.75014 0.876617,-2.50603 -0.135704,-0.35693 -0.135308,-0.7724 0,-0.98988 0.338535,-0.54031 2.032503,0.41059 2.819215,1.58256 0.78867,1.17485 0.758799,2.00503 -0.126259,3.50755 -3.505306,5.95092 -13.91925,7.59331 -29.14288,4.59615 -4.17345,-0.82165 -7.91178,-1.66395 -8.21399,-1.85071 -0.12689,-0.0784 -1.52127,-0.48388 -3.09861,-0.90098 -3.65512,-0.96682 -10.74585,-3.20912 -13.31793,-4.21186 -1.09141,-0.42549 -3.25804,-1.25831 -4.81473,-1.85071 -13.62126,-5.18358 -25.78025,-11.37577 -34.87277,-17.7596 -1.96453,-1.37929 -3.9886,-2.7905 -4.49792,-3.13603 -3.49901,-2.37374 -11.01874,-9.70539 -14.51989,-14.15671 -0.77476,-0.98502 -1.62691,-1.90776 -1.89366,-2.05052 -0.468,-0.25046 -18.51145,-0.39144 -18.51145,-0.14463 0,0.52036 2.37296,6.7149 3.06927,8.01224 3.32579,6.19647 7.10352,11.09948 13.3117,17.27691 3.55746,3.53985 5.93308,5.50657 12.32632,10.20472 9.22608,6.7799 24.70515,15.25113 35.71875,19.54781 1.74625,0.68126 3.71078,1.45778 4.36563,1.72562 0.65484,0.26783 3.18722,1.20551 5.62751,2.08374 12.71298,4.57522 25.03126,7.22007 37.2184,7.99115 8.261876,0.52272 14.277337,0.0808 20.065653,-1.47404 1.269523,-0.34102 2.406808,-0.52452 2.5273,-0.40779 0.120517,0.11674 -1.551332,1.98295 -3.7152,4.14713 -9.514364,9.51572 -14.159733,19.801425 -15.160543,33.568204 -0.60304,8.295301 0.57123,16.714782 3.21796,23.072545 1.231985,2.959351 1.21738,2.948921 4.590791,3.273533 3.719248,0.357889 13.423027,1.462648 17.197916,1.957956 1.600729,0.210035 4.696354,0.569587 6.879167,0.799005 9.449487,0.993164 17.097877,1.929551 17.284435,2.116124 0.176292,0.176281 0.450612,0.17009 0.635026,-0.01434 z M 1.4386706,-85.802271 c -1.48407433,-0.691055 -2.492666,-1.772156 -2.492666,-2.671895 0,-0.428622 0.28770795,-0.715327 1.07325584,-1.069565 1.16787076,-0.526632 2.21662616,-1.705292 3.17224826,-3.565146 0.8446558,-1.643857 1.020736,-5.117362 0.3929062,-7.750783 -0.5398293,-2.26421 -2.3010282,-6.12072 -3.785473,-8.28895 -2.2962128,-3.35394 -6.4515733,-7.44046 -10.2456449,-10.07586 -7.953269,-5.52444 -16.742463,-8.93966 -27.516666,-10.69219 -4.722786,-0.76821 -13.804662,-0.82981 -17.859375,-0.12115 -4.801658,0.83922 -10.366004,2.54366 -14.354756,4.39711 -1.289632,0.59924 -1.104503,0.0445 0.589412,-1.76634 2.009484,-2.14814 3.146584,-3.88758 4.389861,-6.71532 2.824083,-6.42315 2.208318,-12.83336 -1.702594,-17.72402 -1.57771,-1.97295 -3.37476,-3.55627 -5.905738,-5.20334 -2.089547,-1.3598 -3.481705,-2.00831 -6.676787,-3.11027 -1.298892,-0.44798 -2.416333,-0.98193 -2.48322,-1.18656 -0.236326,-0.72317 4.673309,0.019 21.116739,3.19194 8.011557,1.54594 17.912503,4.32357 27.516666,7.71959 4.464341,1.57859 5.128366,1.84499 8.426794,3.38085 1.214993,0.56575 2.268484,1.02863 2.341086,1.02863 0.0726,0 1.685396,0.77949 3.583966,1.73221 13.1792131,6.6134 22.9804378,14.5559 29.035507,23.52912 1.594008,2.3622 3.639079,6.4007 4.625683,9.1345 1.716352,4.75595 2.222977,10.94706 1.217481,14.878462 -1.474391,5.764824 -5.467324,10.230839 -10.1025326,11.299441 -1.804617,0.416042 -2.8991189,0.327988 -4.3561528,-0.350464 z M 355.3871,-47.722759 c 1.09022,-0.190135 8.52985,-1.046591 15.03389,-1.730713 2.69214,-0.283171 6.26401,-0.694463 7.9375,-0.913985 3.28438,-0.430829 12.98623,-1.537052 17.42517,-1.986846 1.50746,-0.152749 2.84917,-0.344691 2.98162,-0.42654 0.13242,-0.08185 0.55353,-0.765469 0.9358,-1.519156 2.58194,-5.090718 4.33607,-15.02022 3.93459,-22.27242 -0.42127,-7.609946 -1.29508,-12.170796 -3.34563,-17.4625 -2.79908,-7.223321 -6.2848,-12.536731 -11.95615,-18.225101 -2.15921,-2.16568 -3.82846,-4.03189 -3.70946,-4.14713 0.11899,-0.11524 1.25506,0.0695 2.52458,0.41052 3.83159,1.02924 6.9872,1.46874 11.71469,1.63156 4.84338,0.16682 14.1065,-0.39937 17.99167,-1.09969 1.16416,-0.20985 3.24776,-0.57247 4.6302,-0.80583 12.64878,-2.13511 30.88447,-8.42833 45.37605,-15.65947 4.98625,-2.48809 9.17889,-4.79994 11.90624,-6.56516 1.16417,-0.75348 3.18823,-2.00607 4.49792,-2.78352 2.63993,-1.56709 8.23799,-5.5147 12.7,-8.95571 2.93664,-2.26467 9.22946,-8.33795 11.67659,-11.26922 3.23091,-3.87007 6.77789,-9.07897 8.57681,-12.59542 0.4067,-0.79494 2.63306,-6.94863 2.63306,-7.27774 0,-0.16892 -17.91332,-0.11634 -18.3569,0.0539 -0.22468,0.0862 -1.09603,1.00896 -1.93635,2.05052 -2.7549,3.41468 -8.06569,8.88709 -11.04591,11.38199 -1.6084,1.34651 -4.93611,3.84985 -7.39489,5.56299 -4.08659,2.84732 -5.52582,3.74902 -11.53678,7.22796 -9.70524,5.61704 -31.03372,14.24479 -42.07957,17.02192 -1.67945,0.42224 -3.57516,0.95175 -4.21267,1.17668 -1.55819,0.54976 -9.43901,2.11743 -13.3713,2.65985 -4.43333,0.61152 -11.83476,0.4296 -14.76267,-0.36287 -4.09252,-1.10768 -7.13076,-3.13565 -8.38705,-5.59822 -0.68659,-1.34584 -0.66945,-2.09857 0.073,-3.2046 0.63913,-0.95211 2.40517,-2.07958 2.73722,-1.74751 0.10848,0.10845 0.16958,0.73083 0.13581,1.38306 -0.0513,0.99184 0.0789,1.36039 0.79582,2.25252 2.89298,3.59995 11.64547,4.48071 18.92559,1.90448 2.73487,-0.96779 4.23132,-1.86689 6.24951,-3.7548 3.37238,-3.15469 4.18113,-7.07087 2.2792,-11.03637 -2.19945,-4.58583 -8.64925,-7.61906 -17.42376,-8.19408 -2.3499,-0.154 -2.66123,-0.23166 -2.66123,-0.6638 0,-0.28764 0.19089,-0.49163 0.46302,-0.49483 0.25466,-0.003 2.24895,-0.18111 4.43177,-0.39584 2.18281,-0.21473 6.46906,-0.56977 9.525,-0.78899 6.36749,-0.45676 15.51588,-1.3536 17.4625,-1.71189 0.7276,-0.13392 1.97776,-0.31809 2.77812,-0.40926 7.08729,-0.80734 19.87976,-3.53319 28.31042,-6.03244 4.62386,-1.37074 13.33008,-4.71759 16.93153,-6.50884 9.54114,-4.74545 16.31021,-10.10214 18.58431,-14.70668 0.64846,-1.31302 1.38189,-3.804 1.17959,-4.00631 -0.058,-0.058 -0.40542,0.34342 -0.772,0.89208 -3.20032,4.78995 -9.70939,9.0212 -19.21936,12.49366 -8.55181,3.1226 -16.37091,5.05115 -27.28741,6.73032 -7.33057,1.12759 -12.57429,1.61864 -30.55937,2.86176 -8.15972,0.56399 -42.08936,0.16997 -49.1513,-0.57079 -1.34334,-0.14091 -3.99026,-0.38734 -5.88203,-0.54762 -1.89177,-0.16029 -5.51077,-0.52357 -8.04225,-0.8073 -2.53145,-0.28373 -6.34145,-0.69687 -8.46667,-0.9181 -6.03432,-0.62816 -13.91951,-2.02522 -25.55983,-4.52858 -1.01865,-0.21907 -2.20927,-0.39877 -2.64583,-0.39933 -1.83825,-0.002 -13.78905,5.27236 -19.34835,8.53981 -3.41632,2.00793 -11.02759,7.0323 -13.32769,8.79791 -5.5611,4.26881 -11.8467,10.61719 -15.75509,15.91249 -3.02091,4.09285 -4.89035,6.75522 -5.75927,8.20208 -0.98107,1.63359 -4.68678,9.04872 -5.42126,10.84792 -1.02447,2.50956 -1.84113,4.76735 -2.29693,6.35 -0.25143,0.87312 -0.60912,2.00422 -0.79483,2.51354 -0.67479,1.85057 -1.98215,7.37384 -2.50751,10.59376 -0.94882,5.81529 -0.64471,14.141135 0.74996,20.53132 0.60807,2.786054 2.31495,7.64228 3.614,10.282211 2.2565,4.585565 6.83747,10.596332 10.57613,13.877104 4.09872,3.596712 9.82258,6.898865 14.59715,8.421254 4.51704,1.440264 5.0111,1.559525 8.5539,2.06484 6.28557,0.896522 15.48066,-0.03764 22.35729,-2.27135 7.61904,-2.474868 16.67298,-8.210251 20.971,-13.284457 4.66725,-5.510149 6.94502,-11.043708 6.6053,-16.04674 -0.32409,-4.772364 -2.08291,-7.224541 -5.18181,-7.224541 -0.67472,0 -1.37581,-0.123719 -1.558,-0.274931 -0.48175,-0.399801 -0.4063,-1.412568 0.18889,-2.535782 1.05174,-1.984809 2.17627,-2.875018 4.9513,-3.919538 1.53953,-0.57947 2.23076,-0.67863 4.71472,-0.67633 4.48342,0.004 8.18232,1.22085 11.66066,3.835582 6.09383,4.580811 9.37398,11.795691 9.37398,20.618635 0,3.680722 -0.59407,6.93475 -2.13813,11.711696 -1.87089,5.788165 -4.02862,9.934559 -8.2083,15.773432 -1.88836,2.637964 -2.21242,3.341841 -1.39398,3.027783 0.17915,-0.06875 0.72115,-0.193964 1.20443,-0.278247 z M 293.78277,-85.44692 c -1.16904,-0.231288 -2.76776,-0.974759 -4.35568,-2.0256 -1.28304,-0.849087 -3.82794,-4.079946 -4.64807,-5.900941 -2.86882,-6.369939 -2.07552,-14.733179 2.19604,-23.151039 4.21463,-8.30567 12.35578,-16.46036 22.86159,-22.89959 3.82109,-2.34203 8.83227,-5.0702 11.37184,-6.19104 0.94589,-0.41746 2.55323,-1.14282 3.57188,-1.61192 2.9999,-1.38147 3.76134,-1.6844 8.06979,-3.21029 9.09735,-3.22195 20.09976,-6.30432 27.64896,-7.74597 17.21397,-3.28731 21.22244,-3.89155 20.98445,-3.16324 -0.0669,0.20463 -1.18433,0.73408 -2.48322,1.17656 -5.19237,1.76884 -9.81761,4.79272 -12.45145,8.14047 -2.51236,3.19333 -3.53952,6.0908 -3.53164,9.96217 0.006,2.88243 0.5107,5.24464 1.69797,7.94499 1.24327,2.82774 2.38037,4.56718 4.38986,6.71532 1.69391,1.8108 1.87904,2.36558 0.58941,1.76634 -3.99812,-1.85779 -9.5794,-3.56594 -14.35476,-4.39327 -4.03841,-0.69966 -13.44723,-0.64286 -17.85937,0.10783 -11.51104,1.95849 -19.666,5.1952 -28.17212,11.18154 -4.30445,3.02933 -9.05325,8.2731 -11.16888,12.33305 -2.00702,3.8515 -2.46391,5.53692 -2.45856,9.069339 0.004,2.682354 0.0787,3.183718 0.6305,4.233334 0.98914,1.88151 2.02639,3.042044 3.18643,3.565146 1.44378,0.651052 1.4488,1.451211 0.0177,2.812632 -1.52297,1.448755 -3.10708,1.80362 -5.73262,1.284179 z m -409.13676,30.592246 c 0,-0.06071 -1.51805,-0.614349 -3.37344,-1.230317 -8.36837,-2.778197 -21.12975,-8.122312 -29.96406,-12.548135 -12.22601,-6.124998 -29.62157,-17.209145 -39.44434,-25.133236 -8.03668,-6.483238 -19.24829,-17.532238 -25.21699,-24.851248 -7.92099,-9.71297 -8.9474,-11.14576 -14.06427,-19.63275 -4.90205,-8.1307 -9.62523,-19.01029 -11.47338,-26.42831 -1.81882,-7.30034 -2.58799,-16.55012 -1.77112,-21.29896 1.38699,-8.06315 4.09128,-13.58618 8.81678,-18.00665 2.49911,-2.3378 4.72845,-3.34461 8.10481,-3.66027 l 1.89122,-0.17682 -0.92604,-0.49643 c -2.26469,-1.21404 -5.03099,-1.4946 -7.76702,-0.78774 -2.92477,0.75562 -4.80005,1.89594 -7.57641,4.60708 -3.56195,3.47827 -5.71147,6.96383 -7.94023,12.87546 -1.2743,3.37997 -1.73498,5.67422 -2.27586,11.33392 -0.44339,4.63968 -0.37775,11.9467 0.12478,13.89062 0.13167,0.50932 0.37915,1.9976 0.54995,3.30729 0.66172,5.07395 2.2376,10.6683 4.86916,17.28536 5.84653,14.70115 10.05939,23.67681 14.05408,29.94277 0.32471,0.50932 1.34089,2.11666 2.25819,3.57187 2.0102,3.18901 5.40425,7.74506 7.78208,10.44639 1.5687,1.78211 1.98691,2.088011 4.18977,3.064575 9.34662,4.143499 20.08473,14.178367 28.40068,26.540716 1.21885,1.811917 4.25839,6.995022 5.40164,9.211019 2.00325,3.882969 2.09968,3.952478 5.95106,4.290001 8.15263,0.714471 13.70241,1.104945 19.18229,1.349637 3.27422,0.146201 7.62,0.383588 9.65729,0.527521 16.48423,1.164606 20.177,1.443876 24.20938,1.830867 2.50227,0.240146 6.35,0.346651 6.35,0.17577 z m 539.08852,-0.426381 c 7.62683,-0.657117 19.20751,-1.448906 28.83959,-1.971813 4.07458,-0.221199 8.89661,-0.524076 10.71562,-0.673057 1.81901,-0.148982 5.05719,-0.385255 7.19595,-0.52505 5.57808,-0.364596 6.77275,-0.540142 7.48417,-1.099735 0.34771,-0.273511 1.4062,-1.953096 2.35219,-3.732416 0.94602,-1.779321 2.47161,-4.447837 3.39022,-5.93004 0.9186,-1.482202 1.8769,-3.030014 2.12952,-3.439584 2.17752,-3.530004 7.65937,-10.217017 11.31028,-13.796822 6.18625,-6.065731 11.14554,-9.694513 17.14986,-12.548769 2.09244,-0.994685 2.56863,-1.362169 4.19672,-3.238659 4.81124,-5.54527 10.85323,-14.84126 15.00627,-23.08808 1.55495,-3.08777 5.5708,-12.41918 8.51651,-19.78954 3.60233,-9.01319 4.82994,-13.94944 5.98395,-24.06196 0.3688,-3.23182 -0.0908,-12.25463 -0.84241,-16.53646 -0.77763,-4.4303 -3.1447,-10.25659 -5.97905,-14.71683 -1.60192,-2.52083 -5.57742,-6.24994 -7.84109,-7.35516 -2.18006,-1.06436 -4.5697,-1.74051 -6.15137,-1.74051 -1.40116,0 -4.57576,0.88566 -5.11792,1.4278 -0.38931,0.38932 -0.31604,0.42481 0.88919,0.43075 4.12871,0.0203 7.0671,1.78069 11.14456,6.67661 2.98146,3.57991 4.67762,7.64774 5.92884,14.219 1.06468,5.59147 0.34375,14.47773 -1.89492,23.35775 -1.82139,7.22472 -7.0775,18.52394 -13.19623,28.3683 -3.64786,5.86901 -4.69368,7.37753 -7.54787,10.88729 -7.04096,8.65818 -8.40539,10.20395 -14.41355,16.3292 -4.95847,5.05512 -10.08851,9.801721 -14.54187,13.455003 -4.56059,3.741224 -17.42686,12.691845 -23.56445,16.392961 -6.79164,4.095533 -9.63049,5.726536 -13.45142,7.728215 -4.32133,2.263838 -5.05301,2.625127 -10.05541,4.965284 -5.27356,2.467023 -15.84698,6.716141 -21.70422,8.722254 -2.09206,0.716537 -3.99706,1.41573 -4.23333,1.553763 -0.66561,0.388869 1.45923,0.319839 8.30167,-0.269695 z m -294.46975,-5.432044 c -0.50885,-3.393167 -2.2446,-8.149082 -4.43611,-12.154736 -0.87564,-1.600501 -1.84566,-3.22853 -2.15559,-3.617841 -0.30996,-0.389313 -0.92072,-1.205439 -1.35729,-1.81361 -1.20253,-1.675225 -5.38511,-5.572188 -7.43757,-6.929662 -1.00256,-0.663083 -2.65628,-1.533422 -3.67493,-1.934086 -2.59387,-1.020246 -4.2292,-1.868474 -6.19024,-3.210795 -0.93078,-0.637114 -1.74305,-1.107668 -1.80504,-1.045673 -0.11287,0.112868 0.29689,0.805005 2.5242,4.263749 7.69644,11.951584 12.37454,17.994413 18.17108,23.472074 1.20002,1.134009 5.75988,4.143478 6.31389,4.167129 0.12567,0.0054 0.14708,-0.533082 0.0476,-1.196549 z m 43.6953,-0.308631 c 2.06925,-1.207863 3.17322,-2.106163 5.44655,-4.431771 1.56819,-1.604258 3.38447,-3.571679 4.03617,-4.372044 4.60494,-5.65532 6.35396,-8.110008 12.35371,-17.338047 3.24085,-4.984697 3.21098,-4.843735 0.67818,-3.200538 -2.52241,1.636446 -3.58542,2.188816 -6.16098,3.201419 -6.61355,2.600166 -13.30508,10.149633 -16.82311,18.980075 -1.26638,3.178628 -2.68727,8.675841 -2.2425,8.675841 0.0642,0 1.28455,-0.68172 2.71198,-1.514935 z m -22.32853,-8.445473 c 3.37256,-1.734199 9.14341,-7.706127 12.49079,-12.92605 1.38724,-2.163241 3.30568,-5.906341 3.30147,-6.441519 -0.003,-0.387599 -4.41568,-3.940003 -4.60322,-3.705831 -0.041,0.05125 -0.68167,1.374736 -1.42364,2.94108 -0.74195,1.566341 -2.04015,3.879474 -2.88486,5.140298 -1.70305,2.541926 -5.03066,6.204079 -6.66898,7.33943 l -1.06262,0.736407 -0.87091,-0.543377 c -1.28931,-0.804458 -4.42949,-4.113342 -6.18513,-6.517418 -1.29702,-1.776076 -4.4999,-7.547713 -4.9207,-8.867182 -0.14155,-0.443836 0.15195,-0.61496 -3.07035,1.790113 l -1.87169,1.397 0.68588,1.513416 c 2.96153,6.534785 8.87939,13.822733 14.01124,17.255133 1.08868,0.728149 2.03489,1.323908 2.10267,1.323908 0.0678,0 0.50433,-0.195934 0.97005,-0.435408 z m -89.753495,-5.659986 c 1.221238,-0.62303 7.835953,-2.371272 8.972047,-2.371272 0.42172,0 0.841005,-0.120121 0.931731,-0.266936 0.09072,-0.146817 -0.811133,-2.141114 -2.00414,-4.43177 -8.645736,-16.600339 -13.121375,-26.716283 -16.709363,-37.766923 -3.868049,-11.91307 -5.678275,-18.45623 -7.881037,-28.4862 -1.242325,-5.65672 -1.416288,-6.64576 -2.132859,-12.12734 -0.948558,-7.25606 -1.032008,-8.23852 -1.202373,-14.1552 -0.319881,-11.11026 1.165807,-24.16419 3.730678,-32.77938 2.3799,-7.99382 6.269725,-14.25628 10.620586,-17.09863 1.987312,-1.29829 3.193891,-1.71469 5.778579,-1.99426 1.506379,-0.16293 1.548765,-0.18714 0.926042,-0.52905 -0.358907,-0.19707 -1.301988,-0.49644 -2.095738,-0.66526 -4.29469,-0.91344 -9.417023,2.44217 -13.874115,9.08885 -2.569024,3.8311 -6.265042,14.06579 -7.282179,20.16523 -0.145601,0.87312 -0.393515,2.30187 -0.550942,3.175 -0.588989,3.26716 -1.305216,10.26965 -1.612212,15.76228 -0.327449,5.85926 -0.06797,14.95976 0.572796,20.08876 0.954008,7.63614 2.251366,14.40761 4.106095,21.43125 0.518769,1.96453 1.226079,4.65392 1.571784,5.97642 1.455949,5.56952 6.902767,22.45392 9.167627,28.41836 0.580443,1.52854 1.924473,4.981831 2.986749,7.673966 3.491944,8.849622 4.464711,12.790598 4.457276,18.057812 -0.0026,1.855391 0.101203,3.373438 0.230691,3.373438 0.129513,0 0.711041,-0.242615 1.292277,-0.539145 z M 240.2166,-77.725238 c 0,-5.516584 1.13496,-10.25412 4.3193,-18.029473 0.56618,-1.382448 1.36594,-3.466041 1.77726,-4.630209 0.41132,-1.16417 1.34088,-3.66448 2.06571,-5.55625 1.32577,-3.46034 4.37901,-12.58457 6.02056,-17.99167 3.65599,-12.04247 5.69074,-20.5502 7.5433,-31.54007 1.10194,-6.5371 1.54662,-21.48225 0.8486,-28.52034 -0.93734,-9.45098 -1.7085,-14.29121 -3.10282,-19.4752 -2.1889,-8.13817 -4.59317,-13.5367 -7.80884,-17.53402 -4.33604,-5.38999 -8.50577,-7.60027 -12.56011,-6.65781 -1.96747,0.45735 -2.48256,0.93682 -1.00642,0.93682 1.46796,0 4.17843,0.86933 5.67896,1.82142 5.66174,3.59238 10.12306,12.01679 12.49743,23.5992 1.74723,8.52325 2.76337,24.31459 2.03507,31.62642 -1.19044,11.9514 -2.33923,18.54115 -5.20708,29.86859 -2.05745,8.12652 -6.49872,22.49544 -8.30061,26.8552 -0.45109,1.09141 -1.04645,2.63922 -1.32302,3.43959 -0.2766,0.80036 -1.29985,3.24114 -2.27391,5.42395 -0.97406,2.18282 -2.08317,4.69044 -2.4647,5.5725 -0.3815,0.882057 -2.87467,5.868606 -5.54035,11.081218 -2.66567,5.212612 -4.74927,9.560189 -4.63021,9.661284 0.11907,0.101097 1.15393,0.333769 2.29971,0.517054 2.36704,0.378645 6.52227,1.573956 7.70636,2.21684 1.40015,0.760207 1.42581,0.711896 1.42581,-2.685044 z m -543.01639,-0.823103 c 2.75858,-0.28639 5.55138,-0.631367 6.20622,-0.766612 4.67656,-0.965853 6.78288,-1.452321 8.86354,-2.047078 6.39431,-1.827813 16.93043,-6.789738 21.03438,-9.906003 0.50932,-0.386746 1.58088,-1.15775 2.38125,-1.713343 2.18598,-1.517454 7.08519,-5.67794 9.58075,-8.136133 5.84672,-5.75918 9.98854,-12.16606 12.20672,-18.88224 1.15993,-3.51204 1.49284,-5.51587 1.48862,-8.96017 -0.007,-6.01208 -1.70032,-11.79311 -4.76515,-16.27187 -1.48358,-2.168 -4.51163,-5.32841 -6.53543,-6.82107 -2.64979,-1.95436 -8.59631,-4.78152 -11.71093,-5.56774 -3.87228,-0.97748 -11.61406,-1.39883 -15.65323,-0.85194 -9.90346,1.34089 -18.63634,5.6752 -19.8289,9.84148 -0.50472,1.76325 -0.67131,1.88638 -2.3426,1.73149 -0.80624,-0.0747 -1.70621,-0.21297 -1.99993,-0.30721 -0.4266,-0.13688 -0.81387,0.16428 -1.92514,1.49713 -2.16631,2.59823 -3.03614,3.89866 -3.95945,5.91953 -3.17501,6.9492 -2.34796,13.13648 2.39499,17.91721 1.65708,1.67029 2.22475,2.05315 4.33211,2.92175 3.06646,1.26391 5.24909,1.60551 9.08423,1.42175 3.22588,-0.15456 5.26533,-0.54827 8.43251,-1.62785 5.25879,-1.79255 9.61904,-5.68739 9.15229,-8.17538 -0.21748,-1.15925 0.30392,-1.49499 2.32173,-1.49499 3.58558,0 5.5591,3.95496 4.20239,8.42162 -1.89975,6.25452 -9.71626,12.43757 -18.97178,15.00715 -11.51908,3.198 -22.88281,0.92213 -32.12252,-6.43334 -6.44892,-5.1338 -10.25519,-14.26053 -9.68096,-23.21313 0.47226,-7.36267 2.30098,-13.17513 5.9103,-18.78542 1.9117,-2.97154 4.86555,-6.4255 7.52358,-8.7974 0.85615,-0.76398 1.43124,-1.38906 1.27798,-1.38906 -0.66136,0 -7.0259,3.4215 -10.0601,5.4082 -4.15985,2.72372 -10.52656,7.25092 -12.43541,8.84247 -0.80037,0.66733 -3.04439,2.76431 -4.98671,4.65997 -6.17873,6.03028 -11.53731,13.52339 -15.15353,21.18978 -1.46074,3.09676 -3.06869,7.68718 -2.79023,7.96564 0.0981,0.0981 0.44729,-0.0742 0.77595,-0.38299 0.96385,-0.90549 3.04211,-1.69685 4.42807,-1.68611 1.34915,0.0105 2.96084,0.56519 3.7984,1.3074 0.65419,0.57971 1.53829,2.5432 1.35423,3.00758 -0.0776,0.19567 -0.76276,0.71372 -1.52267,1.15122 -5.96067,3.43174 -1.9934,15.799503 7.5073,23.403625 3.39607,2.718123 5.83941,4.209679 9.38645,5.730012 10.86816,4.658321 20.73823,6.124379 32.80068,4.872072 z m 921.50305,-0.141031 c 5.04312,-0.710821 10.85355,-2.371227 16.18036,-4.623752 6.38619,-2.700496 12.27984,-7.306069 15.68492,-12.256939 5.06444,-7.363507 5.67468,-14.547497 1.44267,-16.983987 -0.75989,-0.4375 -1.44333,-0.95093 -1.51871,-1.14097 -0.16762,-0.42244 0.50612,-2.09462 1.1245,-2.79102 1.75943,-1.98137 5.86978,-1.93619 8.44934,0.0929 0.37584,0.29564 0.73903,0.48185 0.80708,0.41379 0.31062,-0.31062 -1.77408,-5.82985 -3.48461,-9.2255 -4.54134,-9.01509 -9.9254,-15.98194 -17.85903,-23.10916 -3.12113,-2.80388 -11.56153,-8.88061 -16.23521,-11.68865 -2.49626,-1.4998 -7.60973,-4.09784 -7.76324,-3.94432 -0.0566,0.0566 0.79695,0.96996 1.89674,2.0297 4.89244,4.71424 7.97343,9.1536 10.16651,14.64872 1.60875,4.031 2.64724,9.61033 2.64724,14.22229 0,7.45405 -3.62829,15.94634 -8.67582,20.30644 -4.76123,4.11278 -10.88819,7.14149 -16.43467,8.12407 -9.55644,1.69295 -19.75308,-0.37955 -27.05497,-5.49901 -6.28703,-4.4079 -9.01896,-8.2159 -9.05918,-12.62742 -0.0356,-3.9036 1.58806,-6.08542 4.52861,-6.08542 1.9521,0 2.55823,0.35092 2.35567,1.36377 -0.62614,3.13071 5.0832,7.46048 12.14342,9.20917 2.89533,0.71712 7.7271,0.98587 10.34788,0.57556 1.03693,-0.16234 2.92073,-0.7286 4.18624,-1.25835 5.08558,-2.12887 8.61282,-7.4211 8.61282,-12.9226 0,-1.83248 -0.59851,-4.92899 -1.29146,-6.68157 -0.74938,-1.89534 -3.19974,-5.72866 -4.77903,-7.47626 -1.29699,-1.43521 -1.3158,-1.44482 -2.20168,-1.12448 -1.15837,0.41887 -2.97072,0.41467 -3.29078,-0.008 -0.13785,-0.1819 -0.39593,-0.83872 -0.57349,-1.4596 -1.09648,-3.83403 -8.43185,-7.80118 -17.53769,-9.48481 -3.5319,-0.65304 -4.13581,-0.69069 -8.69045,-0.54179 -7.4041,0.24206 -10.14667,0.88366 -16.00729,3.74474 -3.95341,1.93 -6.19678,3.54252 -8.72863,6.27405 -3.17987,3.43064 -4.8287,6.27549 -6.18194,10.66622 -1.00436,3.25881 -1.34985,5.55291 -1.35406,8.99129 -0.004,3.37545 0.32523,5.46076 1.35819,8.59896 3.45802,10.50554 10.94676,19.58267 23.50539,28.49096 3.61339,2.563106 5.52244,3.683807 9.56091,5.612688 7.05813,3.37117 11.19269,4.806667 18.07599,6.275909 8.87637,1.894657 18.08189,2.358398 25.64746,1.292032 z m -492.79033,-9.765744 c 5.69312,-1.633405 9.73928,-4.604713 13.91994,-10.222174 3.02178,-4.06033 4.60827,-7.20837 6.22406,-12.35031 1.62771,-5.17986 2.36193,-10.9433 2.45297,-19.25523 0.19164,-17.4932 -3.99624,-36.5445 -11.48672,-52.25521 -4.83021,-10.13095 -13.6656,-22.48527 -21.69044,-30.32925 -4.88166,-4.77163 -7.9213,-7.26083 -13.17381,-10.78823 -9.625887,-6.46437 -17.48515,-8.83453 -24.710524,-7.45208 -3.380607,0.64682 -7.392008,2.99024 -9.768046,5.70641 -1.299262,1.48524 -3.010561,4.66547 -3.284749,6.1043 -0.171291,0.89882 -0.152347,0.88795 1.91524,-1.09829 3.464348,-3.32802 7.730754,-5.43096 11.615472,-5.72531 6.575637,-0.49826 14.82762,2.84345 23.942597,9.69574 13.00276,9.77498 24.42001,24.69919 31.27237,40.87811 4.5584,10.76275 7.405,20.69208 8.93741,31.17507 1.27064,8.69193 1.39735,19.40967 0.30039,25.40339 -2.37869,12.9969 -8.54814,22.181399 -17.22769,25.646948 -4.06098,1.621454 -10.14002,1.933887 -14.81582,0.761452 -2.7465,-0.688673 -7.52927,-3.0169 -10.1138,-4.923353 -1.053146,-0.776833 -1.957572,-1.369653 -2.009827,-1.317379 -0.267441,0.267438 2.918407,3.729323 4.929797,5.356934 3.60214,2.914835 6.99997,4.551315 11.42717,5.503598 2.82707,0.6081 8.29437,0.359831 11.34401,-0.515136 z m 58.39124,0.623901 c 5.09518,-0.904142 9.67642,-3.248147 13.77113,-7.046024 1.31363,-1.218395 3.39307,-3.759964 3.21885,-3.934187 -0.0688,-0.06882 -0.58992,0.227222 -1.15798,0.65786 -0.56809,0.430638 -1.33054,1.006972 -1.69434,1.280742 -0.3638,0.273767 -1.76043,1.11343 -3.10364,1.865918 -5.34487,2.994301 -11.70845,3.898204 -18.06302,2.565736 -3.81154,-0.799224 -7.80421,-3.144628 -10.79392,-6.340628 -3.49596,-3.737192 -5.7604,-7.646132 -7.48765,-12.925292 -2.13913,-6.53813 -2.74151,-11.27682 -2.54262,-20.00202 0.17645,-7.74042 0.9766,-14.49661 2.43194,-20.53414 0.35079,-1.45521 0.7135,-3.12208 0.80603,-3.70417 0.21516,-1.35326 0.33102,-1.76192 1.98784,-7.01146 3.67271,-11.63682 8.82996,-22.4725 14.60772,-30.69166 5.10434,-7.26119 7.54102,-10.20452 12.4065,-14.98619 9.01737,-8.86205 18.33004,-14.84585 26.28728,-16.89077 2.20483,-0.56662 6.296,-0.78794 8.14295,-0.44051 3.55433,0.66862 6.77571,2.45181 10.01228,5.54228 2.19123,2.09234 2.29111,2.15499 2.10251,1.31882 -0.42275,-1.87449 -2.32013,-5.19853 -3.94695,-6.91472 -2.03406,-2.14579 -5.54598,-4.1422 -8.72939,-4.96239 -2.07854,-0.53551 -5.61719,-0.70714 -7.58251,-0.36774 -1.83915,0.3176 -6.06298,1.48874 -6.61347,1.83371 -0.29105,0.18239 -1.24355,0.59624 -2.11667,0.91968 -7.09552,2.62845 -19.20602,12.00856 -26.84505,20.79262 -2.45123,2.81866 -6.73367,8.43627 -9.58067,12.56771 -5.58696,8.10757 -9.89975,17.23685 -13.1505,27.83684 -2.31188,7.53849 -2.86457,9.9189 -4.41021,18.99441 -1.62652,9.55039 -1.60372,24.38166 0.0505,32.80389 1.37073,6.97909 3.47221,11.64086 7.99317,17.731523 4.10186,5.52609 9.56011,8.974817 15.91257,10.054203 1.80695,0.307031 6.32217,0.299191 8.08734,-0.01405 z M 82.319332,-91.342188 c 1.768317,-0.848178 3.868897,-2.975542 4.850157,-4.912 0.385127,-0.759974 0.945462,-2.536069 1.245208,-3.946872 2.280735,-10.73484 -5.028803,-25.00954 -14.84995,-29.00024 -6.885649,-2.79788 -12.766543,-0.11457 -14.972348,6.83152 -3.67149,11.56159 4.495747,27.57693 16.024437,31.42276 2.196914,0.732864 5.728467,0.551683 7.702496,-0.395168 z m 142.334368,0.452763 c 6.65904,-1.975734 12.9013,-8.682834 15.60666,-16.768815 2.08675,-6.23701 2.04939,-12.00428 -0.10721,-16.54541 -1.55881,-3.28242 -3.65,-5.0565 -6.90805,-5.86051 -1.55237,-0.38308 -2.06934,-0.39902 -3.8136,-0.11759 -8.5407,1.37802 -16.37337,10.66144 -18.44331,21.85933 -1.09265,5.91096 0.46699,12.148504 3.82233,15.287039 1.2854,1.202348 1.63287,1.406786 3.73964,2.200314 1.28432,0.483741 4.38293,0.456145 6.10354,-0.05436 z M 102.79144,-107.78375 c 4.85365,-1.58439 7.53203,-4.90329 9.01607,-11.1722 0.5479,-2.31447 0.64236,-3.40039 0.66731,-7.67292 0.0507,-8.68541 -0.9689,-14.24201 -4.7003,-25.61438 -1.99673,-6.08566 -3.24297,-9.05962 -6.43056,-15.34583 -4.599624,-9.07082 -7.940888,-13.84241 -14.145711,-20.20118 -5.108495,-5.23526 -8.699632,-7.64488 -12.221924,-8.20077 -3.037443,-0.47938 -5.65785,0.35282 -7.31602,2.32347 -1.890871,2.24717 -3.362219,7.08712 -3.362219,11.05992 0,3.886 4.008173,19.04026 7.667598,28.98987 0.278051,0.75598 1.174486,3.27952 1.992075,5.60785 1.837478,5.23276 2.164291,6.04354 5.786093,14.35365 1.733762,3.97807 2.612893,5.82004 5.903701,12.36927 3.740679,7.44456 5.440097,10.55716 6.265068,11.47488 2.250255,2.5033 6.816037,3.3546 10.878819,2.02837 z m 100.75407,0.25847 c 2.42988,-0.63291 3.89001,-1.7352 5.28955,-3.99323 0.91861,-1.48212 8.05355,-15.74488 9.58538,-19.1612 4.78189,-10.66473 6.38289,-14.80366 11.10435,-28.70729 3.1219,-9.19327 5.69412,-20.07866 5.69412,-24.0969 0,-3.4957 -1.76548,-8.56014 -3.61106,-10.35865 -1.95804,-1.9081 -2.94737,-2.26591 -5.89393,-2.1316 -2.23457,0.10185 -2.75209,0.22414 -4.38563,1.03625 -3.70872,1.84381 -8.70453,6.33703 -13.49269,12.13527 -2.37059,2.87068 -2.99985,3.76683 -5.48063,7.80521 -5.53128,9.00407 -8.83931,16.55128 -12.23489,27.91354 -2.20755,7.38696 -3.07991,13.07751 -3.10282,20.24063 -0.0117,3.60612 0.0972,5.03341 0.54845,7.19879 0.93208,4.47249 2.54193,7.52182 5.14935,9.75367 2.75944,2.36199 7.15669,3.32241 10.83045,2.36551 z m -50.87659,-89.41397 c 4.84592,-1.11302 8.79231,-3.14756 11.65174,-6.00698 2.57022,-2.57022 3.83435,-4.94436 4.20519,-7.89774 0.65759,-5.23726 -1.41299,-9.36047 -5.81573,-11.58094 -3.47422,-1.7522 -7.27329,-1.80811 -12.55475,-0.18478 -5.11918,1.57345 -5.71314,1.70076 -7.93749,1.70134 -2.60925,7.9e-4 -4.33414,-0.71036 -5.75768,-2.37347 -1.11779,-1.30586 -1.67077,-3.36881 -1.41468,-5.27749 0.59095,-4.40467 5.95845,-9.57149 12.11485,-11.66191 6.06679,-2.06 14.62455,-2.12898 20.71074,-0.16693 1.15792,0.37329 2.14672,0.63731 2.19731,0.58671 0.22783,-0.22783 -2.38802,-2.04379 -4.37634,-3.0381 -3.36738,-1.68393 -6.03745,-2.24637 -10.64191,-2.24166 -2.5943,0.003 -4.52406,0.14995 -5.96014,0.45494 -7.71385,1.63825 -14.07096,6.13261 -16.92857,11.96817 -1.85767,3.79351 -1.87378,6.81369 -0.0547,10.25598 0.91427,1.73014 3.0962,3.61029 5.00898,4.31617 2.52476,0.93173 7.66668,0.75218 11.84905,-0.41376 4.21775,-1.1758 8.11723,-1.48904 10.49266,-0.84286 1.84875,0.50289 3.57222,1.84521 4.45154,3.46702 0.7077,1.30533 0.78946,1.70046 0.79375,3.83646 0.004,1.98822 -0.10131,2.59959 -0.63794,3.70416 -0.95099,1.95745 -4.26381,5.15981 -6.36876,6.15642 -4.24902,2.01175 -8.23992,2.93104 -13.62604,3.13872 -6.29126,0.24259 -9.93066,-0.54747 -14.90541,-3.23573 -1.82427,-0.9858 -2.12492,-1.08508 -1.73977,-0.57446 1.35785,1.80012 4.7193,3.82198 8.3108,4.9988 3.39045,1.11094 6.04026,1.4979 10.45105,1.52622 3.03048,0.0195 4.20944,-0.0923 6.48229,-0.6143 z m -5.04664,-9.81776 c 2.65618,-0.50677 5.78321,-1.48454 7.42789,-2.32258 1.4918,-0.76013 2.29843,-2.11966 1.75043,-2.95021 -0.55748,-0.8449 -1.78803,-0.78557 -4.86678,0.23465 -3.23704,1.07267 -8.12469,2.00597 -10.48982,2.00303 -4.45609,-0.006 -9.59152,-1.67124 -12.93548,-4.19566 -3.03536,-2.29147 -5.56797,-7.07417 -6.15733,-11.62782 -0.22321,-1.72461 -0.4589,-1.51239 -0.8604,0.77473 -0.50911,2.89995 -0.4001,6.58754 0.23897,8.0835 2.25552,5.27989 8.36067,9.4536 15.19645,10.38888 2.46655,0.33748 7.93128,0.13898 10.69607,-0.38852 z m 30.20356,-7.88291 c 1.65352,-8.01235 -0.57301,-13.06839 -7.5098,-17.05345 -4.17129,-2.39633 -8.48804,-3.39333 -13.67837,-3.15917 -5.38094,0.24276 -10.85869,2.05443 -13.15509,4.35083 -1.28468,1.28469 -1.50714,1.9961 -0.87018,2.78272 0.55599,0.68663 0.84293,0.63138 4.89714,-0.94291 1.30969,-0.50856 3.68432,-1.18988 5.27696,-1.51404 4.63433,-0.94327 9.99548,-0.45462 13.90533,1.26742 2.5899,1.14068 5.82732,4.06773 7.53796,6.81527 1.65817,2.66329 2.29854,4.75881 2.45644,8.03832 0.15409,3.20099 0.38248,3.08376 1.13961,-0.58499 z" id="path3752" inkscape:label="fg" transform="translate(366.7397,251.20076)"/>
  </g>
</svg>
