<?xml version="1.0" encoding="UTF-8" standalone="no"?>
<!-- Created with Inkscape (http://www.inkscape.org/) -->

<svg
   width="1033.2102mm"
   height="691.98224mm"
   viewBox="0 0 1033.2102 691.98224"
   version="1.1"
   id="svg5"
   xml:space="preserve"
   xmlns="http://www.w3.org/2000/svg"
   xmlns:svg="http://www.w3.org/2000/svg"><defs
     id="defs2" /><path
     style="display:inline;fill:#cbccce;stroke-width:0.264583"
     d="m 92.935002,691.95025 c -24.8699,-0.0649 -25.86441,-0.0861 -26.11701,-0.55811 -0.17249,-0.32232 -0.27,-39.97238 -0.28416,-115.55548 -0.0119,-63.28563 -0.0166,-115.27813 -0.0106,-115.53888 0.0148,-0.63825 3.64053,-2.2566 11.12346,-4.96496 1.52797,-0.55303 2.75282,-1.11969 2.72188,-1.25926 -0.0309,-0.13956 -1.1113,-1.8447 -2.40081,-3.78917 -3.75164,-5.65722 -5.06075,-7.99031 -7.40249,-13.19274 -4.78449,-10.62923 -6.60153,-16.84319 -8.25111,-28.21715 -0.4807,-3.31446 -0.6275,-10.83238 -0.29358,-15.03465 0.45305,-5.70151 1.51914,-10.48584 3.28924,-14.76119 l 0.95979,-2.3182 v -27.5976 c 0,-27.002 -0.0117,-27.64007 -0.54217,-29.56409 -0.53276,-1.93238 -2.41994,-11.04649 -3.256,-15.72482 -1.36572,-7.64209 -1.51464,-9.31408 -1.49649,-16.80104 0.0319,-13.17411 0.97504,-20.10966 4.12602,-30.34284 l 0.91096,-2.95847 -0.009,-25.74882 c -0.005,-14.16186 -0.0843,-26.91832 -0.17677,-28.3477 l -0.16811,-2.59887 -1.34804,0.17033 c -3.34732,0.42294 -9.91127,1.81494 -12.00826,2.54654 -3.29532,1.14969 -7.44008,3.17001 -8.60911,4.19643 -0.55129,0.48404 -1.35826,1.39738 -1.79327,2.02965 -0.46661,0.67819 -0.99789,1.14958 -1.29564,1.14958 -0.75076,0 -6.12619,-2.13182 -8.99668,-3.56796 -4.98049,-2.49179 -10.29676,-6.58331 -15.09166,-11.61487 C 9.3132124,184.42824 5.7225324,178.1364 2.4553624,167.34895 0.34417236,160.37824 -0.29412764,155.20712 0.11848236,148.41682 c 0.40033,-6.58802 0.95588004,-9.63486 2.80039004,-15.35815 2.40558,-7.46423 3.35286,-9.38605 8.4638096,-17.17118 4.56689,-6.95638 10.62824,-13.19031 18.65186,-19.18289 8.31507,-6.21026 14.93927,-10.08579 24.0639,-14.07874 8.10279,-3.54579 14.37633,-5.72229 24.20937,-8.39903 11.71056,-3.18785 16.51619,-3.98918 36.682538,-6.11678 l 1.49296,-0.1575 0.18738,-1.76326 c 0.10305,-0.96979 0.60477,-3.192 1.11492,-4.93825 0.51015,-1.74625 1.03822,-3.63795 1.17349,-4.20376 0.36367,-1.52126 1.39934,-3.57947 3.11083,-6.18223 2.23989,-3.40636 3.92028,-5.30425 6.54556,-7.39281 4.17268,-3.31961 7.28674,-4.45918 11.60482,-4.24673 1.30969,0.0644 2.88959,0.30068 3.51088,0.52498 3.03359,1.0952 5.93526,3.7018 6.30301,5.66206 0.14784,0.78807 0.004,1.16206 -1.05916,2.7615 -1.77587,2.67066 -2.80339,5.93122 -2.99123,9.49185 -0.14276,2.70616 0.15536,6.01977 0.74507,8.28149 l 0.2587,0.99219 h 8.58876 c 4.72382,0 8.58876,-0.0844 8.58876,-0.18755 0,-0.10316 -0.42824,-1.18461 -0.95165,-2.40322 -0.5234,-1.21862 -1.19057,-3.36664 -1.48258,-4.77339 -0.46707,-2.25008 -0.49389,-2.80621 -0.22295,-4.6237 0.1694,-1.13629 0.53057,-2.58524 0.80262,-3.21989 1.08332,-2.5273 3.91204,-4.63256 6.22019,-4.62937 1.41089,0.002 1.71215,0.23821 2.0134,1.57894 0.72354,3.22028 3.60102,6.66632 8.04076,9.62955 4.78223,3.19183 12.11437,6.07551 21.94221,8.62975 7.83764,2.03698 10.12729,2.45891 23.56612,4.34266 4.50252,0.63112 16.00441,1.50172 26.87122,2.03393 12.53739,0.61402 38.52966,0.002 52.37149,-1.23261 16.84782,-1.50306 25.99026,-2.87534 40.21667,-6.03651 4.09686,-0.91034 12.03968,-3.67531 16.00729,-5.57229 10.46549,-5.00372 16.47333,-11.27582 16.66703,-17.40015 0.0367,-1.16113 0.20913,-2.23389 0.39499,-2.45785 0.55682,-0.67093 2.31963,-0.97228 5.719,-0.97766 2.88922,-0.005 3.57333,0.089 6.11121,0.83624 4.59952,1.35418 9.96934,4.48652 13.74296,8.01655 1.10721,1.03574 1.71784,1.44733 1.79594,1.21054 0.0651,-0.19732 0.43246,-1.60892 0.81643,-3.13689 2.2402,-8.91542 5.23002,-14.95944 9.80593,-19.82314 3.80003,-4.03902 7.40672,-5.81841 11.15629,-5.50406 2.35572,0.19749 4.51511,1.03147 5.61856,2.16993 l 0.89276,0.9211 1.37051,-1.29618 c 4.03125,-3.81258 9.13807,-5.67576 16.35773,-5.96799 11.91165,-0.48215 22.02423,-2.28469 30.46524,-5.43034 7.6033,-2.83347 10.43672,-3.94321 12.96458,-5.07768 C 505.01047,1.36518 509.82962,0 516.59009,0 c 6.60426,0 10.73092,1.16141 23.28333,6.55289 13.47121,5.78612 20.56212,7.99507 29.95181,9.33052 3.8906,0.55334 9.23304,1.04034 12.94289,1.17982 4.20262,0.15801 4.79412,0.23278 7.5629,0.95597 3.54174,0.92508 6.41282,2.48544 9.09863,4.94488 l 1.48018,1.35543 0.86728,-0.89481 c 2.00935,-2.07311 7.04099,-2.80233 10.36534,-1.50222 3.83244,1.49883 9.01454,6.89609 11.72208,12.20877 1.90605,3.74007 3.35848,7.74436 4.51056,12.43541 0.37526,1.52797 0.73832,2.93897 0.80682,3.13556 0.0836,0.23983 0.63299,-0.11329 1.66994,-1.07332 3.96804,-3.6737 9.02235,-6.6683 13.61036,-8.06389 2.70324,-0.82228 3.26032,-0.90184 6.32483,-0.90329 5.09548,-0.002 6.1953,0.44914 6.10696,2.50736 -0.22934,5.34222 3.75986,10.68847 11.53988,15.46546 1.54284,0.94732 4.11485,2.34059 5.71558,3.09616 4.90741,2.31637 13.8058,5.11106 20.10833,6.31536 1.16417,0.22245 3.54542,0.69873 5.29167,1.0584 10.21297,2.10352 25.46342,3.83676 42.46562,4.82627 12.83057,0.74674 39.35656,0.65524 50.40313,-0.17385 10.31846,-0.77444 14.18074,-1.10172 15.61041,-1.32276 0.87313,-0.135 3.37344,-0.49041 5.55625,-0.78982 13.04208,-1.7889 23.17263,-4.31109 32.93084,-8.19873 5.32254,-2.1205 8.38041,-3.97089 11.99263,-7.25708 1.64309,-1.49477 2.27346,-2.29695 3.10886,-3.95611 0.57634,-1.14464 1.04788,-2.35653 1.04788,-2.69308 0,-2.19183 4.27093,-1.73276 6.57677,0.70692 1.97319,2.08768 2.97178,5.93687 2.41083,9.29284 -0.40293,2.41049 -1.18628,4.98486 -2.01575,6.6245 -0.35245,0.69668 -0.56999,1.38129 -0.48342,1.52135 0.0955,0.15455 3.47559,0.25467 8.59824,0.25467 h 8.44085 l 0.25871,-0.99219 c 0.94551,-3.62633 1.0193,-9.19519 0.16383,-12.36406 -0.58069,-2.151 -1.67982,-4.53563 -2.71672,-5.89403 -0.47323,-0.61997 -0.86042,-1.36814 -0.86042,-1.66259 0,-1.60697 2.03197,-4.04652 4.47947,-5.37797 3.82797,-2.08242 8.98705,-1.99113 13.22141,0.23397 2.15525,1.13254 5.89773,4.11298 7.36463,5.86506 2.67957,3.20045 5.5931,8.10565 6.11756,10.29951 0.13528,0.56581 0.66334,2.45751 1.17351,4.20376 0.51014,1.74625 1.01187,3.96846 1.11493,4.93825 l 0.18735,1.76326 1.49296,0.15697 c 17.19405,1.80777 25.86601,3.09973 31.25859,4.65694 0.94589,0.27315 2.91042,0.80699 4.36562,1.18631 11.981,3.12305 21.92716,6.79025 31.80311,11.72595 4.72881,2.36333 7.57174,4.04075 12.11773,7.14987 6.63813,4.54001 10.28313,7.48549 15.05443,12.16544 4.5252,4.43856 6.6689,7.1636 11.0935,14.10229 3.1659,4.96462 4.7576,8.57419 6.9031,15.65433 1.3022,4.29705 1.939,8.09725 2.2924,13.67907 0.5008,7.91052 -0.3587,13.26682 -3.7153,23.15449 -2.563,7.54998 -6.587,14.02021 -12.6882,20.4017 -4.748,4.96612 -9.5515,8.70886 -14.4479,11.25732 -3.06813,1.59692 -8.79273,3.92551 -9.65046,3.92551 -0.29773,0 -0.82901,-0.47139 -1.29563,-1.14958 -0.43501,-0.63227 -1.24397,-1.54737 -1.79769,-2.03354 -1.16088,-1.01925 -5.24531,-3.00396 -8.63957,-4.19813 -2.08814,-0.73464 -8.33112,-2.05603 -11.97343,-2.53429 l -1.34808,-0.17701 -0.16356,2.3343 c -0.09,1.28386 -0.17042,14.03733 -0.17881,28.34104 l -0.0153,26.00671 0.91305,2.96516 c 2.19615,7.13195 3.53473,14.31917 3.97706,21.35367 0.33697,5.35864 0.19671,16.1647 -0.24723,19.05 -1.3476,8.75827 -3.194,18.29393 -4.24995,21.94899 l -0.64643,2.2375 v 27.67513 27.67512 l 0.95718,2.36654 c 1.23743,3.05935 1.55271,4.13978 2.34942,8.05172 0.89689,4.40365 1.29109,9.81445 1.099,15.08458 -0.42441,11.64474 -2.93356,21.94672 -8.28077,33.99896 -2.57548,5.80496 -3.93443,8.27326 -7.55464,13.72153 -1.43698,2.1626 -2.63803,4.04273 -2.66904,4.17806 -0.031,0.13536 1.49145,0.81767 3.38323,1.51625 6.74949,2.49238 10.2155,4.0354 10.40563,4.63246 0.0977,0.30686 0.14322,52.36358 0.1011,115.68157 -0.0598,89.8053 -0.14729,115.2203 -0.39804,115.5632 -0.29826,0.40791 -5.57093,0.43918 -73.16284,0.43389 -49.73074,-0.004 -73.00391,-0.0927 -73.35359,-0.2798 -0.50421,-0.26985 -0.51318,-1.34826 -0.5793,-69.6523 -0.0369,-38.158 -0.008,-90.10655 0.0652,-115.44123 0.11449,-39.85984 0.18431,-46.12571 0.51859,-46.52843 0.41735,-0.50281 1.54876,-1.03775 6.55902,-3.10115 1.78263,-0.73417 3.24114,-1.45354 3.24114,-1.59867 0,-0.1451 -0.33403,-0.69765 -0.74228,-1.22793 -2.70069,-3.50779 -7.06658,-11.28104 -9.07508,-16.15773 -2.98836,-7.25594 -4.25447,-11.87874 -4.89686,-17.8793 -0.91582,-8.55517 0.18717,-16.07521 3.35997,-22.90818 l 1.30009,-2.79982 v -11.45231 -11.4523 l -1.44217,-1.55771 c -2.38797,-2.57929 -3.56618,-5.57673 -3.57846,-9.10381 -0.008,-2.47166 1.1298,-4.92101 3.36582,-7.24186 l 1.57763,-1.63747 -1.16636,-3.48658 c -0.64151,-1.91762 -1.56949,-5.51402 -2.06219,-7.992 -2.29846,-11.55994 -2.78397,-21.63207 -1.46066,-30.30233 0.72731,-4.76531 2.65776,-12.59518 3.75126,-15.21505 l 0.88284,-2.11516 0.13229,-39.41747 0.13229,-39.41747 0.86746,-0.53461 c 4.19574,-2.58577 11.00029,-7.77559 14.57254,-11.11448 1.69791,-1.58697 6.38812,-6.84903 6.38812,-7.16697 0,-0.093 -0.15967,-0.10788 -0.35486,-0.033 -0.52448,0.20126 -8.53799,0.69497 -30.86597,1.90163 -4.00182,0.21627 -8.64526,0.51408 -10.31875,0.6618 -1.67349,0.14772 -5.1263,0.45145 -7.67291,0.67497 -2.54662,0.22351 -5.52318,0.52206 -6.61459,0.66344 -1.91574,0.24816 -3.44194,0.40306 -15.47812,1.5709 -3.05594,0.29651 -6.50875,0.66222 -7.67292,0.81271 -1.16417,0.15048 -3.06917,0.37925 -4.23333,0.50838 -1.16417,0.12913 -3.54542,0.42626 -5.29167,0.66027 -6.6286,0.88831 -13.04665,1.71784 -15.21354,1.96636 -8.71029,0.99897 -21.34666,2.33448 -25.4,2.68447 -1.67349,0.1445 -4.76911,0.43755 -6.87917,0.65122 -2.11005,0.21366 -5.50333,0.5093 -7.54062,0.65697 -2.03729,0.14767 -5.43057,0.44129 -7.54062,0.65249 -4.92969,0.49343 -9.02394,0.85568 -13.49375,1.19389 -4.91318,0.37176 -12.9585,1.00601 -16.93334,1.33494 -1.81901,0.15053 -4.67651,0.38496 -6.35,0.52095 -1.67349,0.136 -4.88817,0.42077 -7.14375,0.63284 -2.25557,0.21206 -6.24416,0.51956 -8.86354,0.68333 -8.96363,0.56041 -12.7042,0.8175 -17.99166,1.23656 -5.20949,0.41288 -5.31223,0.43274 -6.61459,1.27841 -2.88753,1.87496 -3.31414,1.90123 -4.84198,0.29816 -2.34333,-2.45874 -5.63647,-3.7463 -10.72801,-4.19445 -12.74019,-1.12137 -31.72698,4.38787 -47.55713,13.7993 -8.1393,4.83899 -17.02091,13.09233 -19.81758,18.41569 -1.37845,2.62379 -1.42428,2.67891 -2.38876,2.87179 -1.82703,0.36541 -4.86236,-0.68228 -6.81234,-2.35136 -1.2297,-1.05259 -3.25691,-3.98803 -3.78539,-5.48137 -0.32668,-0.92305 -0.77401,-1.34035 -0.77401,-0.72205 0,0.66125 -1.7466,3.75727 -2.7971,4.95816 -2.25237,2.57482 -5.75339,4.12158 -7.97491,3.52338 -1.02164,-0.27509 -1.18843,-0.45651 -2.24346,-2.44009 -2.65829,-4.99801 -8.36361,-10.6802 -16.77664,-16.7086 -3.41469,-2.44681 -13.23618,-7.5678 -17.96518,-9.36716 -8.22635,-3.1301 -11.82621,-4.22185 -17.66922,-5.35866 -6.91359,-1.34509 -11.16105,-1.61914 -16.26827,-1.04965 -4.23694,0.47245 -7.35883,1.7975 -9.57541,4.06417 -1.49542,1.52923 -2.04052,1.5356 -4.396,0.0514 l -1.83277,-1.15481 -5.29166,-0.43096 c -5.39882,-0.43968 -9.53606,-0.72446 -17.99167,-1.23842 -2.61937,-0.15922 -7.14375,-0.51212 -10.05416,-0.78422 -2.91042,-0.2721 -6.89901,-0.62498 -8.86355,-0.78418 -1.96453,-0.15921 -4.88156,-0.40496 -6.48229,-0.54613 -1.60073,-0.14117 -5.41073,-0.43618 -8.46666,-0.65558 -6.89991,-0.49538 -13.86779,-1.0781 -21.89427,-1.831 -10.20877,-0.9576 -13.46788,-1.2503 -16.60261,-1.49108 -1.81901,-0.13971 -6.04573,-0.55095 -9.39271,-0.91386 -3.34697,-0.36291 -7.81182,-0.83916 -9.92187,-1.05833 -2.11005,-0.21917 -4.84849,-0.51904 -6.08542,-0.66637 -5.50767,-0.65601 -12.97789,-1.59992 -14.55208,-1.83876 -0.94589,-0.1435 -3.20807,-0.44219 -5.02708,-0.66375 -1.81901,-0.22156 -4.25979,-0.52125 -5.42396,-0.66597 -4.05778,-0.50444 -6.64374,-0.78282 -10.98021,-1.182 -2.4011,-0.22103 -6.56828,-0.6331 -9.26042,-0.91572 -15.18099,-1.59368 -16.11553,-1.67349 -27.91354,-2.38383 -12.27914,-0.7393 -12.63873,-0.76012 -18.38854,-1.06472 -7.71749,-0.40885 -13.56857,-0.80892 -14.08906,-0.96335 -0.25466,-0.0756 -0.46302,-0.0619 -0.46302,0.0303 0,0.38456 5.36653,6.22794 7.29967,7.9483 4.26192,3.79281 9.51351,7.7576 13.66098,10.31362 l 0.86747,0.53461 0.13229,39.41748 0.13229,39.41747 0.87288,2.0901 c 0.48009,1.14953 1.38989,4.18563 2.02178,6.74687 2.7404,11.10756 3.13095,18.83056 1.57346,31.11511 -0.6499,5.12601 -2.15494,12.14625 -3.38296,15.77972 l -1.14163,3.37789 1.5783,1.63819 c 2.23674,2.32161 3.3751,4.77062 3.3665,7.24257 -0.0122,3.5193 -1.13786,6.39159 -3.57531,9.12331 l -1.47549,1.65362 0.0415,11.4163 0.0415,11.41632 1.27364,2.77812 c 4.52014,9.85951 4.87797,21.90869 1.00575,33.86667 -2.48926,7.68717 -5.49727,13.82897 -10.4349,21.30605 -1.11021,1.68121 -1.96685,3.10848 -1.90364,3.17169 0.0632,0.0632 1.77495,0.81399 3.80384,1.66838 5.29941,2.23166 5.90228,2.57109 6.08185,3.42429 0.0839,0.39841 0.20337,0.9625 0.26559,1.25354 0.1795,0.83966 0.13803,228.90554 -0.0417,229.37393 -0.0889,0.2317 -0.4164,0.47998 -0.72777,0.55176 -0.67591,0.15582 -83.48101,0.28986 -120.083028,0.19437 z m 648.116468,-57.3505 c -0.20043,-0.52234 0.36716,-1.19661 0.851,-1.01095 0.20765,0.0797 0.37754,0.42979 0.37754,0.77803 0,0.46004 -0.14698,0.63315 -0.53748,0.63315 -0.29559,0 -0.60658,-0.1801 -0.69106,-0.40023 z m -450.03258,-0.15198 c -0.23088,-0.37362 0.27905,-0.88355 0.65267,-0.65267 0.41963,0.25937 0.35182,0.9403 -0.0936,0.9403 -0.20968,0 -0.46125,-0.12943 -0.55904,-0.28763 z m 683.50524,-9.29053 c -0.20754,-0.56343 0.0692,-1.00517 0.62966,-1.00517 0.39304,0 0.50421,0.14938 0.44098,0.59261 -0.0935,0.65508 -0.87093,0.9547 -1.07064,0.41256 z M 57.802942,624.81352 c 0,-0.24254 0.128,-0.3983 0.28443,-0.34615 0.15644,0.0522 0.28443,0.20791 0.28443,0.34615 0,0.13825 -0.12799,0.29404 -0.28443,0.34616 -0.15643,0.0521 -0.28443,-0.10361 -0.28443,-0.34616 z M 763.18209,429.66128 c 0,-0.64482 0.61828,-0.55367 0.747,0.11012 0.0506,0.26106 -0.0843,0.44109 -0.33073,0.44109 -0.24543,0 -0.41627,-0.22622 -0.41627,-0.55121 z"
     id="path3754" /></svg>
