<?xml version="1.0" encoding="UTF-8" standalone="no"?>
<!-- Created with Inkscape (http://www.inkscape.org/) -->

<svg
   width="1032.4391mm"
   height="691.32861mm"
   viewBox="0 0 1032.4391 691.32861"
   version="1.1"
   id="svg5"
   xml:space="preserve"
   xmlns="http://www.w3.org/2000/svg"
   xmlns:svg="http://www.w3.org/2000/svg"><defs
     id="defs2" /><path
     style="display:inline;fill:#dfa684;stroke-width:0.264583"
     d="m 93.185939,691.29393 c -24.11663,-0.0773 -26.08613,-0.11689 -26.39218,-0.53123 -0.2634,-0.35655 -0.33073,-23.92746 -0.33073,-115.77052 V 459.66935 l 1.91823,-0.87098 c 2.2367,-1.01557 9.07004,-3.65532 10.74316,-4.15015 0.63361,-0.18737 1.20672,-0.48321 1.27357,-0.65743 0.0668,-0.1742 -1.23891,-2.38406 -2.90168,-4.9108 -1.66277,-2.52675 -3.56911,-5.6061 -4.23631,-6.84303 -1.50225,-2.78505 -4.64069,-9.79805 -6.01993,-13.45184 -6.36432,-16.85988 -7.24156,-36.55337 -2.2026,-49.44697 l 1.16097,-2.97071 v -27.86471 -27.8647 l -0.64643,-2.2375 c -1.00817,-3.48964 -2.30445,-10.05491 -3.88969,-19.70003 -0.68373,-4.16012 -0.9764,-16.10717 -0.51793,-21.14301 0.76506,-8.40335 1.57063,-12.93945 3.48111,-19.60197 l 1.31075,-4.57102 -0.0673,-28.40657 -0.0673,-28.40659 -1.64159,0.0451 c -2.32376,0.0639 -9.74488,1.55454 -12.46731,2.5043 -5.54502,1.93448 -8.37733,3.66124 -10.52798,6.41851 l -0.80373,1.03042 -2.49324,-0.88954 c -11.7658,-4.19779 -22.32624,-13.095 -29.6542696,-24.98381 -3.50611,-5.68822 -6.79865,-15.32498 -7.90989,-23.15104 -0.60687,-4.27398 -0.27021,-12.75983 0.70853,-17.85937 0.87949,-4.58235 3.43199,-12.12502 5.46899,-16.16087 1.48272,-2.93766 5.7792096,-9.50696 8.4169496,-12.86944 5.53223,-7.05226 15.77434,-15.491565 26.77889,-22.065295 6.32713,-3.7796 18.33515,-9.0045 26.91474,-11.71107 5.35945,-1.69073 15.28075,-4.41429 18.77345,-5.15363 5.95718,-1.26102 23.581721,-3.60948 27.088151,-3.60948 1.60885,0 1.91414,-0.36355 2.24326,-2.6714 0.24938,-1.74873 1.09559,-4.90479 2.58247,-9.63173 0.55834,-1.775 2.90645,-5.72306 4.8241,-8.1111 5.49513,-6.84308 12.21411,-9.86475 18.38945,-8.27015 1.80209,0.46534 4.16129,1.78716 5.23674,2.93407 0.90231,0.96226 1.81066,2.47988 1.81192,3.02725 5.3e-4,0.23539 -0.52333,1.20988 -1.16415,2.16553 -2.08611,3.11092 -3.05675,6.56567 -3.06254,10.90024 -0.003,2.38981 0.52527,6.81242 0.94458,7.90512 0.14738,0.38409 1.09435,0.42925 8.99995,0.42925 7.8816,0 8.83523,-0.0452 8.83523,-0.41867 0,-0.23027 -0.34674,-1.21254 -0.77053,-2.18282 -2.78211,-6.36961 -2.51779,-12.10185 0.7067,-15.32634 1.44351,-1.44352 4.25983,-2.35185 5.2807,-1.70316 0.17715,0.11256 0.56521,0.99179 0.86235,1.95385 2.24383,7.26468 12.30216,13.17928 30.22415,17.77272 8.17996,2.09654 13.05248,3.00725 22.1034,4.13126 1.20055,0.14909 3.10555,0.38731 4.23334,0.52938 1.98591,0.25016 4.76834,0.48856 12.23698,1.04849 15.0677,1.12963 38.04065,1.13279 55.82708,0.008 10.42879,-0.6597 24.04745,-2.08701 31.75,-3.32758 5.27753,-0.85 16.24113,-3.10888 19.31458,-3.97948 13.11508,-3.71504 21.77835,-8.471 27.23176,-14.94965 2.02954,-2.4111 2.94111,-4.61948 3.13119,-7.58571 0.19613,-3.06047 0.24923,-3.08973 5.60845,-3.08973 3.80174,0 4.29315,0.0576 6.49422,0.76072 4.87511,1.5574 9.75987,4.51078 13.55267,8.1941 0.90551,0.87939 1.71556,1.52972 1.8001,1.44519 0.0845,-0.0845 0.45093,-1.32804 0.81417,-2.76332 2.61112,-10.317 5.8306,-16.69453 10.88665,-21.56552 3.93867,-3.79453 7.04895,-5.091 10.81048,-4.50621 2.30516,0.35838 3.59347,0.96221 4.85511,2.27559 l 0.91503,0.95255 1.46622,-1.42192 c 2.58111,-2.50308 5.19191,-3.98903 8.9255,-5.07997 1.89198,-0.55285 3.25102,-0.72733 7.22511,-0.92768 11.59455,-0.58451 19.9377,-1.92563 27.64896,-4.44448 2.97445,-0.97157 11.97721,-4.3645796 13.78556,-5.1955596 7.69358,-3.53538 13.58424,-5.77961 17.53857,-6.68189999 2.65197,-0.60512 3.6863,-0.70281 7.56962,-0.71495000134 C 523.13136,-0.02148459 526.26614,0.80914541 537.55372,5.6792654 c 2.76489,1.19293 6.03911,2.5573 7.27604,3.0319 8.01836,3.0766396 9.69153,3.6794596 12.42846,4.4778596 7.80253,2.27609 14.42825,3.2603 25.96568,3.85702 5.3322,0.27578 7.31649,0.73368 10.96811,2.53102 1.67079,0.82239 3.00363,1.73806 4.39214,3.0175 l 1.99345,1.83683 1.02103,-1.04561 c 2.54029,-2.60151 7.40917,-3.01169 11.36134,-0.95715 3.00426,1.56176 8.72691,7.89546 10.31173,11.41283 2.51212,5.57535 3.07637,7.14089 4.3769,12.14407 0.56195,2.16179 1.08611,3.99492 1.16483,4.07363 0.0787,0.0787 1.01131,-0.67798 2.07251,-1.68155 3.55917,-3.36601 8.94244,-6.58722 13.29486,-7.95533 2.18683,-0.6874 2.71703,-0.74852 6.49422,-0.74852 5.35985,0 5.41298,0.0293 5.60676,3.08973 0.25069,3.95971 2.0814,7.09356 6.32547,10.82805 2.47015,2.17355 3.22374,2.71662 6.33206,4.56322 4.48186,2.66261 11.05292,5.3143 17.70711,7.14556 5.33535,1.4683 18.38304,3.97691 24.87083,4.78178 13.67867,1.69696 23.15168,2.4593 39.55521,3.18322 9.23608,0.4076 31.6698,0.12098 40.61354,-0.51888 4.63018,-0.33126 14.72618,-1.20005 15.21354,-1.30917 0.29104,-0.0652 1.60073,-0.24641 2.91042,-0.40277 15.48619,-1.84889 30.04166,-5.56614 39.54057,-10.09809 7.52407,-3.58975 12.35544,-8.087 13.12106,-12.21364 0.33907,-1.8275 1.26392,-2.16338 3.6852,-1.33836 2.43456,0.82954 4.18494,3.24374 4.76226,6.56836 0.52208,3.00632 -0.24096,7.2992 -1.86812,10.51022 -0.34967,0.69005 -0.63576,1.49673 -0.63576,1.79261 0,0.53017 0.12813,0.53796 8.85335,0.53796 h 8.85333 l 0.26683,-0.99219 c 0.4903,-1.82326 0.80142,-4.67112 0.80206,-7.34218 0,-4.32585 -0.96959,-7.78537 -3.05835,-10.90024 -0.64082,-0.95565 -1.16469,-1.93014 -1.16416,-2.16553 0,-0.54737 0.90964,-2.06499 1.81194,-3.02725 1.07543,-1.14691 3.43464,-2.46873 5.23672,-2.93407 7.38272,-1.90637 15.44645,2.78025 21.20704,12.32545 0.73149,1.21205 1.51019,2.67997 1.73045,3.26205 0.88371,2.33526 2.59588,8.58067 2.86465,10.4492 0.15711,1.09242 0.38412,2.09323 0.50442,2.22402 0.12034,0.1308 1.26667,0.32798 2.54744,0.4382 8.20981,0.70649 19.95196,2.29549 25.47969,3.44802 4.43995,0.92573 13.82498,3.4763 19.84375,5.39293 8.51839,2.71262 20.43602,7.91026 26.6382,11.61771 11.02057,6.58776 21.24707,15.014555 26.77887,22.066275 2.6428,3.36891 6.9348,9.93288 8.4235,12.88245 2.0171,3.99648 4.5929,11.60535 5.4665,16.14787 1.11,5.77173 1.2612,15.75258 0.3107,20.5052 -0.9241,4.621 -3.0377,11.31025 -4.9325,15.61041 -3.4195,7.76078 -10.9029,16.83247 -18.5927,22.53902 -4.7527,3.52693 -8.118,5.32411 -13.90091,7.42357 l -2.21978,0.80588 -0.94657,-1.16288 c -1.75736,-2.15897 -2.80641,-2.97126 -5.50191,-4.26015 -3.72324,-1.78031 -6.67001,-2.72612 -11.32056,-3.63349 -5.4424,-1.06187 -7.28253,-1.25145 -7.58045,-0.781 -0.13052,0.2061 -0.23482,12.7935 -0.23709,28.61112 l -0.004,28.24308 1.0591,3.50692 c 2.90232,9.61024 4.02746,18.16557 3.93938,29.95369 -0.0419,5.61496 -0.16267,7.61775 -0.66183,10.9802 -1.18504,7.98269 -2.84361,16.54789 -3.92999,20.29513 l -0.67124,2.3154 v 27.86795 27.86794 l 1.16631,2.96745 c 1.13916,2.89843 2.2752,7.45326 2.78579,11.16954 0.47234,3.43764 0.61212,9.70735 0.30642,13.74117 -0.85582,11.29173 -3.21689,20.34646 -8.21449,31.50259 -2.55125,5.69517 -3.77188,7.91336 -7.33547,13.33063 -1.66407,2.52965 -2.9718,4.7395 -2.90608,4.91079 0.0657,0.1713 0.63794,0.46464 1.27154,0.65191 1.57265,0.46482 8.6823,3.22249 10.87545,4.21836 l 1.78594,0.81097 v 115.31881 c 0,91.8375 -0.0673,115.41093 -0.33073,115.77105 -0.31059,0.42468 -4.74988,0.45196 -72.90911,0.44799 -50.29586,-0.003 -72.73813,-0.0897 -73.09881,-0.28278 -0.5165,-0.27641 -0.51988,-1.15367 -0.44662,-115.45052 0.0653,-101.91236 0.11951,-115.22728 0.47069,-115.65228 0.4277,-0.5176 1.55509,-1.05217 6.46959,-3.06763 1.73924,-0.71329 3.26576,-1.40036 3.39225,-1.52686 0.13023,-0.13023 -0.62216,-1.4783 -1.73482,-3.10832 -7.38092,-10.81305 -11.92778,-22.2309 -13.05226,-32.7763 -0.88511,-8.3005 0.3253,-16.20818 3.47218,-22.6841 l 1.18848,-2.44573 v -11.70059 -11.70061 l -1.49376,-1.66365 c -3.41852,-3.80735 -4.42222,-8.69566 -2.57379,-12.53527 0.44117,-0.91638 1.44585,-2.26542 2.42679,-3.25852 l 1.67394,-1.69474 -1.18996,-3.59694 c -2.9712,-8.98088 -4.70329,-22.24264 -4.15007,-31.77505 0.13935,-2.40109 0.50067,-5.90196 0.80295,-7.77968 0.7106,-4.41417 2.4365,-11.26188 3.59363,-14.25807 l 0.91027,-2.35702 0.004,-38.93336 c 0.003,-21.41333 0.0915,-39.06497 0.19844,-39.22586 0.10691,-0.16089 1.02782,-0.79527 2.04647,-1.40972 3.89956,-2.35225 10.48724,-7.51422 13.96103,-10.93962 2.30193,-2.26984 6.34201,-6.83077 6.18754,-6.98524 -0.0698,-0.0698 -1.4171,-0.004 -2.99399,0.14599 -1.57689,0.15011 -4.2363,0.3413 -5.90979,0.42488 -1.67349,0.0836 -5.00724,0.26808 -7.40833,0.41002 -2.4011,0.14193 -8.65188,0.49353 -13.89063,0.78132 -5.23875,0.28779 -10.89422,0.64516 -12.56771,0.79414 -1.67348,0.14898 -5.1263,0.45275 -7.67291,0.67504 -2.54662,0.2223 -5.46365,0.5191 -6.48229,0.65957 -1.76895,0.24393 -5.21751,0.5895 -14.55209,1.45822 -4.18388,0.38937 -6.72475,0.66525 -10.84791,1.17781 -1.16417,0.14473 -3.60495,0.44626 -5.42396,0.67009 -4.704,0.5788 -6.87091,0.86382 -10.18646,1.33985 -1.60073,0.22983 -3.86292,0.51572 -5.02708,0.63532 -1.16417,0.1196 -4.25979,0.46407 -6.87917,0.7655 -2.61937,0.30143 -7.14375,0.78923 -10.05416,1.084 -2.91042,0.29477 -5.58933,0.59396 -5.95313,0.66487 -0.3638,0.0709 -2.20927,0.24701 -4.10104,0.39133 -3.28454,0.25058 -8.69127,0.73252 -20.90208,1.86316 -6.4837,0.60034 -14.53846,1.26714 -28.70729,2.37649 -5.60256,0.43865 -11.91287,0.97427 -14.02292,1.19027 -4.34345,0.44462 -9.07328,0.79697 -16.00729,1.19247 -6.12852,0.34956 -14.86202,1.0052 -17.06563,1.28114 -1.33463,0.16712 -2.03768,0.43359 -3.1393,1.18987 -2.21795,1.52264 -2.43862,1.51579 -4.2173,-0.13097 -1.72744,-1.59931 -4.1138,-2.85923 -6.66631,-3.51959 -2.3263,-0.60185 -10.40458,-0.85313 -13.62604,-0.42386 -9.94781,1.32557 -20.46256,4.66103 -30.75194,9.75503 -6.5224,3.22907 -8.84108,4.62859 -13.75349,8.30138 -6.02089,4.50157 -11.68329,10.43612 -13.68277,14.34042 -0.57102,1.11498 -1.19531,2.15762 -1.38732,2.31695 -0.55361,0.45948 -3.50099,0.13248 -4.90778,-0.54448 -2.6053,-1.25371 -5.13374,-4.2421 -6.17098,-7.29364 -0.27276,-0.80246 -0.56057,-1.45825 -0.63958,-1.45733 -0.079,0 -0.4413,0.79952 -0.8051,1.77462 -1.22777,3.29078 -3.88583,6.22535 -6.53738,7.21741 -1.38544,0.51837 -3.32004,0.6917 -4.15292,0.37211 -0.22815,-0.0876 -0.89961,-1.03741 -1.49212,-2.1108 -1.44553,-2.6186 -3.0884,-4.76215 -5.92206,-7.72675 -3.20286,-3.35085 -5.64105,-5.38441 -10.60281,-8.84331 -3.35238,-2.33695 -5.11969,-3.35132 -10.84792,-6.22621 -4.85116,-2.43471 -6.57341,-3.16794 -12.58046,-5.35597 -6.00162,-2.18606 -13.37455,-3.95677 -18.89236,-4.53726 -3.56499,-0.37505 -10.74695,-0.14528 -13.04427,0.41732 -2.34231,0.57362 -5.20772,2.09197 -6.81289,3.61008 -0.75528,0.71431 -1.55163,1.29874 -1.76967,1.29874 -0.21804,0 -1.15903,-0.49966 -2.09111,-1.11036 -1.30659,-0.85609 -2.05816,-1.15423 -3.28215,-1.30197 -1.70839,-0.20622 -12.74379,-1.0139 -23.01875,-1.68476 -3.4925,-0.22802 -8.07641,-0.58899 -10.18646,-0.80216 -2.11005,-0.21316 -8.42036,-0.74706 -14.02292,-1.18643 -15.06601,-1.18154 -25.88688,-2.09215 -29.76562,-2.50486 -1.89177,-0.20129 -4.68974,-0.43929 -6.21771,-0.52889 -1.52797,-0.0896 -4.2664,-0.32936 -6.08541,-0.53281 -1.81902,-0.20345 -5.09323,-0.50105 -7.27605,-0.66133 -2.18281,-0.16028 -4.14734,-0.3409 -4.36562,-0.40138 -0.21828,-0.0605 -2.83766,-0.35609 -5.82083,-0.65693 -2.98318,-0.30083 -7.56709,-0.79372 -10.18646,-1.09531 -2.61938,-0.3016 -5.715,-0.6462 -6.87917,-0.7658 -1.16417,-0.1196 -3.42635,-0.40549 -5.02708,-0.63532 -3.05673,-0.43887 -4.83688,-0.67503 -10.05417,-1.33381 -6.20591,-0.78363 -9.84276,-1.20098 -13.89062,-1.59407 -2.25558,-0.21904 -7.07761,-0.70018 -10.71563,-1.06921 -11.55287,-1.17189 -16.84486,-1.69098 -20.10833,-1.97242 -3.41154,-0.29422 -16.13904,-1.03712 -31.88229,-1.86097 -2.69214,-0.14088 -6.30628,-0.38378 -8.03143,-0.53978 -1.72515,-0.156 -3.19135,-0.22894 -3.25821,-0.16207 -0.16077,0.16077 4.56854,5.47845 6.47939,7.28548 3.9311,3.71751 10.44268,8.75358 14.07067,10.88228 0.80036,0.46961 1.54268,0.98904 1.64959,1.15429 0.10691,0.16526 0.19621,17.83498 0.19844,39.26605 l 0.004,38.96561 0.93713,2.39823 c 0.80569,2.06185 2.06962,6.61628 3.0026,10.81953 0.578,2.604 1.11646,6.95976 1.36732,11.06075 0.57084,9.33164 -1.19823,22.91842 -4.1409,31.80291 l -1.18344,3.57304 1.6789,1.72069 c 0.95028,0.97393 2.01617,2.40874 2.45604,3.30613 0.7006,1.42931 0.77524,1.83298 0.75786,4.09898 -0.017,2.22041 -0.12024,2.7528 -0.88502,4.56512 -0.60121,1.42467 -1.34314,2.57834 -2.42812,3.77558 l -1.56237,1.72402 v 11.72173 11.72176 l 1.19802,2.46144 c 7.37668,15.15621 3.89364,35.28534 -9.59055,55.4256 -1.06498,1.59068 -1.84476,2.97974 -1.73284,3.08682 0.11192,0.10708 1.81084,0.87162 3.77537,1.69902 1.96453,0.82738 4.0677,1.71908 4.67372,1.98152 0.60602,0.26247 1.26086,0.75628 1.45521,1.09738 0.29295,0.51417 0.36599,20.25907 0.42727,115.48885 0.0676,105.02916 0.0376,114.90492 -0.34962,115.29219 -0.38499,0.38499 -4.48834,0.42354 -45.07931,0.42354 -24.56067,0 -45.53693,0.0377 -46.61391,0.0838 -1.07699,0.0461 -13.68581,0.0462 -28.019611,0 z m 30.527801,-2.88806 c 1.47258,-0.23249 3.69607,-0.69397 4.94109,-1.02547 2.27025,-0.60449 6.38572,-2.27531 7.12903,-2.89425 0.21828,-0.18177 0.99219,-0.67 1.71979,-1.08495 5.0184,-2.86197 13.02942,-10.12145 17.51459,-15.87153 4.65615,-5.96927 8.89677,-13.07582 11.52539,-19.31459 2.58147,-6.12687 5.41312,-14.88342 6.24584,-19.31458 0.27448,-1.46055 0.78971,-4.03704 1.40213,-7.01146 0.28105,-1.36506 0.90417,-7.26834 1.29864,-12.30312 1.0522,-13.42962 -0.55149,-30.48204 -3.87701,-41.22518 -0.35188,-1.13678 -0.63979,-2.24742 -0.63979,-2.46814 0,-0.50887 -2.5313,-8.34162 -3.15172,-9.75251 -0.25596,-0.58209 -0.86509,-2.18943 -1.35362,-3.57188 -1.72407,-4.87881 -7.31176,-15.46399 -11.17342,-21.16667 -3.90284,-5.76347 -10.01021,-12.0243 -14.5186,-14.88344 -2.19311,-1.39081 -4.98459,-2.54244 -6.6321,-2.73606 -1.16184,-0.13655 -1.70203,-0.0585 -2.72407,0.3936 -1.1683,0.51678 -1.32674,0.52993 -1.89554,0.15724 -2.39762,-1.57099 -3.40989,-6.96328 -2.09563,-11.1633 0.62447,-1.99565 2.87959,-5.21587 4.61965,-6.5967 2.01938,-1.60247 6.27055,-3.67474 9.15943,-4.46484 4.41931,-1.2087 10.80208,-1.1357 16.13958,0.18457 10.71946,2.65155 18.73943,7.36939 28.77916,16.92966 5.65272,5.38276 10.70757,11.52593 15.31085,18.6074 2.62754,4.04207 8.06333,13.34585 8.57944,14.68437 0.2525,0.65485 0.56024,1.30374 0.68388,1.44198 0.30769,0.34404 0.29113,-52.68348 -0.0166,-53.25154 -0.27049,-0.49927 -5.20439,-4.94549 -6.63774,-5.98168 -8.19122,-5.9214 -18.64167,-11.71689 -25.79172,-14.30329 -7.2164,-2.61038 -11.38737,-3.57839 -18.23776,-4.2326 -5.52717,-0.52784 -8.39367,-0.50559 -13.5174,0.10494 -8.14765,0.97086 -15.29191,3.30562 -21.22251,6.93555 -8.84569,5.41417 -15.74659,14.06136 -16.1567,20.2452 -0.12457,1.87822 0.01,2.41006 1.00378,3.97981 0.55963,0.88357 -0.0723,1.8029 -1.8017,2.62104 l -1.44016,0.6813 0.12817,4.14475 c 0.10723,3.46761 0.24319,4.5338 0.83225,6.526 1.51029,5.10792 3.06065,8.01606 5.82471,10.92589 3.29261,3.46626 6.67703,4.95356 10.86844,4.77618 1.86245,-0.0788 2.31719,-0.19653 3.2457,-0.84018 1.35276,-0.93777 1.89998,-0.71559 2.84867,1.15654 0.92671,1.82878 1.07606,3.28404 0.53104,5.1742 -0.93595,3.2459 -3.29723,6.31827 -6.48427,8.43703 -2.34864,1.56136 -4.03066,2.28341 -7.3396,3.15071 -7.81609,2.04864 -16.10279,1.22962 -25.568401,-2.52704 -8.9283,-3.54343 -17.20009,-11.22127 -21.90429,-20.33145 l -0.88804,-1.71979 -0.0676,24.05361 c -0.0371,13.22951 -0.003,24.11796 0.0754,24.19657 0.0786,0.0786 0.85939,-0.5915 1.73506,-1.48915 5.91713,-6.06568 14.63671,-10.45877 23.26225,-11.71999 3.29163,-0.4813 9.697521,-0.16563 13.231991,0.65209 9.34673,2.16236 16.97475,7.49224 23.8735,16.68098 4.29268,5.71762 7.2494,12.22671 9.68716,21.32584 4.40031,16.42454 1.20643,38.40673 -7.6565,52.69671 -5.45698,8.79846 -11.25006,13.17104 -17.44989,13.17104 -5.44941,0 -10.70332,-5.15887 -8.86814,-8.70773 0.41422,-0.80102 0.51097,-0.84656 1.45835,-0.68651 1.39466,0.23564 2.76255,-0.50641 4.34236,-2.35561 3.46466,-4.0554 5.90771,-9.72857 7.43307,-17.26076 0.59098,-2.91822 0.6859,-4.07016 0.69367,-8.41795 0.0189,-10.59831 -1.4278,-16.56467 -5.46226,-22.52639 -2.41953,-3.57534 -4.86385,-5.47307 -8.85868,-6.87766 -1.69495,-0.59595 -2.27628,-0.67609 -4.09226,-0.56428 -4.025971,0.24789 -7.621561,1.87042 -11.720761,5.28903 -3.42456,2.85596 -6.35942,6.91663 -8.55255,11.83333 -1.57223,3.5247 -2.0871,5.06494 -3.42265,10.239 -1.41363,5.47656 -1.81202,8.54027 -2.00635,15.42928 -0.23713,8.40605 0.60021,14.88464 2.85543,22.09271 3.29485,10.53092 7.4362,17.77802 13.40526,23.45836 5.27302,5.01795 10.677221,7.62082 17.468051,8.41322 3.27108,0.38171 10.52868,0.3017 13.37324,-0.14746 z m 801.58676,-0.33358 c 10.69652,-2.22174 20.15948,-11.57219 25.60963,-25.30512 3.48282,-8.77581 5.07934,-16.89034 5.07545,-25.79688 -0.003,-7.79412 -0.70895,-13.06224 -2.69306,-20.10833 -3.0842,-10.95277 -7.94795,-18.19399 -15.09647,-22.47575 -3.02077,-1.80935 -5.42512,-2.51639 -8.52992,-2.50835 -2.38665,0.006 -2.83793,0.0901 -4.60672,0.8564 -3.66239,1.58668 -5.54614,3.155 -7.81465,6.50608 -4.03437,5.95961 -5.48161,11.92757 -5.46267,22.52639 0.01,5.54791 0.54163,9.07454 2.16527,14.36108 1.68984,5.50214 5.43073,11.62703 8.03273,13.1519 0.9785,0.57346 1.39049,0.67014 2.24226,0.52621 0.96965,-0.16381 1.07286,-0.11957 1.45772,0.62465 0.6296,1.21751 0.49858,2.38205 -0.46514,4.13451 -1.43761,2.61419 -4.97678,4.63021 -8.12842,4.63021 -5.90904,0 -11.47249,-3.76907 -16.3499,-11.07651 -5.03155,-7.53843 -8.1352,-15.74187 -9.97606,-26.36841 -1.17483,-6.78174 -1.26566,-15.30061 -0.23974,-22.4832 0.74224,-5.19666 2.94611,-12.50101 5.45481,-18.07906 1.82533,-4.05855 2.73767,-5.59226 5.51852,-9.27698 7.72861,-10.24062 16.96106,-16.00668 27.62628,-17.25382 3.17805,-0.37164 8.997,-0.17397 11.87112,0.40325 7.48347,1.50289 14.55991,5.31225 20.35844,10.95923 l 2.3151,2.25459 -0.006,-24.32338 -0.006,-24.32341 -0.82531,1.45521 c -2.91608,5.14167 -4.67114,7.56496 -8.00487,11.0527 -5.86988,6.14111 -13.55227,10.25774 -23.04044,12.34628 -8.08638,1.77998 -17.91695,0.50715 -23.38652,-3.028 -4.4744,-2.89195 -7.20855,-6.98246 -7.25937,-10.86064 -0.0193,-1.47085 0.10064,-1.95337 0.78906,-3.175 0.95398,-1.69291 1.71694,-1.95165 2.98667,-1.01288 1.10199,0.81473 4.48271,1.00396 6.90235,0.38634 4.66987,-1.19197 9.38217,-5.94778 11.58224,-11.68918 1.65896,-4.32935 1.95551,-5.77165 2.09724,-10.20101 l 0.13261,-4.14285 -1.55236,-0.75194 c -1.97927,-0.95875 -2.36135,-1.78433 -1.41695,-3.06168 0.82246,-1.11244 0.99102,-3.2453 0.42966,-5.43655 -1.53379,-5.98689 -8.09691,-13.56075 -15.83582,-18.27451 -6.10738,-3.72002 -13.86361,-6.20255 -22.00354,-7.04268 -5.16853,-0.53345 -7.75401,-0.51266 -13.80808,0.11105 -12.23483,1.26047 -24.87337,6.28964 -38.34677,15.25907 -4.51371,3.00485 -6.28774,4.37423 -9.23708,7.13018 l -2.2723,2.12331 0.0196,26.7095 0.0196,26.70953 0.75912,-1.64738 c 0.78711,-1.7081 7.46897,-13.02779 9.33545,-15.81512 1.8623,-2.78109 5.50254,-7.57487 8.16105,-10.74714 2.77373,-3.30978 9.42316,-9.78307 12.69037,-12.35424 9.09346,-7.15619 18.22748,-11.18764 27.71259,-12.23137 6.09136,-0.6703 10.81135,0.0836 15.78242,2.52074 3.74266,1.83491 5.54042,3.28035 7.23953,5.8207 1.79136,2.67829 2.28547,4.33938 2.28547,7.68318 0,2.50523 -0.0513,2.75399 -0.92605,4.48731 -0.50932,1.00928 -1.22827,2.05263 -1.59768,2.31854 -0.65447,0.47112 -0.70461,0.46889 -1.96117,-0.0869 -1.03439,-0.45755 -1.57443,-0.53695 -2.72934,-0.40119 -4.0101,0.4713 -9.60927,4.22608 -15.23447,10.21614 -4.99025,5.31395 -9.62813,12.56578 -14.63447,22.8826 -4.05466,8.35567 -8.03246,21.16696 -10.10457,32.54375 -0.74152,4.07122 -1.45693,11.79912 -1.77581,19.18229 -0.1007,2.33164 0.33592,11.71609 0.68938,14.81667 1.7073,14.97756 3.89167,23.59353 9.05563,35.71875 2.29007,5.37718 5.83692,11.26704 10.83452,17.99166 2.535,3.41101 10.51055,11.26398 13.85285,13.63996 6.76034,4.80576 10.51327,6.43964 17.57388,7.65112 3.3132,0.56845 13.24801,0.3589 16.66875,-0.35158 z M 175.509,446.00728 c 1.86938,-4.28721 2.61771,-7.95282 2.63212,-12.89328 0.01,-3.26216 -0.0707,-3.96701 -0.66518,-5.84674 -1.67451,-5.2945 -4.93137,-8.09082 -9.42333,-8.09082 -1.80873,0 -2.55958,0.1656 -5.60316,1.23589 -12.95976,4.55726 -15.19073,5.18036 -20.33228,5.67854 -2.4959,0.24186 -3.69606,0.22225 -6.51606,-0.10639 -5.4962,-0.64055 -6.80516,-1.05246 -17.14746,-5.39612 -2.70407,-1.13567 -3.06986,-1.22158 -5.15937,-1.21169 -2.64795,0.0127 -3.91844,0.53565 -5.34281,2.1997 -1.34286,1.56884 -1.89009,3.56168 -2.00428,7.29914 -0.13879,4.5421 0.87365,10.12528 2.70532,14.91871 1.11788,2.92547 0.65935,2.754 5.7001,2.13148 9.69688,-1.1975 12.03518,-1.34791 23.15104,-1.48933 8.91329,-0.11338 12.23829,-0.0546 16.80104,0.29715 6.18444,0.47675 12.3031,1.20351 16.66875,1.97985 4.07249,0.72419 3.9002,0.75102 4.53556,-0.70609 z m 687.41619,0.47371 c 11.66913,-1.79412 18.62775,-2.2361 32.24247,-2.04788 10.67038,0.14751 14.15555,0.37428 23.10879,1.50355 2.32143,0.29279 4.32128,0.43183 4.44418,0.30893 0.37671,-0.37672 1.6868,-3.79177 2.04528,-5.33154 0.18635,-0.80037 0.55377,-2.16959 0.8165,-3.04271 1.24233,-4.12835 1.37279,-11.13676 0.26046,-13.99138 -1.26431,-3.24469 -3.12552,-4.50503 -6.62779,-4.4881 -2.47766,0.0119 -3.32636,0.26868 -8.20229,2.48097 -12.07524,5.47873 -20.51645,5.73236 -33.86645,1.01754 -10.52629,-3.71759 -10.60842,-3.74185 -12.7,-3.75246 -4.40002,-0.0222 -7.74634,2.86724 -9.41451,8.12935 -0.58666,1.8506 -0.67691,2.60641 -0.67263,5.63243 0.005,3.61182 0.0695,4.26603 0.717,7.29273 0.49024,2.29151 2.28399,7.07163 2.65364,7.07163 0.0563,0 2.39421,-0.35238 5.19535,-0.78306 z M 187.30308,384.56804 c 1.48698,-0.4422 2.95333,-0.80399 3.25854,-0.80399 0.30522,0 0.78524,-0.12324 1.06671,-0.2739 0.45064,-0.24117 0.51178,-0.57306 0.51178,-2.77812 0,-1.8905 -0.0851,-2.50423 -0.34725,-2.50423 -0.72688,0 -4.90697,1.56424 -7.10707,2.65956 -2.46871,1.22905 -2.7673,1.58502 -3.04813,3.6339 l -0.16434,1.19898 1.56308,-0.16412 c 0.8597,-0.0903 2.7797,-0.52591 4.26668,-0.96808 z m 663.55153,-0.19148 c -0.24691,-1.80139 -0.72218,-2.33876 -3.14939,-3.56087 -2.08478,-1.04968 -6.26051,-2.60789 -6.98873,-2.60789 -0.26313,0 -0.34724,0.63206 -0.34724,2.60929 v 2.60932 l 1.38907,0.29515 c 0.76398,0.16234 2.69875,0.64754 4.29947,1.07823 1.60073,0.43066 3.3731,0.79054 3.93857,0.7997 l 1.02814,0.0167 -0.16989,-1.23958 z M 122.15782,363.66405 c 1.13461,-0.4445 2.0139,-1.05693 3.08216,-2.1467 2.80637,-2.86284 4.12824,-6.97912 3.85551,-12.00603 -0.14233,-2.62355 -1.38863,-8.71183 -1.7517,-8.55723 -0.103,0.0439 -1.18199,1.21084 -2.39775,2.59329 -5.17604,5.88568 -10.78432,11.15327 -15.07761,14.16167 -1.16784,0.8183 -2.17686,1.57445 -2.24228,1.68029 -0.15656,0.25333 6.13757,4.4795 7.14011,4.79422 1.45827,0.45775 5.64889,0.16325 7.39156,-0.51951 z m 795.45487,0.52512 c 0.49919,-0.14319 2.39011,-1.24233 4.20206,-2.44258 l 3.2944,-2.18226 -0.76422,-0.58637 c -0.42032,-0.3225 -1.95485,-1.47299 -3.41005,-2.55667 -3.35111,-2.49555 -8.31263,-7.22294 -12.40073,-11.81558 -1.74871,-1.96453 -3.25888,-3.60601 -3.35593,-3.6477 -0.097,-0.0417 -0.30919,0.43455 -0.47143,1.05833 -1.14792,4.41359 -1.22298,4.93268 -1.21629,8.4102 0.0106,5.44585 0.94864,8.20934 3.75436,11.05885 1.99781,2.02901 4.23532,2.92791 7.34176,2.94942 1.16512,0.008 2.52685,-0.10248 3.02607,-0.24564 z m -726.88578,-9.23835 c 0.52586,-1.19737 1.14883,-7.41424 1.14377,-11.41411 -0.014,-11.00973 -2.58968,-16.506 -7.7147,-16.46216 -2.57174,0.022 -4.36728,1.47815 -5.4181,4.39399 -0.59216,1.64312 -0.48147,4.74768 0.29615,8.30585 1.92961,8.82949 2.44039,11.5723 3.19087,17.13445 0.23561,1.74625 0.47648,3.32613 0.53526,3.51086 0.15979,0.50218 7.58204,-4.59293 7.96675,-5.46888 z m 659.25386,4.28085 c 0.87538,-6.83104 1.57237,-10.82149 3.063,-17.53638 1.57203,-7.0817 1.52308,-9.34413 -0.2636,-12.18501 -1.76461,-2.80577 -5.57535,-3.34248 -8.14083,-1.14652 -1.43378,1.22727 -2.84875,4.12927 -3.40765,6.98889 -0.86987,4.45069 -0.43331,18.09891 0.63701,19.91421 0.2726,0.46239 7.56737,5.4441 7.78933,5.3195 0.0884,-0.0496 0.2336,-0.65921 0.32274,-1.35469 z m -746.50053,-25.2529 c 6.60117,-3.20407 11.92881,-7.24453 15.74648,-11.94202 l 1.03213,-1.26997 -0.46444,-0.97899 c -0.25545,-0.53842 -1.07283,-1.99098 -1.81641,-3.22791 -3.29117,-5.47476 -7.28269,-9.90309 -10.44593,-11.58907 -1.37487,-0.73279 -1.84917,-0.846 -3.53525,-0.84376 -4.616991,0.006 -7.491821,3.13553 -8.715291,9.48706 -0.44318,2.30071 -0.14613,9.71151 0.5468,13.64184 0.58426,3.31393 1.62274,7.42458 2.10184,8.31977 0.41919,0.78327 0.97685,0.62283 5.550071,-1.59695 z m 831.11354,1.56967 c 0.79989,-1.49458 2.21501,-8.16999 2.60599,-12.29294 0.61301,-6.46448 0.18221,-10.95703 -1.34978,-14.07646 -1.73934,-3.54158 -3.92647,-5.04746 -7.33745,-5.05199 -1.69018,-0.003 -2.16188,0.11097 -3.57187,0.85731 -1.97763,1.0468 -5.36353,4.21624 -6.99569,6.54843 -0.66196,0.94589 -1.41282,1.95792 -1.66857,2.24896 -0.60648,0.6902 -3.94049,6.50299 -3.94049,6.87017 0,0.47141 3.80592,4.64643 5.85988,6.42816 3.4738,3.01342 8.97366,6.32772 13.98387,8.4269 1.82549,0.76483 2.02514,0.76827 2.41411,0.0415 z M 170.32567,289.28446 c 0.67487,-0.67551 1.20317,-1.73514 2.09893,-4.21 1.5807,-4.36721 2.56306,-6.32383 4.10572,-8.1775 3.25094,-3.90642 8.55177,-6.17437 13.40356,-5.73471 l 1.94164,0.17595 v -11.785 c 0,-7.06702 -0.0983,-11.78499 -0.24542,-11.78499 -0.13499,0 -0.69562,0.74414 -1.24586,1.65365 -2.13104,3.52248 -7.43939,8.26823 -11.73788,10.49382 -3.89149,2.01488 -9.01678,3.21884 -13.69142,3.21617 -3.12269,-0.003 -3.10298,-0.0156 -3.94881,2.76032 -0.40542,1.33048 -0.4785,2.4442 -0.45144,6.87917 0.0178,2.91041 0.17244,6.06557 0.34371,7.01146 0.73704,4.07029 2.42253,7.93506 4.16848,9.55812 1.00102,0.93057 1.3035,1.02587 2.94893,0.92906 1.19319,-0.0702 1.54558,-0.22053 2.30986,-0.98552 z m 697.05651,0.13338 c 1.8261,-1.74475 3.48406,-5.52231 4.22878,-9.63504 0.17127,-0.94589 0.32594,-4.10105 0.3437,-7.01146 0.0271,-4.43497 -0.046,-5.54869 -0.45144,-6.87917 -0.84362,-2.76863 -0.85558,-2.77733 -3.82185,-2.78336 -6.73754,-0.0138 -12.68397,-1.9203 -17.78712,-5.70299 -2.94568,-2.18347 -6.42215,-5.71542 -7.68831,-7.811 -0.61034,-1.01016 -1.21375,-1.90096 -1.34091,-1.97954 -0.13057,-0.0807 -0.23119,5.04897 -0.23119,11.78518 v 11.92805 l 2.05052,-0.16354 c 5.09884,-0.40666 10.66445,2.15411 13.73259,6.31846 1.57935,2.14366 2.17672,3.36754 3.51147,7.19416 1.69807,4.86817 2.56717,5.79649 5.25137,5.60911 1.10236,-0.0769 1.56427,-0.25919 2.20239,-0.86886 z m -743.24403,-34.3715 c 1.8231,-0.94276 4.00258,-3.52255 3.96046,-4.68791 -0.007,-0.18769 -1.2215,-1.1747 -2.69937,-2.19334 -4.16424,-2.87025 -7.3344,-5.6179 -12.40782,-10.7541 -7.22972,-7.31914 -12.00299,-13.81065 -16.314001,-22.18653 -3.4037,-6.61305 -5.55245,-12.89487 -6.04084,-17.66024 -0.22482,-2.19373 -0.50882,-2.5382 -2.1119,-2.56156 l -1.29186,-0.0188 v 17.72709 17.72708 l 1.05833,-0.0563 c 4.90987,-0.26117 6.62485,-0.15026 8.86354,0.57325 2.900971,0.93752 4.763161,1.9337 7.107431,3.80211 3.24436,2.5858 4.88305,5.11405 7.68692,11.85974 1.97688,4.75607 4.60941,8.03399 7.10067,8.8415 1.04615,0.33912 4.11679,0.0905 5.08844,-0.41196 z m 790.83767,-0.39515 c 2.30812,-1.48114 3.70922,-3.6499 6.36813,-9.85724 2.89568,-6.76015 5.86682,-10.17923 10.96801,-12.62173 3.81296,-1.82566 6.77426,-2.30513 11.01219,-1.78295 l 1.75176,0.21582 0.13414,-0.7017 c 0.0738,-0.38592 0.11891,-8.40071 0.10031,-17.81062 l -0.0338,-17.10893 -1.29844,0.0683 c -1.61676,0.0851 -2.00829,0.40005 -2.01094,1.61771 -0.004,1.68126 -1.23899,6.93828 -2.4016,10.22021 -1.25489,3.54245 -5.37218,11.82223 -7.51064,15.10382 -3.47041,5.32545 -6.52733,9.15632 -11.43662,14.33213 -4.36507,4.60208 -9.89904,9.456 -13.6485,11.97134 -1.40999,0.94588 -2.5649,1.89838 -2.56651,2.11666 -0.007,0.97817 1.86486,3.34278 3.39719,4.29115 1.24439,0.77015 2.2927,0.99174 4.19958,0.88765 1.31127,-0.0715 1.92,-0.26419 2.97576,-0.94165 z m -397.9289,-32.08454 c 4.37933,-12.09893 20.64605,-25.35365 42.86401,-34.9272 6.97971,-3.00751 11.63013,-4.47727 18.91771,-5.97893 9.48264,-1.95396 16.78315,-2.05728 23.6802,-0.33511 5.65314,1.41157 8.85741,3.10121 12.39325,6.53514 1.24875,1.21278 2.29867,2.17686 2.33312,2.14241 0.0344,-0.0344 -0.34121,-0.89754 -0.83482,-1.91798 -1.05571,-2.18255 -4.35647,-5.86227 -6.86289,-7.6508 -6.76587,-4.82804 -17.16585,-6.65925 -28.45885,-5.01098 -9.35225,1.36502 -25.02849,6.97522 -34.66147,12.40463 -4.49114,2.53133 -10.50729,6.36195 -12.96458,8.25487 -8.84365,6.81243 -10.08669,7.86164 -13.86695,11.70474 -1.73323,1.76203 -3.22355,3.20369 -3.31181,3.20369 -0.0883,0 -1.46812,-1.31935 -3.06639,-2.93188 -5.29408,-5.34142 -13.65909,-12.04472 -19.83923,-15.89817 -5.41747,-3.37791 -13.35984,-7.64934 -16.58194,-8.91782 -1.0664,-0.41982 -3.12952,-1.24144 -4.58472,-1.82583 -5.94429,-2.38712 -14.29983,-4.88992 -19.1823,-5.74581 -10.06228,-1.76391 -19.68566,-0.75684 -26.7898,2.80352 -3.94411,1.97666 -8.3067,6.08225 -10.11052,9.51493 -1.16078,2.20896 -1.11728,2.90883 0.0796,1.28129 1.97808,-2.68979 6.88829,-5.87164 11.1561,-7.22921 8.56052,-2.72307 17.46999,-2.60204 30.1285,0.40929 3.8331,0.91186 10.80077,3.22123 12.91304,4.27991 0.70189,0.35179 1.75242,0.79297 2.3345,0.98039 1.45058,0.46706 8.80785,3.99685 11.24096,5.39308 1.09352,0.62749 3.2979,1.89272 4.89863,2.81161 1.60072,0.91888 4.26524,2.63277 5.92113,3.80864 1.6559,1.17586 3.50137,2.48266 4.10104,2.904 4.3842,3.08035 10.37572,9.1963 13.26888,13.54445 1.43677,2.15933 3.82458,6.97309 3.82747,7.71605 0.003,0.82299 0.5113,0.18769 1.05809,-1.32292 z m -204.7259,-19.39673 c 0.0816,-0.0816 -0.78713,-1.45505 -1.93042,-3.05221 -3.47761,-4.85812 -5.80576,-9.09701 -7.39717,-13.46825 -2.13593,-5.8668 -2.90333,-9.57335 -2.90333,-14.02291 0,-11.7912 6.51031,-21.32649 16.27188,-23.8325 4.01336,-1.03032 8.86415,-0.60495 11.47122,1.00594 2.53148,1.56417 4.2101,4.52585 3.16024,5.57572 -0.17463,0.17463 -0.8949,0.3175 -1.60065,0.3175 -2.3336,0 -3.68131,1.19922 -4.67384,4.15884 -2.50058,7.45643 3.09774,18.29 12.99022,25.13803 9.34662,6.47015 17.95973,9.35406 29.18822,9.77299 15.24754,0.56889 29.52777,-6.73756 37.83544,-19.3584 2.71571,-4.12567 3.36236,-5.38689 4.89448,-9.54637 2.35635,-6.39713 3.17256,-11.09163 3.19749,-18.39085 0.0188,-5.51445 0.0217,-5.48504 -0.98764,-10.55965 -0.94319,-4.74259 -2.17347,-8.86401 -4.85727,-16.27187 -0.90445,-2.49643 -5.73553,-11.853 -7.09901,-13.74892 -0.67842,-0.94336 -1.8288,-2.57657 -2.55641,-3.62937 -4.55795,-6.595085 -11.41354,-13.731405 -17.72708,-18.452965 -8.94823,-6.6919 -18.11136,-11.87195 -27.62123,-15.61463 -4.35829,-1.71525 -4.97046,-1.81239 -7.70064,-1.22198 -8.25852,1.78593 -16.862,3.402 -21.16667,3.97594 -3.82722,0.51027 -16.52331,1.88293 -20.90208,2.25986 -1.81901,0.15658 -4.37885,0.40261 -5.68854,0.54673 -7.51292,0.82673 -41.41314,1.10984 -51.19687,0.42755 -3.41974,-0.23848 -7.94412,-0.55493 -10.05417,-0.70321 -21.9627,-1.54341 -40.74825,-5.72839 -52.9714,-11.80079 -5.60326,-2.78367 -9.17121,-5.49831 -11.58724,-8.81603 -0.64038,-0.87938 -1.21522,-1.54798 -1.27743,-1.48577 -0.0622,0.0622 0.0264,0.66699 0.19684,1.34397 1.1276,4.47813 5.70217,9.26079 13.21652,13.81772 3.88784,2.3577 8.74463,4.79783 12.0136,6.03583 1.34277,0.50853 3.3939,1.28728 4.55807,1.73057 4.89744,1.86484 13.2769,4.24097 20.24062,5.73953 8.63894,1.85907 22.07361,3.73209 31.48542,4.38961 8.16814,0.57063 17.7011,1.43847 18.04625,1.64284 0.10279,0.0609 0.12652,0.26794 0.0528,0.46017 -0.0922,0.24017 -0.96248,0.40379 -2.78197,0.52303 -8.2355,0.53971 -14.34084,3.21254 -17.06477,7.47071 -1.89937,2.96919 -1.7276,7.328515 0.40036,10.160565 1.11512,1.48407 3.50745,3.44744 5.31612,4.36286 7.13502,3.61127 18.1483,3.15301 21.36426,-0.88895 0.98475,-1.23768 1.164,-1.75014 0.87661,-2.50603 -0.1357,-0.35693 -0.1353,-0.7724 0,-0.98988 0.33854,-0.54031 2.03251,0.41059 2.81922,1.58256 0.78867,1.17485 0.7588,2.00503 -0.12626,3.50755 -3.50531,5.95092 -13.91925,7.59331 -29.14288,4.59615 -4.17345,-0.82165 -7.91178,-1.66395 -8.21399,-1.85071 -0.12689,-0.0784 -1.52127,-0.48388 -3.09861,-0.90098 -3.65512,-0.96682 -10.74585,-3.20912 -13.31793,-4.21186 -1.09141,-0.42549 -3.25804,-1.25831 -4.81473,-1.85071 -13.62126,-5.18358 -25.78025,-11.375775 -34.87277,-17.759605 -1.96453,-1.37929 -3.9886,-2.7905 -4.49792,-3.13603 -3.49901,-2.37374 -11.01874,-9.70539 -14.51989,-14.15671 -0.77476,-0.98502 -1.62691,-1.90776 -1.89366,-2.05052 -0.468,-0.25046 -18.51145,-0.39144 -18.51145,-0.14463 0,0.52036 2.37296,6.7149 3.06927,8.01224 3.32579,6.19647 7.10352,11.09948 13.3117,17.27691 3.55746,3.53985 5.93308,5.506575 12.32632,10.204725 9.22608,6.7799 24.70515,15.25113 35.71875,19.54781 1.74625,0.68126 3.71078,1.45778 4.36563,1.72562 0.65484,0.26783 3.18722,1.20551 5.62751,2.08374 12.71298,4.57522 25.03126,7.22007 37.2184,7.99115 8.26188,0.52272 14.27734,0.0808 20.06565,-1.47404 1.26953,-0.34102 2.40681,-0.52452 2.5273,-0.40779 0.12052,0.11674 -1.55133,1.98295 -3.7152,4.14713 -9.51436,9.51572 -14.15973,19.80142 -15.16054,33.5682 -0.60304,8.2953 0.57123,16.71478 3.21796,23.07254 1.23198,2.95936 1.21738,2.94893 4.59079,3.27354 3.71925,0.35789 13.42303,1.46265 17.19792,1.95795 1.60073,0.21004 4.69635,0.56959 6.87916,0.79901 9.44949,0.99316 17.09788,1.92955 17.28444,2.11612 0.17629,0.17628 0.45061,0.17009 0.63502,-0.0143 z m 55.61383,-38.31802 c -1.48407,-0.69105 -2.49267,-1.77215 -2.49267,-2.67189 0,-0.42862 0.28771,-0.71533 1.07326,-1.06957 1.16787,-0.52663 2.21663,-1.70529 3.17225,-3.56514 0.84465,-1.64386 1.02073,-5.11736 0.3929,-7.75078 -0.53983,-2.26421 -2.30102,-6.12072 -3.78547,-8.28895 -2.29621,-3.35394 -6.45157,-7.44046 -10.24564,-10.07586 -7.95327,-5.52444 -16.74247,-8.93966 -27.51667,-10.69219 -4.72279,-0.76821 -13.80466,-0.82981 -17.85937,-0.12115 -4.80166,0.83922 -10.36601,2.54366 -14.35476,4.39711 -1.28963,0.59924 -1.1045,0.0445 0.58941,-1.76634 2.00949,-2.14814 3.14659,-3.88758 4.38986,-6.71532 2.82409,-6.42315 2.20832,-12.83336 -1.70259,-17.724025 -1.57771,-1.97295 -3.37476,-3.55627 -5.90574,-5.20334 -2.08955,-1.3598 -3.4817,-2.00831 -6.67679,-3.11027 -1.29889,-0.44798 -2.41633,-0.98193 -2.48322,-1.18656 -0.23632,-0.72317 4.67331,0.019 21.11674,3.19194 8.01156,1.54594 17.91251,4.32357 27.51667,7.719595 4.46434,1.57859 5.12836,1.84499 8.42679,3.38085 1.215,0.56575 2.26849,1.02863 2.34109,1.02863 0.0726,0 1.68539,0.77949 3.58396,1.73221 13.17922,6.6134 22.98044,14.5559 29.03551,23.52912 1.59401,2.3622 3.63908,6.4007 4.62568,9.1345 1.71636,4.75595 2.22298,10.94706 1.21749,14.87846 -1.4744,5.76482 -5.46733,10.23084 -10.10254,11.29944 -1.80461,0.41604 -2.89912,0.32799 -4.35615,-0.35047 z m 353.94843,38.07952 c 1.09022,-0.19014 8.52985,-1.04659 15.03389,-1.73072 2.69214,-0.28317 6.26401,-0.69446 7.9375,-0.91398 3.28438,-0.43083 12.98623,-1.53705 17.42517,-1.98685 1.50746,-0.15275 2.84917,-0.34469 2.98162,-0.42654 0.13242,-0.0819 0.55353,-0.76547 0.9358,-1.51915 2.58194,-5.09072 4.33607,-15.02022 3.93459,-22.27242 -0.42127,-7.60995 -1.29508,-12.1708 -3.34563,-17.4625 -2.79908,-7.22332 -6.2848,-12.53673 -11.95615,-18.2251 -2.15921,-2.16568 -3.82846,-4.03189 -3.70946,-4.14713 0.11899,-0.11524 1.25506,0.0695 2.52458,0.41052 3.83159,1.02924 6.9872,1.46874 11.71469,1.63156 4.84338,0.16682 14.1065,-0.39937 17.99167,-1.09969 1.16416,-0.20985 3.24776,-0.57247 4.6302,-0.80583 12.64878,-2.13511 30.88447,-8.42833 45.37605,-15.65947 4.98625,-2.48809 9.17889,-4.79994 11.90624,-6.56516 1.16417,-0.75348 3.18823,-2.00607 4.49792,-2.78352 2.63993,-1.56709 8.23799,-5.5147 12.7,-8.95571 2.93664,-2.264675 9.22946,-8.337955 11.67659,-11.269225 3.23091,-3.87007 6.77789,-9.07897 8.57681,-12.59542 0.4067,-0.79494 2.63306,-6.94863 2.63306,-7.27774 0,-0.16892 -17.91332,-0.11634 -18.3569,0.0539 -0.22468,0.0862 -1.09603,1.00896 -1.93635,2.05052 -2.7549,3.41468 -8.06569,8.88709 -11.04591,11.38199 -1.6084,1.34651 -4.93611,3.84985 -7.39489,5.56299 -4.08659,2.84732 -5.52582,3.74902 -11.53678,7.22796 -9.70524,5.617045 -31.03372,14.244795 -42.07957,17.021925 -1.67945,0.42224 -3.57516,0.95175 -4.21267,1.17668 -1.55819,0.54976 -9.43901,2.11743 -13.3713,2.65985 -4.43333,0.61152 -11.83476,0.4296 -14.76267,-0.36287 -4.09252,-1.10768 -7.13076,-3.13565 -8.38705,-5.59822 -0.68659,-1.34584 -0.66945,-2.09857 0.073,-3.2046 0.63913,-0.95211 2.40517,-2.07958 2.73722,-1.74751 0.10848,0.10845 0.16958,0.73083 0.13581,1.38306 -0.0513,0.99184 0.0789,1.36039 0.79582,2.25252 2.89298,3.59995 11.64547,4.48071 18.92559,1.90448 2.73487,-0.96779 4.23132,-1.86689 6.24951,-3.7548 3.37238,-3.15469 4.18113,-7.07087 2.2792,-11.036375 -2.19945,-4.58583 -8.64925,-7.61906 -17.42376,-8.19408 -2.3499,-0.154 -2.66123,-0.23166 -2.66123,-0.6638 0,-0.28764 0.19089,-0.49163 0.46302,-0.49483 0.25466,-0.003 2.24895,-0.18111 4.43177,-0.39584 2.18281,-0.21473 6.46906,-0.56977 9.525,-0.78899 6.36749,-0.45676 15.51588,-1.3536 17.4625,-1.71189 0.7276,-0.13392 1.97776,-0.31809 2.77812,-0.40926 7.08729,-0.80734 19.87976,-3.53319 28.31042,-6.03244 4.62386,-1.37074 13.33008,-4.71759 16.93153,-6.50884 9.54114,-4.74545 16.31021,-10.10214 18.58431,-14.70668 0.64846,-1.31302 1.38189,-3.804 1.17959,-4.00631 -0.058,-0.058 -0.40542,0.34342 -0.772,0.89208 -3.20032,4.78995 -9.70939,9.0212 -19.21936,12.49366 -8.55181,3.1226 -16.37091,5.05115 -27.28741,6.73032 -7.33057,1.12759 -12.57429,1.61864 -30.55937,2.86176 -8.15972,0.56399 -42.08936,0.16997 -49.1513,-0.57079 -1.34334,-0.14091 -3.99026,-0.38734 -5.88203,-0.54762 -1.89177,-0.16029 -5.51077,-0.52357 -8.04225,-0.8073 -2.53145,-0.28373 -6.34145,-0.69687 -8.46667,-0.9181 -6.03432,-0.62816 -13.91951,-2.02522 -25.55983,-4.52858 -1.01865,-0.21907 -2.20927,-0.39877 -2.64583,-0.39933 -1.83825,-0.002 -13.78905,5.27236 -19.34835,8.53981 -3.41632,2.00793 -11.02759,7.0323 -13.32769,8.79791 -5.5611,4.26881 -11.8467,10.61719 -15.75509,15.912495 -3.02091,4.09285 -4.89035,6.75522 -5.75927,8.20208 -0.98107,1.63359 -4.68678,9.04872 -5.42126,10.84792 -1.02447,2.50956 -1.84113,4.76735 -2.29693,6.35 -0.25143,0.87312 -0.60912,2.00422 -0.79483,2.51354 -0.67479,1.85057 -1.98215,7.37384 -2.50751,10.59376 -0.94882,5.81529 -0.64471,14.14113 0.74996,20.53132 0.60807,2.78605 2.31495,7.64228 3.614,10.28221 2.2565,4.58556 6.83747,10.59633 10.57613,13.8771 4.09872,3.59671 9.82258,6.89887 14.59715,8.42125 4.51704,1.44027 5.0111,1.55953 8.5539,2.06484 6.28557,0.89653 15.48066,-0.0376 22.35729,-2.27135 7.61904,-2.47486 16.67298,-8.21025 20.971,-13.28445 4.66725,-5.51015 6.94502,-11.04371 6.6053,-16.04674 -0.32409,-4.77237 -2.08291,-7.22454 -5.18181,-7.22454 -0.67472,0 -1.37581,-0.12372 -1.558,-0.27493 -0.48175,-0.39981 -0.4063,-1.41257 0.18889,-2.53579 1.05174,-1.98481 2.17627,-2.87501 4.9513,-3.91953 1.53953,-0.57947 2.23076,-0.67863 4.71472,-0.67633 4.48342,0.004 8.18232,1.22085 11.66066,3.83558 6.09383,4.58081 9.37398,11.79569 9.37398,20.61863 0,3.68072 -0.59407,6.93475 -2.13813,11.7117 -1.87089,5.78816 -4.02862,9.93456 -8.2083,15.77343 -1.88836,2.63796 -2.21242,3.34184 -1.39398,3.02778 0.17915,-0.0687 0.72115,-0.19396 1.20443,-0.27824 z m -61.60433,-37.72416 c -1.16904,-0.23129 -2.76776,-0.97476 -4.35568,-2.0256 -1.28304,-0.84909 -3.82794,-4.07995 -4.64807,-5.90095 -2.86882,-6.36993 -2.07552,-14.73317 2.19604,-23.15103 4.21463,-8.30567 12.35578,-16.46036 22.86159,-22.89959 3.82109,-2.34203 8.83227,-5.0702 11.37184,-6.19104 0.94589,-0.41746 2.55323,-1.14282 3.57188,-1.61192 2.9999,-1.38147 3.76134,-1.6844 8.06979,-3.21029 9.09735,-3.221955 20.09976,-6.304325 27.64896,-7.745975 17.21397,-3.28731 21.22244,-3.89155 20.98445,-3.16324 -0.0669,0.20463 -1.18433,0.73408 -2.48322,1.17656 -5.19237,1.76884 -9.81761,4.79272 -12.45145,8.14047 -2.51236,3.193335 -3.53952,6.090805 -3.53164,9.962175 0.006,2.88243 0.5107,5.24464 1.69797,7.94499 1.24327,2.82774 2.38037,4.56718 4.38986,6.71532 1.69391,1.8108 1.87904,2.36558 0.58941,1.76634 -3.99812,-1.85779 -9.5794,-3.56594 -14.35476,-4.39327 -4.03841,-0.69966 -13.44723,-0.64286 -17.85937,0.10783 -11.51104,1.95849 -19.666,5.1952 -28.17212,11.18154 -4.30445,3.02933 -9.05325,8.2731 -11.16888,12.33305 -2.00702,3.8515 -2.46391,5.53692 -2.45856,9.06933 0.004,2.68236 0.0787,3.18372 0.6305,4.23334 0.98914,1.88151 2.02639,3.04204 3.18643,3.56514 1.44378,0.65106 1.4488,1.45122 0.0177,2.81264 -1.52297,1.44875 -3.10708,1.80362 -5.73262,1.28418 z M 251.14219,195.7995 c 0,-0.0607 -1.51805,-0.61435 -3.37344,-1.23032 -8.36837,-2.77819 -21.12975,-8.12231 -29.96406,-12.54813 -12.22601,-6.125 -29.62157,-17.20915 -39.44434,-25.13324 -8.03668,-6.48323 -19.24829,-17.53223 -25.21699,-24.85124 -7.92099,-9.71297 -8.9474,-11.14576 -14.06427,-19.63275 -4.90205,-8.1307 -9.62523,-19.010295 -11.47338,-26.428315 -1.81882,-7.30034 -2.58799,-16.55012 -1.77112,-21.29896 1.38699,-8.06315 4.09128,-13.58618 8.81678,-18.00665 2.49911,-2.3378 4.72845,-3.34461 8.10481,-3.66027 l 1.89122,-0.17682 -0.92604,-0.49643 c -2.26469,-1.21404 -5.03099,-1.4946 -7.76702,-0.78774 -2.92477,0.75562 -4.80005,1.89594 -7.57641,4.60708 -3.56195,3.47827 -5.71147,6.96383 -7.94023,12.87546 -1.2743,3.37997 -1.73498,5.67422 -2.27586,11.33392 -0.44339,4.63968 -0.37775,11.9467 0.12478,13.89062 0.13167,0.50932 0.37915,1.9976 0.54995,3.30729 0.66172,5.07395 2.2376,10.6683 4.86916,17.285365 5.84653,14.70115 10.05939,23.67681 14.05408,29.94277 0.32471,0.50932 1.34089,2.11666 2.25819,3.57187 2.0102,3.18901 5.40425,7.74506 7.78208,10.44639 1.5687,1.78211 1.98691,2.08801 4.18977,3.06457 9.34662,4.1435 20.08473,14.17837 28.40068,26.54072 1.21885,1.81191 4.25839,6.99502 5.40164,9.21102 2.00325,3.88296 2.09968,3.95247 5.95106,4.29 8.15263,0.71447 13.70241,1.10494 19.18229,1.34963 3.27422,0.1462 7.62,0.38359 9.65729,0.52752 16.48423,1.16461 20.177,1.44388 24.20938,1.83087 2.50227,0.24015 6.35,0.34665 6.35,0.17577 z m 539.08852,-0.42638 c 7.62683,-0.65712 19.20751,-1.44891 28.83959,-1.97181 4.07458,-0.2212 8.89661,-0.52408 10.71562,-0.67306 1.81901,-0.14898 5.05719,-0.38525 7.19595,-0.52505 5.57808,-0.3646 6.77275,-0.54014 7.48417,-1.09973 0.34771,-0.27352 1.4062,-1.9531 2.35219,-3.73242 0.94602,-1.77932 2.47161,-4.44784 3.39022,-5.93004 0.9186,-1.4822 1.8769,-3.03001 2.12952,-3.43958 2.17752,-3.53001 7.65937,-10.21702 11.31028,-13.79683 6.18625,-6.06573 11.14554,-9.69451 17.14986,-12.54877 2.09244,-0.99468 2.56863,-1.36216 4.19672,-3.23865 4.81124,-5.54527 10.85323,-14.84126 15.00627,-23.08808 1.55495,-3.08777 5.5708,-12.41918 8.51651,-19.78954 3.60233,-9.013195 4.82994,-13.949445 5.98395,-24.061965 0.3688,-3.23182 -0.0908,-12.25463 -0.84241,-16.53646 -0.77763,-4.4303 -3.1447,-10.25659 -5.97905,-14.71683 -1.60192,-2.52083 -5.57742,-6.24994 -7.84109,-7.35516 -2.18006,-1.06436 -4.5697,-1.74051 -6.15137,-1.74051 -1.40116,0 -4.57576,0.88566 -5.11792,1.4278 -0.38931,0.38932 -0.31604,0.42481 0.88919,0.43075 4.12871,0.0203 7.0671,1.78069 11.14456,6.67661 2.98146,3.57991 4.67762,7.64774 5.92884,14.219 1.06468,5.59147 0.34375,14.47773 -1.89492,23.35775 -1.82139,7.22472 -7.0775,18.523945 -13.19623,28.368305 -3.64786,5.86901 -4.69368,7.37753 -7.54787,10.88729 -7.04096,8.65818 -8.40539,10.20395 -14.41355,16.3292 -4.95847,5.05512 -10.08851,9.80172 -14.54187,13.455 -4.56059,3.74122 -17.42686,12.69184 -23.56445,16.39296 -6.79164,4.09553 -9.63049,5.72654 -13.45142,7.72821 -4.32133,2.26384 -5.05301,2.62513 -10.05541,4.96529 -5.27356,2.46702 -15.84698,6.71614 -21.70422,8.72225 -2.09206,0.71654 -3.99706,1.41573 -4.23333,1.55377 -0.66561,0.38886 1.45923,0.31983 8.30167,-0.2697 z m -294.46975,-5.43204 c -0.50885,-3.39317 -2.2446,-8.14909 -4.43611,-12.15474 -0.87564,-1.6005 -1.84566,-3.22853 -2.15559,-3.61784 -0.30996,-0.38931 -0.92072,-1.20544 -1.35729,-1.81361 -1.20253,-1.67523 -5.38511,-5.57219 -7.43757,-6.92966 -1.00256,-0.66309 -2.65628,-1.53342 -3.67493,-1.93409 -2.59387,-1.02024 -4.2292,-1.86847 -6.19024,-3.21079 -0.93078,-0.63712 -1.74305,-1.10767 -1.80504,-1.04568 -0.11287,0.11287 0.29689,0.80501 2.5242,4.26375 7.69644,11.95159 12.37454,17.99442 18.17108,23.47208 1.20002,1.13401 5.75988,4.14347 6.31389,4.16713 0.12567,0.005 0.14708,-0.53309 0.0476,-1.19655 z m 43.6953,-0.30863 c 2.06925,-1.20787 3.17322,-2.10617 5.44655,-4.43178 1.56819,-1.60425 3.38447,-3.57167 4.03617,-4.37204 4.60494,-5.65532 6.35396,-8.11001 12.35371,-17.33805 3.24085,-4.98469 3.21098,-4.84373 0.67818,-3.20053 -2.52241,1.63644 -3.58542,2.18881 -6.16098,3.20141 -6.61355,2.60017 -13.30508,10.14964 -16.82311,18.98008 -1.26638,3.17863 -2.68727,8.67584 -2.2425,8.67584 0.0642,0 1.28455,-0.68172 2.71198,-1.51493 z m -22.32853,-8.44548 c 3.37256,-1.7342 9.14341,-7.70612 12.49079,-12.92605 1.38724,-2.16324 3.30568,-5.90634 3.30147,-6.44152 -0.003,-0.3876 -4.41568,-3.94 -4.60322,-3.70583 -0.041,0.0512 -0.68167,1.37474 -1.42364,2.94108 -0.74195,1.56634 -2.04015,3.87948 -2.88486,5.1403 -1.70305,2.54193 -5.03066,6.20408 -6.66898,7.33943 l -1.06262,0.73641 -0.87091,-0.54338 c -1.28931,-0.80446 -4.42949,-4.11334 -6.18513,-6.51742 -1.29702,-1.77607 -4.4999,-7.54771 -4.9207,-8.86718 -0.14155,-0.44384 0.15195,-0.61496 -3.07035,1.79011 l -1.87169,1.397 0.68588,1.51342 c 2.96153,6.53478 8.87939,13.82273 14.01124,17.25513 1.08868,0.72815 2.03489,1.32391 2.10267,1.32391 0.0678,0 0.50433,-0.19593 0.97005,-0.43541 z m -89.7535,-5.65998 c 1.22124,-0.62303 7.83596,-2.37128 8.97205,-2.37128 0.42172,0 0.84101,-0.12012 0.93173,-0.26693 0.0907,-0.14682 -0.81113,-2.14112 -2.00414,-4.43177 -8.64573,-16.60034 -13.12137,-26.71628 -16.70936,-37.76692 -3.86805,-11.91307 -5.67828,-18.45623 -7.88104,-28.4862 -1.24232,-5.656725 -1.41629,-6.645765 -2.13286,-12.127345 -0.94855,-7.25606 -1.032,-8.23852 -1.20237,-14.1552 -0.31988,-11.11026 1.16581,-24.16419 3.73068,-32.77938 2.3799,-7.99382 6.26972,-14.25628 10.62058,-17.09863 1.98732,-1.29829 3.1939,-1.71469 5.77858,-1.99426 1.50638,-0.16293 1.54877,-0.18714 0.92605,-0.52905 -0.35891,-0.19707 -1.30199,-0.49644 -2.09574,-0.66526 -4.29469,-0.91344 -9.41703,2.44217 -13.87412,9.08885 -2.56902,3.8311 -6.26504,14.06579 -7.28218,20.16523 -0.1456,0.87312 -0.39351,2.30187 -0.55094,3.175 -0.58899,3.26716 -1.30521,10.26965 -1.61221,15.76228 -0.32745,5.85926 -0.068,14.95976 0.5728,20.08876 0.954,7.63614 2.25136,14.407615 4.10609,21.431255 0.51877,1.96453 1.22608,4.65392 1.57178,5.97642 1.45595,5.56952 6.90277,22.45392 9.16763,28.41836 0.58044,1.52854 1.92447,4.98183 2.98675,7.67396 3.49194,8.84962 4.46471,12.7906 4.45728,18.05781 -0.003,1.85539 0.1012,3.37344 0.23069,3.37344 0.12951,0 0.71104,-0.24261 1.29227,-0.53914 z m 179.33855,-2.59805 c 0,-5.51659 1.13496,-10.25412 4.3193,-18.02948 0.56618,-1.38244 1.36594,-3.46604 1.77726,-4.6302 0.41132,-1.16417 1.34088,-3.66448 2.06571,-5.55625 1.32577,-3.46034 4.37901,-12.58457 6.02056,-17.99167 3.65599,-12.04247 5.69074,-20.5502 7.5433,-31.540075 1.10194,-6.5371 1.54662,-21.48225 0.8486,-28.52034 -0.93734,-9.45098 -1.7085,-14.29121 -3.10282,-19.4752 -2.1889,-8.13817 -4.59317,-13.5367 -7.80884,-17.53402 -4.33604,-5.38999 -8.50577,-7.60027 -12.56011,-6.65781 -1.96747,0.45735 -2.48256,0.93682 -1.00642,0.93682 1.46796,0 4.17843,0.86933 5.67896,1.82142 5.66174,3.59238 10.12306,12.01679 12.49743,23.5992 1.74723,8.52325 2.76337,24.31459 2.03507,31.62642 -1.19044,11.9514 -2.33923,18.54115 -5.20708,29.868595 -2.05745,8.12652 -6.49872,22.49544 -8.30061,26.8552 -0.45109,1.09141 -1.04645,2.63922 -1.32302,3.43959 -0.2766,0.80036 -1.29985,3.24114 -2.27391,5.42395 -0.97406,2.18282 -2.08317,4.69044 -2.4647,5.5725 -0.3815,0.88205 -2.87467,5.8686 -5.54035,11.08121 -2.66567,5.21262 -4.74927,9.56019 -4.63021,9.66129 0.11907,0.10109 1.15393,0.33377 2.29971,0.51705 2.36704,0.37865 6.52227,1.57396 7.70636,2.21684 1.40015,0.76021 1.42581,0.7119 1.42581,-2.68504 z M 63.696389,172.10583 c 2.75858,-0.28639 5.55138,-0.63136 6.20622,-0.76661 4.67656,-0.96585 6.78288,-1.45232 8.86354,-2.04708 6.39431,-1.82781 16.93043,-6.78973 21.03438,-9.906 0.509321,-0.38674 1.580881,-1.15775 2.381251,-1.71334 2.18598,-1.51746 7.08519,-5.67794 9.58075,-8.13613 5.84672,-5.75918 9.98854,-12.16606 12.20672,-18.88224 1.15993,-3.51204 1.49284,-5.51587 1.48862,-8.96017 -0.007,-6.01208 -1.70032,-11.79311 -4.76515,-16.27187 -1.48358,-2.168 -4.51163,-5.32841 -6.53543,-6.821075 -2.64979,-1.95436 -8.59631,-4.78152 -11.71093,-5.56774 -3.872281,-0.97748 -11.614061,-1.39883 -15.653231,-0.85194 -9.90346,1.34089 -18.63634,5.6752 -19.8289,9.841485 -0.50472,1.76325 -0.67131,1.88638 -2.3426,1.73149 -0.80624,-0.0747 -1.70621,-0.21297 -1.99993,-0.30721 -0.4266,-0.13688 -0.81387,0.16428 -1.92514,1.49713 -2.16631,2.59823 -3.03614,3.89866 -3.95945,5.91953 -3.17501,6.9492 -2.34796,13.13648 2.39499,17.91721 1.65708,1.67029 2.22475,2.05315 4.33211,2.92175 3.06646,1.26391 5.24909,1.60551 9.08423,1.42175 3.22588,-0.15456 5.26533,-0.54827 8.43251,-1.62785 5.25879,-1.79255 9.61904,-5.68739 9.15229,-8.17538 -0.21748,-1.15925 0.30392,-1.49499 2.32173,-1.49499 3.58558,0 5.5591,3.95496 4.20239,8.42162 -1.89975,6.25452 -9.71626,12.43757 -18.97178,15.00715 -11.51908,3.198 -22.88281,0.92213 -32.12252,-6.43334 -6.44892,-5.1338 -10.25519,-14.26053 -9.68096,-23.21313 0.47226,-7.36267 2.30098,-13.17513 5.9103,-18.785425 1.9117,-2.97154 4.86555,-6.4255 7.52358,-8.7974 0.85615,-0.76398 1.43124,-1.38906 1.27798,-1.38906 -0.66136,0 -7.0259,3.4215 -10.0601,5.4082 -4.15985,2.72372 -10.52656,7.25092 -12.43541,8.842475 -0.80037,0.66733 -3.04439,2.76431 -4.98671,4.65997 -6.17873,6.03028 -11.53731,13.52339 -15.1535296,21.18978 -1.46074,3.09676 -3.06869,7.68718 -2.79023,7.96564 0.0981,0.0981 0.44729,-0.0742 0.77595,-0.38299 0.96385,-0.90549 3.04211,-1.69685 4.4280696,-1.68611 1.34915,0.0105 2.96084,0.56519 3.7984,1.3074 0.65419,0.57971 1.53829,2.5432 1.35423,3.00758 -0.0776,0.19567 -0.76276,0.71372 -1.52267,1.15122 -5.9606696,3.43174 -1.9934,15.7995 7.5073,23.40362 3.39607,2.71812 5.83941,4.20968 9.38645,5.73001 10.86816,4.65832 20.73823,6.12438 32.80068,4.87207 z M 985.19944,171.9648 c 5.04312,-0.71082 10.85355,-2.37122 16.18036,-4.62375 6.3862,-2.70049 12.2798,-7.30607 15.6849,-12.25694 5.0645,-7.3635 5.6747,-14.54749 1.4427,-16.98398 -0.7599,-0.4375 -1.4433,-0.95093 -1.5187,-1.14097 -0.1676,-0.42244 0.5061,-2.09462 1.1245,-2.79102 1.7594,-1.98137 5.8698,-1.93619 8.4493,0.0929 0.3759,0.29564 0.739,0.48185 0.8071,0.41379 0.3106,-0.31062 -1.7741,-5.82985 -3.4846,-9.2255 -4.5414,-9.01509 -9.9254,-15.98194 -17.859,-23.10916 -3.1212,-2.803885 -11.56157,-8.880615 -16.23525,-11.688655 -2.49626,-1.4998 -7.60973,-4.09784 -7.76324,-3.94432 -0.0566,0.0566 0.79695,0.96996 1.89674,2.0297 4.89244,4.71424 7.97343,9.1536 10.16651,14.648725 1.60875,4.031 2.64724,9.61033 2.64724,14.22229 0,7.45405 -3.62829,15.94634 -8.67582,20.30644 -4.76123,4.11278 -10.88819,7.14149 -16.43467,8.12407 -9.55644,1.69295 -19.75308,-0.37955 -27.05497,-5.49901 -6.28703,-4.4079 -9.01896,-8.2159 -9.05918,-12.62742 -0.0356,-3.9036 1.58806,-6.08542 4.52861,-6.08542 1.9521,0 2.55823,0.35092 2.35567,1.36377 -0.62614,3.13071 5.0832,7.46048 12.14342,9.20917 2.89533,0.71712 7.7271,0.98587 10.34788,0.57556 1.03693,-0.16234 2.92073,-0.7286 4.18624,-1.25835 5.08558,-2.12887 8.61282,-7.4211 8.61282,-12.9226 0,-1.83248 -0.59851,-4.92899 -1.29146,-6.68157 -0.74938,-1.89534 -3.19974,-5.72866 -4.77903,-7.47626 -1.29699,-1.43521 -1.3158,-1.44482 -2.20168,-1.12448 -1.15837,0.41887 -2.97072,0.41467 -3.29078,-0.008 -0.13785,-0.1819 -0.39593,-0.83872 -0.57349,-1.4596 -1.09648,-3.834035 -8.43185,-7.801185 -17.53769,-9.484815 -3.5319,-0.65304 -4.13581,-0.69069 -8.69045,-0.54179 -7.4041,0.24206 -10.14667,0.88366 -16.00729,3.74474 -3.95341,1.93 -6.19678,3.54252 -8.72863,6.274055 -3.17987,3.43064 -4.8287,6.27549 -6.18194,10.66622 -1.00436,3.25881 -1.34985,5.55291 -1.35406,8.99129 -0.004,3.37545 0.32523,5.46076 1.35819,8.59896 3.45802,10.50554 10.94676,19.58267 23.50539,28.49096 3.61339,2.5631 5.52244,3.6838 9.56091,5.61268 7.05813,3.37117 11.19269,4.80667 18.07599,6.27591 8.87637,1.89466 18.08189,2.3584 25.64746,1.29203 z m -492.79033,-9.76574 c 5.69312,-1.63341 9.73928,-4.60471 13.91994,-10.22217 3.02178,-4.06033 4.60827,-7.20837 6.22406,-12.35031 1.62771,-5.17986 2.36193,-10.9433 2.45297,-19.25523 0.19164,-17.4932 -3.99624,-36.544505 -11.48672,-52.255215 -4.83021,-10.13095 -13.6656,-22.48527 -21.69044,-30.32925 -4.88166,-4.77163 -7.9213,-7.26083 -13.17381,-10.78823 -9.62589,-6.46437 -17.48515,-8.83453 -24.71052,-7.45208 -3.38061,0.64682 -7.39201,2.99024 -9.76805,5.70641 -1.29926,1.48524 -3.01056,4.66547 -3.28475,6.1043 -0.17129,0.89882 -0.15235,0.88795 1.91524,-1.09829 3.46435,-3.32802 7.73075,-5.43096 11.61547,-5.72531 6.57564,-0.49826 14.82762,2.84345 23.9426,9.69574 13.00276,9.77498 24.42001,24.69919 31.27237,40.87811 4.5584,10.76275 7.405,20.69208 8.93741,31.175075 1.27064,8.69193 1.39735,19.40967 0.30039,25.40339 -2.37869,12.9969 -8.54814,22.18139 -17.22769,25.64694 -4.06098,1.62146 -10.14002,1.93389 -14.81582,0.76146 -2.7465,-0.68868 -7.52927,-3.0169 -10.1138,-4.92336 -1.05315,-0.77683 -1.95757,-1.36965 -2.00983,-1.31738 -0.26744,0.26744 2.91841,3.72933 4.9298,5.35694 3.60214,2.91483 6.99997,4.55131 11.42717,5.5036 2.82707,0.6081 8.29437,0.35983 11.34401,-0.51514 z m 58.39124,0.6239 c 5.09518,-0.90414 9.67642,-3.24815 13.77113,-7.04602 1.31363,-1.2184 3.39307,-3.75997 3.21885,-3.93419 -0.0688,-0.0688 -0.58992,0.22722 -1.15798,0.65786 -0.56809,0.43064 -1.33054,1.00697 -1.69434,1.28074 -0.3638,0.27377 -1.76043,1.11343 -3.10364,1.86592 -5.34487,2.9943 -11.70845,3.8982 -18.06302,2.56574 -3.81154,-0.79923 -7.80421,-3.14463 -10.79392,-6.34063 -3.49596,-3.73719 -5.7604,-7.64613 -7.48765,-12.92529 -2.13913,-6.53813 -2.74151,-11.27682 -2.54262,-20.00202 0.17645,-7.74042 0.9766,-14.49661 2.43194,-20.534145 0.35079,-1.45521 0.7135,-3.12208 0.80603,-3.70417 0.21516,-1.35326 0.33102,-1.76192 1.98784,-7.01146 3.67271,-11.63682 8.82996,-22.4725 14.60772,-30.69166 5.10434,-7.26119 7.54102,-10.20452 12.4065,-14.98619 9.01737,-8.86205 18.33004,-14.84585 26.28728,-16.89077 2.20483,-0.56662 6.296,-0.78794 8.14295,-0.44051 3.55433,0.66862 6.77571,2.45181 10.01228,5.54228 2.19123,2.09234 2.29111,2.15499 2.10251,1.31882 -0.42275,-1.87449 -2.32013,-5.19853 -3.94695,-6.91472 -2.03406,-2.14579 -5.54598,-4.1422 -8.72939,-4.96239 -2.07854,-0.53551 -5.61719,-0.70714 -7.58251,-0.36774 -1.83915,0.3176 -6.06298,1.48874 -6.61347,1.83371 -0.29105,0.18239 -1.24355,0.59624 -2.11667,0.91968 -7.09552,2.62845 -19.20602,12.00856 -26.84505,20.79262 -2.45123,2.81866 -6.73367,8.43627 -9.58067,12.56771 -5.58696,8.10757 -9.89975,17.23685 -13.1505,27.83684 -2.31188,7.53849 -2.86457,9.9189 -4.41021,18.994415 -1.62652,9.55039 -1.60372,24.38166 0.0505,32.80389 1.37073,6.97909 3.47221,11.64086 7.99317,17.73152 4.10186,5.52609 9.56011,8.97482 15.91257,10.0542 1.80695,0.30703 6.32217,0.29919 8.08734,-0.014 z m -101.98484,-3.51097 c 1.76832,-0.84818 3.8689,-2.97554 4.85016,-4.912 0.38513,-0.75998 0.94546,-2.53607 1.24521,-3.94687 2.28073,-10.73484 -5.02881,-25.00954 -14.84995,-29.00024 -6.88565,-2.79788 -12.76655,-0.11457 -14.97235,6.83152 -3.67149,11.56159 4.49575,27.57693 16.02444,31.42276 2.19691,0.73286 5.72846,0.55168 7.70249,-0.39517 z m 142.33437,0.45276 c 6.65904,-1.97573 12.9013,-8.68283 15.60666,-16.76881 2.08675,-6.23701 2.04939,-12.00428 -0.10721,-16.54541 -1.55881,-3.28242 -3.65,-5.0565 -6.90805,-5.86051 -1.55237,-0.38308 -2.06934,-0.39902 -3.8136,-0.11759 -8.5407,1.37802 -16.37337,10.66144 -18.44331,21.85933 -1.09265,5.91096 0.46699,12.1485 3.82233,15.28703 1.2854,1.20235 1.63287,1.40679 3.73964,2.20032 1.28432,0.48374 4.38293,0.45614 6.10354,-0.0544 z M 469.28762,142.87043 c 4.85365,-1.58439 7.53203,-4.90329 9.01607,-11.1722 0.5479,-2.31447 0.64236,-3.40039 0.66731,-7.67292 0.0507,-8.68541 -0.9689,-14.24201 -4.7003,-25.614385 -1.99673,-6.08566 -3.24297,-9.05962 -6.43056,-15.34583 -4.59962,-9.07082 -7.94089,-13.84241 -14.14571,-20.20118 -5.1085,-5.23526 -8.69963,-7.64488 -12.22193,-8.20077 -3.03744,-0.47938 -5.65785,0.35282 -7.31602,2.32347 -1.89087,2.24717 -3.36221,7.08712 -3.36221,11.05992 0,3.886 4.00817,19.04026 7.66759,28.98987 0.27805,0.75598 1.17449,3.279525 1.99208,5.607855 1.83748,5.23276 2.16429,6.04354 5.78609,14.35365 1.73376,3.97807 2.61289,5.82004 5.9037,12.36927 3.74068,7.44456 5.4401,10.55716 6.26507,11.47488 2.25026,2.5033 6.81604,3.3546 10.87882,2.02837 z m 100.75407,0.25847 c 2.42988,-0.63291 3.89001,-1.7352 5.28955,-3.99323 0.91861,-1.48212 8.05355,-15.74488 9.58538,-19.1612 4.78189,-10.66473 6.38289,-14.80366 11.10435,-28.707295 3.1219,-9.19327 5.69412,-20.07866 5.69412,-24.0969 0,-3.4957 -1.76548,-8.56014 -3.61106,-10.35865 -1.95804,-1.9081 -2.94737,-2.26591 -5.89393,-2.1316 -2.23457,0.10185 -2.75209,0.22414 -4.38563,1.03625 -3.70872,1.84381 -8.70453,6.33703 -13.49269,12.13527 -2.37059,2.87068 -2.99985,3.76683 -5.48063,7.80521 -5.53128,9.00407 -8.83931,16.55128 -12.23489,27.913545 -2.20755,7.38696 -3.07991,13.07751 -3.10282,20.24063 -0.0117,3.60612 0.0972,5.03341 0.54845,7.19879 0.93208,4.47249 2.54193,7.52182 5.14935,9.75367 2.75944,2.36199 7.15669,3.32241 10.83045,2.36551 z M 519.1651,53.714925 c 4.84592,-1.11302 8.79231,-3.14756 11.65174,-6.00698 2.57022,-2.57022 3.83435,-4.94436 4.20519,-7.89774 0.65759,-5.23726 -1.41299,-9.36047 -5.81573,-11.58094 -3.47422,-1.7522 -7.27329,-1.80811 -12.55475,-0.18478 -5.11918,1.57345 -5.71314,1.70076 -7.93749,1.70134 -2.60925,7.9e-4 -4.33414,-0.71036 -5.75768,-2.37347 -1.11779,-1.30586 -1.67077,-3.36881 -1.41468,-5.27749 0.59095,-4.40467 5.95845,-9.57149 12.11485,-11.66191 6.06679,-2.0599996 14.62455,-2.1289796 20.71074,-0.16693 1.15792,0.37329 2.14672,0.63731 2.19731,0.58671 0.22783,-0.22783 -2.38802,-2.0437896 -4.37634,-3.0380996 -3.36738,-1.68393 -6.03745,-2.24637 -10.64191,-2.24166 -2.5943,0.003 -4.52406,0.14995 -5.96014,0.45494 -7.71385,1.63825 -14.07096,6.1326096 -16.92857,11.9681696 -1.85767,3.79351 -1.87378,6.81369 -0.0547,10.25598 0.91427,1.73014 3.0962,3.61029 5.00898,4.31617 2.52476,0.93173 7.66668,0.75218 11.84905,-0.41376 4.21775,-1.1758 8.11723,-1.48904 10.49266,-0.84286 1.84875,0.50289 3.57222,1.84521 4.45154,3.46702 0.7077,1.30533 0.78946,1.70046 0.79375,3.83646 0.004,1.98822 -0.10131,2.59959 -0.63794,3.70416 -0.95099,1.95745 -4.26381,5.15981 -6.36876,6.15642 -4.24902,2.01175 -8.23992,2.93104 -13.62604,3.13872 -6.29126,0.24259 -9.93066,-0.54747 -14.90541,-3.23573 -1.82427,-0.9858 -2.12492,-1.08508 -1.73977,-0.57446 1.35785,1.80012 4.7193,3.82198 8.3108,4.9988 3.39045,1.11094 6.04026,1.4979 10.45105,1.52622 3.03048,0.0195 4.20944,-0.0923 6.48229,-0.6143 z m -5.04664,-9.81776 c 2.65618,-0.50677 5.78321,-1.48454 7.42789,-2.32258 1.4918,-0.76013 2.29843,-2.11966 1.75043,-2.95021 -0.55748,-0.8449 -1.78803,-0.78557 -4.86678,0.23465 -3.23704,1.07267 -8.12469,2.00597 -10.48982,2.00303 -4.45609,-0.006 -9.59152,-1.67124 -12.93548,-4.19566 -3.03536,-2.29147 -5.56797,-7.07417 -6.15733,-11.62782 -0.22321,-1.72461 -0.4589,-1.51239 -0.8604,0.77473 -0.50911,2.89995 -0.4001,6.58754 0.23897,8.0835 2.25552,5.27989 8.36067,9.4536 15.19645,10.38888 2.46655,0.33748 7.93128,0.13898 10.69607,-0.38852 z m 30.20356,-7.88291 c 1.65352,-8.01235 -0.57301,-13.06839 -7.5098,-17.05345 -4.17129,-2.39633 -8.48804,-3.39333 -13.67837,-3.15917 -5.38094,0.24276 -10.85869,2.05443 -13.15509,4.35083 -1.28468,1.28469 -1.50714,1.9961 -0.87018,2.78272 0.55599,0.68663 0.84293,0.63138 4.89714,-0.94291 1.30969,-0.50856 3.68432,-1.18988 5.27696,-1.51404 4.63433,-0.94327 9.99548,-0.45462 13.90533,1.26742 2.5899,1.14068 5.82732,4.06773 7.53796,6.81527 1.65817,2.66329 2.29854,4.75881 2.45644,8.03832 0.15409,3.20099 0.38248,3.08376 1.13961,-0.58499 z"
     id="path3752" /></svg>
